<svg xmlns="http://www.w3.org/2000/svg" xmlns:xlink="http://www.w3.org/1999/xlink" width="903.333" height="807.636" viewBox="0 0 903.333 807.636"><defs><linearGradient id="a" x1="0.5" x2="0.5" y2="1" gradientUnits="objectBoundingBox"><stop offset="0" stop-color="#fff"/><stop offset="1" stop-color="#fff"/></linearGradient></defs><g transform="translate(-988.667 -111)"><g transform="translate(-2609 408)" style="isolation:isolate"><g transform="translate(2769.079 -537.569)"><g transform="translate(864.921 240.569)" style="isolation:isolate"><ellipse cx="221" cy="220.5" rx="221" ry="220.5" transform="translate(287)" fill="#fff"/><circle cx="204" cy="204" r="204" transform="translate(0 154)" fill="#fff"/><circle cx="270" cy="270" r="270" transform="translate(327 174)" fill="url(#a)"/><ellipse cx="221" cy="220.5" rx="221" ry="220.5" transform="translate(287)" fill="#f056b1" opacity="0.35"/><circle cx="204" cy="204" r="204" transform="translate(0 154)" fill="#555" opacity="0.35"/><circle cx="270" cy="270" r="270" transform="translate(327 174)" fill="rgba(255,165,0,0.35)"/></g></g></g><g transform="translate(860.112 138.673)"><g transform="translate(0 -0.006)"><g transform="translate(128.555 702.36)" opacity="0.14"><path d="M0,408.539c0,17.932,245.207,35.47,446.515,33.618s393.853-18.6,393.818-36.534-189.24-42.8-390.548-40.83S0,390.607,0,408.539Z" transform="translate(0 -364.682)" fill="#fff"/></g><path d="M333.342,235.8,213.68,496.083h29.583l114.761-252.59Z" transform="translate(217.215 230.587)" fill="#b79c7e"/><path d="M358.649,246.18,469.9,488.188H440.319L330.72,246.951Z" transform="translate(336.191 240.737)" fill="#b79c7e"/><path d="M450.233,98.6c33.7,10.562,40.452,27.452,49.2,54.687,6.836,21.3,22.182,220.232-26.4,253.757-19.157,13.212-121.275,10.522-172.9,8.03-18.048-.87-48.4,2.176-53.519-26.068l-4.033-91.2s106.332-60.838,113.33-75.672-.887-101.265-.887-101.265S382.155,77.24,450.233,98.6Z" transform="translate(246.603 90.671)" fill="#585858"/><path d="M312.924,475.068c-21.456-55.379-113.108-210.3-96.088-238.25,4.678-7.674,33.011-13.845,36.136-12.065s88.042,253.954,88.042,253.954S315.425,481.555,312.924,475.068Z" transform="translate(218.294 219.482)" fill="#f4beab"/><path d="M238.907,396.355c16.132,6.072,49.087,1.675,59.125-6.388,20.162-11.537,10.952-7.027,29.352-14.387l4.687,8.315-.847-22.706c-9.377-32.12-57.27,8.742-57.27,8.742l-10.99,1.444S221.747,389.907,238.907,396.355Z" transform="translate(238.61 341.154)" fill="#707070"/><path d="M315.238,354.306s-30.107,31.25-47.288,30.459c-22.041-1.028-23.876-6.131-17.262-10.225s28.7-11.748,29.1-16.456c.323-3.58-2.218-13.014-2.218-13.014S311.467,347.938,315.238,354.306Z" transform="translate(251.411 337.435)" fill="#f4beab"/><path d="M271.1,221.361c2.42,13.667,6.594,41,41,29.944,22.182-7.16,36.54-11.531,44.041-17.385a14.621,14.621,0,0,0,6.352-11.61c.524-13.489,22.4-130.794,21.88-136.273-.181-1.978-1.27-8.5-2.561-16.08-2.339-13.568-5.4-30.439-5.4-30.439S373.961,6.489,348.956,7a39.3,39.3,0,0,0-13.067,2.532l-.907.356a4.215,4.215,0,0,0-.686.3c-17.907,7.476-30.873,25.1-36.3,43.374-6.776,23,1.028,97.527-8.49,115.585C277.712,191.476,267.448,200.831,271.1,221.361Z" transform="translate(274.821 6.854)" fill="#4a4240"/><g transform="translate(556.538 26.061)" opacity="0.24"><path d="M290.8,241.333l1.875-.752c-1.149-2.789-2.763-5.934-4.457-9.3-7.623-14.992-17.08-33.623-3.065-47.9,13.531-13.845,13.995-52.017,14.418-85.739.161-12.48.323-24.268,1.129-33.781,3.549-41.653,33.354-50.991,33.575-51.05v.358c-.3,0-31.942,7.4-35.592,50.494-.807,9.573-.968,21.4-1.129,33.92-.4,33.366-.887,71.2-13.854,84.375-15,15.269-4.779,35.443,2.7,50.158C288.113,235.479,289.666,238.6,290.8,241.333Z" transform="translate(-275.986 -13.17)" fill="#0c0c0c"/></g><path d="M319.656,101.83S246.818,213.617,243.693,227.4s45.715,15.071,45.715,15.071l46.118-41.535Z" transform="translate(247.577 99.586)" fill="#dd9105"/><path d="M294.72,178.48s-1.23-18.433-30.934-22.389c-15.043-1.978-21.214,12.539-19.46,18.473s18.27,16.159,19.46,16.159,30.934-3.956,30.934-3.956Z" transform="translate(248.073 152.464)" fill="#a16800"/><g transform="translate(583.297 52.792)" opacity="0.24"><path d="M292.773,159.328c-15.789-96.8,25.045-147.685,53.882-128.718s20.589,121.083,19.581,123.476S322.738,206.9,318.262,205,294.89,172.975,292.773,159.328Z" transform="translate(-289.256 -26.686)" fill="#0c0c0c"/></g><path d="M301.46,347.57s40.613,29.41,45.13,45.747-5.707,20.332-17.5,17.267-45.413-20.154-52.692-48.1c-1.815-6.982,8.933-13.845,8.933-13.845Z" transform="translate(280.756 339.88)" fill="#707070"/><path d="M233.712,230.424c1.432-3.2,23.231-14.5,31.68-11.175,11.01,4.331,47.933,51.167,56.463,113.37,9.9,73.061,22.908,142.048,22.908,142.048s35.39,32.239,31.74,41.535-28.453-2.987-41-11.531c-5.767-3.956-10.526-12.836-13.309-19.145C295.882,425.815,232.3,233.45,233.712,230.424Z" transform="translate(237.554 213.811)" fill="#ffccb6"/><path d="M318.17,215.332c.2,4.964,3.771,15.19,10.526,25.435,11.575,17.583,33.7,42.128,63.219,33.168,16.8-5.1,20.949-10.088,27.926-17.861.645-.712-21.773-91.96-21.773-91.96-6.4-20.8,1.671-74.553-11.093-114.663C379.654,26.488,359.792.558,332.951,0h0a28.366,28.366,0,0,0-4.578.257,24.509,24.509,0,0,0-15.548,8.426l-1.391,1.741a37.662,37.662,0,0,0-3.448,5.4c-.161.3-.3.593-.444.91s-.181.415-.282.613a43.755,43.755,0,0,1,11.454,17.662,15.874,15.874,0,0,1,.726,3.2c.968,7.219-3.166,13.588-9.175,18.077a34.885,34.885,0,0,1-12.785,5.934c-1.472,7.911,9.2,15.823,8.994,17.919C305.91,85.546,317.605,201.744,318.17,215.332Z" transform="translate(302.247 13.26)" fill="#4a4240"/><g transform="translate(619.634 123.764)" opacity="0.24"><path d="M342.433,65.657c-8.913,32.318,3.69,60.739,11.414,65.387.645.376-42.347-2.809-45.533-14.873C299.844,84.367,346.1,52.365,342.433,65.657Z" transform="translate(-307.275 -62.569)" fill="#0c0c0c"/></g><path d="M279.88,240.246c0,37.139,30.7,67.246,68.562,67.246h.444c37.8-.251,68.268-30.468,68.1-67.548S386.074,172.918,348.269,173s-68.408,30.165-68.409,67.245Z" transform="translate(284.489 169.179)" fill="orange"/><path d="M344.375,75.357s-4.981,44.4,20.024,48.5H292.51s28.01-7.16,17.705-51.6C310.215,72.251,332.68,62.639,344.375,75.357Z" transform="translate(297.349 67.258)" fill="#ffccb6"/><path d="M292.17,268.356l108.692,2.116s.6-3.165,1.613-8.623c5.525-30.024,22.787-128.915,14.438-148.694h0a6.7,6.7,0,0,0-1.855-2.71l-.242-.178c-.585-.475-1.149-.91-1.734-1.345A66.828,66.828,0,0,0,386.867,96.66H314.816a205.677,205.677,0,0,0-21.355,8.346c-3.408,1.661-9.8,31.052-21.537,65.763C264.1,193.851,292.17,268.356,292.17,268.356Z" transform="translate(275.023 94.53)" fill="orange"/><path d="M363.61,95.6l-36,46.1L303.941,98.194s-20.347,4.727-22.646,9.889c-1.371,3.085,45.271,44.422,45.271,44.422l70.115-46.242A36.733,36.733,0,0,0,363.61,95.6Z" transform="translate(285.918 92.917)" fill="#a16800"/><path d="M280.937,167.944c7.7,5.637,15.709,12.52,14.781,16.139l-56.241.613s-1.553-8.386,9.6-16.772A26.851,26.851,0,0,1,280.937,167.944Z" transform="translate(243.364 159.104)" fill="#dda794"/><path d="M215.78,272.111a110.89,110.89,0,0,1,78.645,14.735h0c8.57,5.32,22.384,12.282,30.53,21.341l11.918-2.1,1.654-.3,75.519-13.311,21.819-3.639-13.793-17.425-65.78-83.069s-84.856,32.891-127.042,69.917l-1.795,1.6a102.719,102.719,0,0,0-11.676,12.243Z" transform="translate(219.349 184.188)" fill="orange"/><g transform="translate(513.714 375.109)" opacity="0.24"><path d="M254.75,285.575h0c8.57,5.32,22.4,12.282,30.551,21.341l89.131-15.7a68.8,68.8,0,0,0,59.177-34.027,66.131,66.131,0,0,0-.5-67.278c-5.021,0-8.893-.257-8.893-.257s4.557,64.22-41.763,80.5S254.75,285.575,254.75,285.575Z" transform="translate(-254.75 -189.65)" fill="#0c0c0c"/></g><path d="M182.75,194.59V548.129l22.767-.02,17.746-335.718.746-14.3Z" transform="translate(185.773 190.29)" fill="#d1b48f"/><g transform="translate(368.523 388.381)" opacity="0.24"><path d="M182.75,196.36v14.3h40.512l.746-14.3Z" transform="translate(-182.75 -196.36)"/></g><path d="M447.44,196.36l.766,14.3L466.133,549.9H488.7V196.36Z" transform="translate(454.842 192.021)" fill="#d1b48f"/><path d="M84.45,196.36V549.9h22.565L124.942,210.66l.746-14.3Z" transform="translate(85.847 192.021)" fill="#d1b48f"/><g transform="translate(902.282 388.381)" opacity="0.24"><path d="M447.44,196.36l.766,14.3H488.7v-14.3Z" transform="translate(-447.44 -196.36)"/></g><g transform="translate(170.297 388.381)" opacity="0.24"><path d="M84.45,196.36v14.3h40.492l.746-14.3Z" transform="translate(-84.45 -196.36)"/></g><path d="M341.22,196.36l.746,14.3,17.927,343.827h22.585V196.36Z" transform="translate(346.865 192.021)" fill="#d1b48f"/><g transform="translate(688.085 388.381)" opacity="0.24"><path d="M341.22,196.36l.746,14.3h40.512v-14.3Z" transform="translate(-341.22 -196.36)"/></g><path d="M360.518,96.361l-44.324,46.578L292.5,99.426l27.647-5.676Z" transform="translate(297.339 91.685)" fill="#ffccb6"/><g transform="translate(606.636 139.944)" opacity="0.24"><path d="M335.918,73.42s-29.986,2.769-35.088-2.67a54.983,54.983,0,0,0,3.448,7.259c2.016,2.888,10.909,4.153,15.709,3.956a21.893,21.893,0,0,0,15.931-8.544Z" transform="translate(-300.83 -70.75)" fill="#333232"/></g><path d="M290.54,74.3c0,30.478,15.547,55.2,38.173,55.2s40.956-24.7,40.956-55.2S351.319,19.08,328.713,19.08,290.54,43.823,290.54,74.3Z" transform="translate(295.346 18.67)" fill="#ffccb6"/><path d="M312.858,70.3a.863.863,0,0,0,.323,0,.737.737,0,0,0,.4-.419.719.719,0,0,0-.032-.57c-.706-1.444-4.92-4.707-7.179-6.388a13.246,13.246,0,0,0,4.719-4.371c2.561-3.6,4.8-9.276,3.368-14.339a.755.755,0,0,0-.928-.514.737.737,0,0,0-.524.91c1.291,4.569-.786,9.771-3.166,13.113a9.3,9.3,0,0,1-5.2,4.193.743.743,0,0,0-.667.53.724.724,0,0,0,.284.795,45,45,0,0,1,7.885,6.626.768.768,0,0,0,.726.435Z" transform="translate(308.963 42.711)" fill="#dda794"/><path d="M314.389,65.7a18.816,18.816,0,0,0,9.7-2.452.883.883,0,0,0,.423-.969.769.769,0,0,0-.948-.514.723.723,0,0,0-.423.336,19.524,19.524,0,0,1-18.794-.613.8.8,0,0,0-1.028.257.782.782,0,0,0,.262,1.028A21.508,21.508,0,0,0,314.389,65.7Z" transform="translate(308.239 60.046)" fill="#dda794"/><path d="M339.557,43.026c1.452.356-2.984-5.043-14.761-5.676-3.529-.178-9.316.218-10.506,1.5s-.585,4.193,5.687,3.54a59.892,59.892,0,0,1,19.581.633Z" transform="translate(318.985 36.495)"/><path d="M322.419,47.343c.343,2.334-.585,4.371-2.016,4.589s-2.944-1.523-3.287-3.956.6-4.371,2.017-4.569S322.1,45.009,322.419,47.343Z" transform="translate(322.29 42.443)" fill="#2b2b2b"/><path d="M328.63,44.04l-12.16-.91.181,3.659,11.857-1.6Z" transform="translate(321.705 42.187)" fill="#2b2b2b"/><path d="M292.776,43.649c-1.452.356,2.44-5.617,14.116-6.25,3.529-.2,6.554-.455,8.248.593,2.843,1.76-.181,5.221-4.033,4.589a49.193,49.193,0,0,0-18.33,1.068Z" transform="translate(297.324 36.407)"/><path d="M296.835,47.6c-.222,2.334.807,4.351,2.3,4.49s2.884-1.642,3.105-3.956-.807-4.331-2.3-4.49S297.077,45.267,296.835,47.6Z" transform="translate(301.715 42.68)" fill="#2b2b2b"/><path d="M294.82,45.086,306.8,42.95l.222,3.679-11.978-.4Z" transform="translate(299.697 42.011)" fill="#2b2b2b"/><path d="M310.775,67.663a6.312,6.312,0,0,0,3.832-1.246.722.722,0,0,0,0-1.048.736.736,0,0,0-1.049,0h0a5.45,5.45,0,0,1-6.171,0,.759.759,0,0,0-.569-.082.745.745,0,0,0-.459.339.763.763,0,0,0,.282,1.028A8.192,8.192,0,0,0,310.775,67.663Z" transform="translate(311.329 63.718)" fill="#dda794"/><path d="M382.452,126.25s-.113,47.552-2.279,64.062c4.477,6.21-1.734,15.506-21.154,9.256s-64.933-10.028-68.663-2.433c0,0-8.066-23.358,42.69-10.562,20.77,5.241,35.491,4.055,36-7.278S382.452,126.25,382.452,126.25Z" transform="translate(294.683 123.464)" fill="#a16800"/><path d="M395.717,103.648c6.933,8.8,56.487,97.673,49.53,150.125H297.959s-16.979-41.06-1.008-45.846,80.9,21.1,83,7.476-11.7-45.888-11.167-69.088S388.785,94.848,395.717,103.648Z" transform="translate(294.904 102.685)" fill="#f29e04"/><path d="M322.178,161.947a63.428,63.428,0,0,0-31.5,2.433c-14.882,4.806-31.64,21.994-31.64,21.994l28.453-.613s0,1.048,8.651,1.048,26.034,1.365,26.034,1.365Z" transform="translate(263.325 157.427)" fill="#ffccb6"/><rect width="130.793" height="26.384" transform="translate(870.945 356.379) rotate(180)" fill="#a1a1a1"/><rect width="113.753" height="26.345" transform="translate(754.731 356.34) rotate(180)" fill="#c7c7c7"/><g transform="translate(640.958 335.078)" opacity="0.65"><rect width="229.987" height="2.235" fill="#707070"/></g><g transform="translate(640.958 342.06)" opacity="0.65"><rect width="229.987" height="2.235" fill="#707070"/></g><g transform="translate(640.958 349.358)" opacity="0.65"><rect width="229.987" height="2.235" fill="#707070"/></g><rect width="119.097" height="13.113" transform="translate(603.128 356.3) rotate(180)" fill="#707070"/><path d="M316.83,118.17l68.32,122.646H190.332L127.94,122.6Z" transform="translate(130.056 115.564)" fill="#707070"/><path d="M313.18,118.25,381.4,240.737H186.582L124.19,122.522Z" transform="translate(126.244 115.642)"/><rect width="17.665" height="5.953" rx="0.86" transform="translate(540.917 353.116) rotate(180)"/><rect width="17.665" height="5.953" rx="0.92" transform="translate(570.944 353.116) rotate(180)"/><path d="M294.551,46.866c-.484-.949-5.283-2.571-6.231,1.4-2.521,10.621,7.824,19.759,7.824,19.759S296.406,50.525,294.551,46.866Z" transform="translate(292.687 44.72)" fill="#ffccb6"/><path d="M329.525,153.354a105.679,105.679,0,0,0,.726,11.669,1,1,0,0,0,.988.89h.121a.994.994,0,0,0,.887-1.088,111.574,111.574,0,0,1-.605-17.959c1.553-28.876,16.132-39.339,23.19-42.7-.585-.475-1.149-.91-1.734-1.345C344.81,107.132,329.081,119.81,329.525,153.354Z" transform="translate(334.966 100.554)" fill="#a16800"/><path d="M290.252,54.417a.452.452,0,0,0,.222,0,.49.49,0,0,0,.242-.653c-1.432-3.085-1.21-4.49-.766-5.123a1.6,1.6,0,0,1,1.331-.653.56.56,0,0,0,.524-.475.517.517,0,0,0-.444-.514,2.66,2.66,0,0,0-2.2,1.068c-.847,1.226-.625,3.283.686,6.111a.485.485,0,0,0,.4.237Z" transform="translate(293.436 45.97)" fill="#dda794"/><path d="M292.759,57.623H293a.489.489,0,0,0,.181-.672l-2.642-4.529a.482.482,0,0,0-.3-.247.5.5,0,0,0-.569.722l2.742,4.47a.483.483,0,0,0,.343.257Z" transform="translate(294.398 51.012)" fill="#dda794"/><g transform="translate(446.805 442.154)" opacity="0.24"><path d="M221.57,225.411c63.239-4.292,96.572,29.114,109.377,46.281l1.654-.3c-12.6-17.088-45.856-51.167-109.236-47.587Z" transform="translate(-221.57 -223.548)" fill="#0c0c0c"/></g><g transform="translate(619.335 29.54)" opacity="0.24"><path d="M306.4,23.722c39.363,31.092,36.036,91.594,35.753,93.275l11.393-22.626S332.232,15,331.466,15a47.542,47.542,0,0,1-14.116,8.307l-.262.1s-4.093-.134-6.518-.1a15.773,15.773,0,0,0-3.181.237,2.482,2.482,0,0,0-.988.178Z" transform="translate(-306.4 -15)" fill="#0c0c0c"/></g><path d="M305.206,21.583s10.4,5.2,22.6,22.2c8.944,14.125,15.068,34.828,15.788,49.181,1.291,24.387-9.4,35.9.544,34.988,8.631-.811,31.236-50.217,31.236-50.217s-28.16-63.576-29.168-63.951S304.238,16.085,305.206,21.583Z" transform="translate(312.799 13.1)" fill="#4a4240"/><g transform="translate(630.472 13.851)" opacity="0.24"><path d="M312.4-.269c21.245,7.911,42.83,24.3,51.083,55.6,5.239,19.778,4.188,39.516,2.608,58.444-.887,10.912-1.91,26.17,0,36.264,2.876,15.208,19.384,59.162,21.44,65.233-1.939-9.528-21.3-61.767-19.849-65.233-2.118-7.6-1.343-29.344-.785-36.264,1.538-19.066,3.924-38.785-1.294-58.938-8.045-30.2-31.891-46.811-52.16-55.3,0,0,.574-.032-1.043.186Z" transform="translate(-312.65 0.006)" fill="#0c0c0c"/></g><g transform="translate(613.593 15.835)" opacity="0.24"><path d="M358.162,61.408c5.183,19.665,3,38.082.908,55.885-2.964,25.158-5.767,48.914,15.911,68.195,2.062,1.83,4.59,3.15,1.061,0-20.952-18.628-18.865-42.461-15.84-68.195,2.117-17.975,4.132-35.8-1.132-55.885C348.987,22.865,337.082,7.143,314.416,2.457h-1.2C335.62,6.97,348.079,23.326,358.162,61.408Z" transform="translate(-304.28 -4.39)" fill="#0c0c0c"/></g><path d="M399.125,174.054c-.282-11.274,5.485-19.264,14.116-19.482,9.8-.237,19.641,9.019,19.883,18.671S422.6,196.977,412.6,197.234C404.489,197.412,399.488,188.749,399.125,174.054Zm6.816-.178c.222,8.346,2.48,16.752,6.392,16.653,5.485-.138,14.116-10.7,13.894-17.128s-7.4-12.263-12.906-12.124C407.252,161.356,405.84,169.268,405.941,173.876Z" transform="translate(405.717 151.155)" fill="#fff"/><path d="M389.913,206.769c3.529,5.162,12.563,2.551,21.718,3.283,18.835,1.483,18.754-6.665,19.843-20.115a255.549,255.549,0,0,0-.222-35.107H430L385.194,154S383.4,197.236,389.913,206.769Z" transform="translate(391.336 150.599)" fill="#fff"/><path d="M385.08,154.821c0,1.147,10.264,2.275,22.989,2.532s23.049-.455,23.069-1.6-10.264-2.275-22.968-2.532S385.12,153.575,385.08,154.821Z" transform="translate(391.45 149.779)" fill="#707070"/><path d="M397.781,165.444h.343a1.1,1.1,0,0,0,.654-.568,1.069,1.069,0,0,0,.032-.856c-2.964-8.188-.222-11.63,2.44-14.972a11.115,11.115,0,0,0,3.287-7.3c-.242-9.632-9.841-12.52-9.921-12.559a1.153,1.153,0,0,0-1.412.771,1.124,1.124,0,0,0,.746,1.384,11.593,11.593,0,0,1,8.308,10.463,9.2,9.2,0,0,1-2.8,5.934c-2.763,3.441-6.171,7.733-2.783,17.088a1.113,1.113,0,0,0,1.109.613Z" transform="translate(399.661 126.299)" fill="#fff" opacity="0.7"/><rect width="750.96" height="32.061" transform="translate(898.753 388.361) rotate(180)" fill="#ffe8c7"/><rect width="278.747" height="32.061" transform="translate(957.091 388.361) rotate(180)" fill="#d1b48f"/><path d="M280.788,295.056l-4.7-7.756h29.333l4.8,7.756Z" transform="translate(76.38 3.878)" fill="#707070" stroke="#707070" stroke-linecap="round" stroke-linejoin="round" stroke-width="1"/></g></g></g></svg>