<svg xmlns="http://www.w3.org/2000/svg" viewBox="0 0 537.25 556.21"><defs><style>.cls-1,.cls-2,.cls-4,.cls-8{fill:#fff;}.cls-1,.cls-2,.cls-3,.cls-4,.cls-5{isolation:isolate;}.cls-2{opacity:0.31;}.cls-3,.cls-6{fill:#f056b1;}.cls-3{opacity:0.35;}.cls-4{opacity:0.19;}.cls-5{fill:orange;opacity:0.24;}.cls-11,.cls-7{fill:#4d4d4d;}.cls-9{fill:#b3b3b3;}.cls-10{fill:#999;}.cls-11{stroke:#4d4d4d;stroke-miterlimit:10;stroke-width:0.5px;opacity:0.39;}</style></defs><g id="Layer_2" data-name="Layer 2"><g id="objects"><g id="Layer_3" data-name="Layer 3"><circle id="Ellipse_2" data-name="Ellipse 2" class="cls-1" cx="302.94" cy="131.75" r="131.75"/><circle id="Ellipse_4" data-name="Ellipse 4" class="cls-2" cx="121.7" cy="213.52" r="121.7"/><circle id="Ellipse_3" data-name="Ellipse 3" class="cls-1" cx="340.96" cy="304.14" r="174.07"/></g><g id="Layer_2-2" data-name="Layer 2"><circle id="Ellipse_2-2" data-name="Ellipse 2" class="cls-3" cx="303.56" cy="131.87" r="131.75"/><circle id="Ellipse_4-2" data-name="Ellipse 4" class="cls-4" cx="125.32" cy="211.64" r="121.7"/><circle id="Ellipse_3-2" data-name="Ellipse 3" class="cls-5" cx="339.58" cy="303.26" r="174.07"/></g><g id="Layer_4" data-name="Layer 4"><path class="cls-6" d="M355.32,358.13s0,0,0,0a0,0,0,0,0,0,0s0,0,0,0S355.3,358.15,355.32,358.13Z"/><path class="cls-6" d="M319.58,372a.12.12,0,0,0,0-.15.1.1,0,0,0-.15,0,.1.1,0,0,0,0,.15A.11.11,0,0,0,319.58,372Z"/><path class="cls-6" d="M409,256.85a0,0,0,0,0,0-.05s0,0,0,0,0,0,0,.05A0,0,0,0,0,409,256.85Z"/><path class="cls-6" d="M410.36,266.41s0,0,0-.05a0,0,0,0,0-.05,0,0,0,0,0,0,0,.05S410.35,266.43,410.36,266.41Z"/><path class="cls-6" d="M410.84,276.05a0,0,0,0,0-.06,0s0,0,0,.05S410.82,276.07,410.84,276.05Z"/><path class="cls-6" d="M410.44,285.7s0,0,0-.05,0,0-.05,0a0,0,0,0,0,0,0A0,0,0,0,0,410.44,285.7Z"/><path class="cls-6" d="M409.28,295.33a.15.15,0,0,0,0-.2.13.13,0,0,0-.19,0,.14.14,0,0,0,0,.2A.16.16,0,0,0,409.28,295.33Z"/><path class="cls-6" d="M407.14,304.73a.11.11,0,0,0,0-.15.1.1,0,0,0-.15,0,.11.11,0,1,0,.18.12Z"/><path class="cls-6" d="M404.19,313.92a.1.1,0,0,0,0-.15.11.11,0,0,0-.15,0,.11.11,0,1,0,.18.12Z"/><circle class="cls-6" cx="400.35" cy="322.75" r="0.11" transform="translate(-88.91 481.11) rotate(-56.81)"/><path class="cls-6" d="M395.9,331.33a.11.11,0,0,0,0-.15.11.11,0,1,0,0,.15Z"/><path class="cls-6" d="M390.61,339.41a.1.1,0,0,0,0-.15.11.11,0,1,0-.11.18A.1.1,0,0,0,390.61,339.41Z"/><path class="cls-6" d="M384.63,347a.11.11,0,1,0-.18-.12.1.1,0,0,0,0,.15A.11.11,0,0,0,384.63,347Z"/><path class="cls-6" d="M378,354a.1.1,0,0,0,0-.15.09.09,0,0,0-.14,0,.1.1,0,0,0,0,.15A.1.1,0,0,0,378,354Z"/><path class="cls-6" d="M370.74,360.37a.1.1,0,0,0,0-.15.11.11,0,1,0,0,.15Z"/><path class="cls-6" d="M363.05,366.13a.22.22,0,0,0-.07-.3.21.21,0,0,0-.29.07.2.2,0,0,0,.06.29A.21.21,0,0,0,363.05,366.13Z"/><path class="cls-6" d="M354.72,371.08a.15.15,0,0,0,0-.2.14.14,0,1,0-.16.24A.14.14,0,0,0,354.72,371.08Z"/><path class="cls-6" d="M346.1,375.34a.2.2,0,0,0-.06-.29.21.21,0,0,0-.3.06.22.22,0,0,0,.06.3A.22.22,0,0,0,346.1,375.34Z"/><path class="cls-6" d="M337,378.72a.12.12,0,0,0,0-.16.1.1,0,0,0-.15,0,.09.09,0,0,0,0,.14A.11.11,0,0,0,337,378.72Z"/><path class="cls-6" d="M327.81,381.4a.25.25,0,0,0-.07-.35.25.25,0,1,0-.27.42A.24.24,0,0,0,327.81,381.4Z"/><path class="cls-6" d="M318.32,383.16a.25.25,0,0,0-.07-.35.26.26,0,0,0-.35.08.25.25,0,0,0,.07.34A.24.24,0,0,0,318.32,383.16Z"/><path class="cls-6" d="M308.59,384a.11.11,0,0,0,0-.15.11.11,0,0,0-.15,0,.11.11,0,0,0,.18.12Z"/><path class="cls-6" d="M299.06,384.11a.25.25,0,1,0-.35.07A.26.26,0,0,0,299.06,384.11Z"/><path class="cls-6" d="M289.32,383.2a.11.11,0,1,0-.18-.11.1.1,0,0,0,0,.14A.1.1,0,0,0,289.32,383.2Z"/><path class="cls-6" d="M279.91,381.58a.22.22,0,0,0-.07-.3.21.21,0,0,0-.29.06.22.22,0,1,0,.36.24Z"/><path class="cls-6" d="M270.5,379a.11.11,0,0,0,0-.15.11.11,0,0,0-.12.18A.1.1,0,0,0,270.5,379Z"/><path class="cls-6" d="M261.39,375.6a0,0,0,0,0,0-.05s0,0-.05,0,0,0,0,.05A0,0,0,0,0,261.39,375.6Z"/><path class="cls-6" d="M216.49,340.09s0,0,0,0h0s0,.05,0,.06A0,0,0,0,0,216.49,340.09Z"/><circle class="cls-6" cx="368.01" cy="177.45" r="0.03" transform="translate(18.06 388.28) rotate(-56.81)"/><path class="cls-6" d="M375.89,183.08s0,0,0-.05,0,0-.05,0,0,0,0,.05A0,0,0,0,0,375.89,183.08Z"/><path class="cls-6" d="M383.26,189.31a0,0,0,0,0,0-.05,0,0,0,0,0-.06,0,0,0,0,0,0,0,0A0,0,0,0,0,383.26,189.31Z"/><path class="cls-6" d="M390.1,196.12a0,0,0,0,0,0-.05,0,0,0,0,0-.06,0,0,0,0,0,0,0,0A0,0,0,0,0,390.1,196.12Z"/><path class="cls-6" d="M396.37,203.47a0,0,0,0,0,0-.05s0,0-.05,0a0,0,0,0,0,0,0A0,0,0,0,0,396.37,203.47Z"/><path class="cls-6" d="M402,211.3s0,0,0-.05a0,0,0,0,0-.05,0,0,0,0,1,0,.06,0Z"/><path class="cls-6" d="M407,219.56s0,0,0,0,0,0-.05,0a0,0,0,0,0,0,.05S407,219.58,407,219.56Z"/><path class="cls-6" d="M411.29,228.21s0,0,0-.05,0,0,0,0a0,0,0,0,0,0,.05S411.28,228.23,411.29,228.21Z"/><path class="cls-6" d="M414.87,237.18s0,0,0-.05,0,0-.05,0,0,0,0,.05A0,0,0,0,0,414.87,237.18Z"/><path class="cls-6" d="M417.85,246.5a.21.21,0,0,0-.06-.3.22.22,0,0,0-.3.07.21.21,0,1,0,.36.23Z"/><path class="cls-6" d="M419.78,255.83s0,0,0-.05,0,0,0,0a0,0,0,0,0,0,.05S419.76,255.85,419.78,255.83Z"/><path class="cls-6" d="M421.16,265.46a.14.14,0,0,0,0-.2.16.16,0,0,0-.2,0,.15.15,0,0,0,0,.2A.14.14,0,0,0,421.16,265.46Z"/><path class="cls-6" d="M421.73,275.14a.21.21,0,0,0-.06-.3.21.21,0,0,0-.29.06.21.21,0,0,0,.06.3A.2.2,0,0,0,421.73,275.14Z"/><path class="cls-6" d="M421.46,284.79a.21.21,0,0,0-.06-.3.21.21,0,0,0-.3.07.21.21,0,0,0,.36.23Z"/><path class="cls-6" d="M420.34,294.34a.14.14,0,0,0,0-.19.14.14,0,0,0-.2,0,.16.16,0,0,0,0,.2A.15.15,0,0,0,420.34,294.34Z"/><path class="cls-6" d="M418.68,303.94a.37.37,0,0,0-.1-.5.36.36,0,0,0-.5.11.35.35,0,0,0,.11.49A.36.36,0,0,0,418.68,303.94Z"/><path class="cls-6" d="M416.07,313.23a.35.35,0,1,0-.59-.39.36.36,0,0,0,.1.5A.35.35,0,0,0,416.07,313.23Z"/><circle class="cls-6" cx="412.42" cy="322.09" r="0.43"/><path class="cls-6" d="M408.61,331a.31.31,0,0,0-.09-.44.32.32,0,0,0-.45.09.33.33,0,0,0,.09.45A.33.33,0,0,0,408.61,331Z"/><path class="cls-6" d="M403.86,339.42a.36.36,0,0,0-.6-.39.36.36,0,0,0,.6.39Z"/><circle class="cls-6" cx="398.11" cy="347.2" r="0.32" transform="translate(-110.37 490.31) rotate(-56.81)"/><path class="cls-6" d="M392.33,354.89a.35.35,0,0,0-.1-.49.36.36,0,0,0-.5.1.36.36,0,0,0,.6.39Z"/><path class="cls-6" d="M385.81,362a.55.55,0,0,0-.15-.75.55.55,0,0,0-.75.16.54.54,0,0,0,.9.59Z"/><path class="cls-6" d="M378.68,368.44a.65.65,0,1,0-.89.18A.66.66,0,0,0,378.68,368.44Z"/><path class="cls-6" d="M371,374.24a.66.66,0,0,0-.19-.9.64.64,0,1,0,.19.9Z"/><path class="cls-6" d="M362.56,379.23a.35.35,0,0,0-.1-.49.36.36,0,0,0-.39.6A.35.35,0,0,0,362.56,379.23Z"/><path class="cls-6" d="M354.1,383.76a.46.46,0,0,0-.14-.64.47.47,0,0,0-.64.13.48.48,0,0,0,.13.65A.47.47,0,0,0,354.1,383.76Z"/><path class="cls-6" d="M345.18,387.5a.43.43,0,0,0-.72-.47.43.43,0,1,0,.72.47Z"/><path class="cls-6" d="M336,390.52a.42.42,0,0,0-.13-.59.43.43,0,0,0-.59.12.44.44,0,0,0,.12.6A.44.44,0,0,0,336,390.52Z"/><path class="cls-6" d="M326.65,392.81a.46.46,0,1,0-.77-.51.46.46,0,0,0,.77.51Z"/><path class="cls-6" d="M317,394.22a.32.32,0,0,0-.54-.35.32.32,0,0,0,.09.45A.33.33,0,0,0,317,394.22Z"/><path class="cls-6" d="M307.37,394.93a.32.32,0,0,0-.09-.45.33.33,0,0,0-.45.1.31.31,0,0,0,.09.44A.32.32,0,0,0,307.37,394.93Z"/><path class="cls-6" d="M297.81,394.91a.43.43,0,0,0-.72-.47.43.43,0,1,0,.72.47Z"/><path class="cls-6" d="M288.13,394a.37.37,0,0,0-.1-.5.36.36,0,1,0-.39.6A.36.36,0,0,0,288.13,394Z"/><path class="cls-6" d="M278.59,392.34a.32.32,0,0,0-.09-.44.32.32,0,0,0-.45.09.32.32,0,1,0,.54.35Z"/><path class="cls-6" d="M269.18,389.89a.25.25,0,0,0-.07-.35.25.25,0,0,0-.34.07.25.25,0,1,0,.41.28Z"/><path class="cls-6" d="M260.06,386.72a.25.25,0,0,0-.07-.35.25.25,0,0,0-.27.42A.24.24,0,0,0,260.06,386.72Z"/><path class="cls-6" d="M251.2,382.8a.21.21,0,0,0-.06-.3.21.21,0,1,0-.23.36A.2.2,0,0,0,251.2,382.8Z"/><path class="cls-6" d="M242.66,378.15a.14.14,0,0,0,0-.2.16.16,0,0,0-.2,0,.15.15,0,0,0,0,.2A.14.14,0,0,0,242.66,378.15Z"/><path class="cls-6" d="M234.55,372.85a.11.11,0,1,0-.18-.12.11.11,0,0,0,0,.15A.1.1,0,0,0,234.55,372.85Z"/><path class="cls-6" d="M226.87,366.88s0,0,0-.05a0,0,0,0,0,0,.06S226.86,366.9,226.87,366.88Z"/><path class="cls-6" d="M219.76,360.35a0,0,0,0,0,0,0s0,0-.05,0a0,0,0,0,0,0,.05A0,0,0,0,0,219.76,360.35Z"/><path class="cls-6" d="M213.2,353.27a0,0,0,0,0,0,0s0,0-.05,0a0,0,0,0,0,0,0S213.19,353.29,213.2,353.27Z"/><path class="cls-6" d="M207.24,345.68s0,0,0-.05,0,0,0,0,0,0,0,.05S207.23,345.69,207.24,345.68Z"/><path class="cls-6" d="M190.13,311.24s0,0,0-.05a0,0,0,0,0-.05,0,0,0,0,0,0,0,.05A0,0,0,0,0,190.13,311.24Z"/><path class="cls-6" d="M351.08,168.26s0,0,0,0,0,0-.05,0a0,0,0,0,0,0,.05S351.07,168.28,351.08,168.26Z"/><path class="cls-6" d="M359.75,172.52a0,0,0,0,0,0-.05s0,0-.05,0a0,0,0,0,0,0,.05S359.74,172.53,359.75,172.52Z"/><path class="cls-6" d="M381.8,174.05s0,0,0-.05,0,0-.05,0,0,0,0,.05S381.79,174.07,381.8,174.05Z"/><path class="cls-6" d="M389.24,180.2s0,0,0,0a0,0,0,0,0-.05,0s0,0,0,.05S389.23,180.22,389.24,180.2Z"/><path class="cls-6" d="M396.19,186.9s0,0,0-.05a0,0,0,0,0-.05,0,0,0,0,0,0,0,0S396.18,186.92,396.19,186.9Z"/><path class="cls-6" d="M402.63,194.09s0,0,0-.05a0,0,0,0,0-.05,0s0,0,0,0S402.62,194.11,402.63,194.09Z"/><path class="cls-6" d="M408.51,201.75a0,0,0,0,0-.06,0s0,0,0,0S408.5,201.77,408.51,201.75Z"/><path class="cls-6" d="M413.8,209.82a0,0,0,0,0,0,0h-.05a.06.06,0,0,0,0,.06A0,0,0,0,0,413.8,209.82Z"/><path class="cls-6" d="M418.48,218.27s0,0,0-.05,0,0,0,0a0,0,0,0,0,0,.05A0,0,0,0,0,418.48,218.27Z"/><path class="cls-6" d="M422.56,227.08a.1.1,0,0,0-.17-.11.1.1,0,0,0,0,.15A.1.1,0,0,0,422.56,227.08Z"/><path class="cls-6" d="M426,236.15a.13.13,0,0,0,0-.19.14.14,0,0,0-.2,0,.14.14,0,0,0,.05.19A.13.13,0,0,0,426,236.15Z"/><path class="cls-6" d="M428.72,245.49a.25.25,0,0,0-.07-.35.26.26,0,0,0-.35.07.26.26,0,0,0,.08.35A.24.24,0,0,0,428.72,245.49Z"/><path class="cls-6" d="M430.7,254.94a.26.26,0,0,0-.08-.35.25.25,0,0,0-.34.07.24.24,0,0,0,.07.35A.26.26,0,0,0,430.7,254.94Z"/><path class="cls-6" d="M431.93,264.49a.21.21,0,0,0-.06-.3.21.21,0,1,0-.23.36A.2.2,0,0,0,431.93,264.49Z"/><path class="cls-6" d="M432.48,274.13a.22.22,0,0,0-.07-.3.22.22,0,0,0-.29.06.21.21,0,0,0,.06.3A.22.22,0,0,0,432.48,274.13Z"/><path class="cls-6" d="M432.75,284.07a.75.75,0,0,0-.22-1,.75.75,0,1,0-.82,1.26A.75.75,0,0,0,432.75,284.07Z"/><path class="cls-6" d="M431.68,293.57a.53.53,0,0,0-.16-.74.53.53,0,1,0-.59.89A.55.55,0,0,0,431.68,293.57Z"/><path class="cls-6" d="M429.88,303a.32.32,0,1,0-.44.09A.31.31,0,0,0,429.88,303Z"/><path class="cls-6" d="M427.68,312.42a.48.48,0,0,0-.13-.65.47.47,0,0,0-.65.14.46.46,0,0,0,.14.64A.47.47,0,0,0,427.68,312.42Z"/><path class="cls-6" d="M424.76,321.65a.57.57,0,0,0-1-.63.58.58,0,0,0,.17.8A.57.57,0,0,0,424.76,321.65Z"/><path class="cls-6" d="M421.07,330.57a.57.57,0,0,0-1-.63.57.57,0,1,0,1,.63Z"/><path class="cls-6" d="M416.6,339.11a.43.43,0,0,0-.72-.47.43.43,0,0,0,.72.47Z"/><path class="cls-6" d="M411.62,347.38a.42.42,0,0,0-.12-.59.44.44,0,0,0-.6.12.44.44,0,0,0,.13.6A.42.42,0,0,0,411.62,347.38Z"/><path class="cls-6" d="M406.22,355.38a.66.66,0,0,0-.19-.9.65.65,0,0,0-.89.19.65.65,0,0,0,1.08.71Z"/><path class="cls-6" d="M400,362.76a.53.53,0,0,0-.15-.75.55.55,0,0,0-.75.16.54.54,0,0,0,.9.59Z"/><path class="cls-6" d="M393.4,369.79a.69.69,0,0,0-.2-.94.68.68,0,1,0-.74,1.14A.69.69,0,0,0,393.4,369.79Z"/><path class="cls-6" d="M386.41,376.36a.93.93,0,1,0-1.29.27A.93.93,0,0,0,386.41,376.36Z"/><path class="cls-6" d="M378.73,382.22a.91.91,0,0,0-.26-1.24.9.9,0,1,0,.26,1.24Z"/><path class="cls-6" d="M370.44,387.38a.65.65,0,0,0-1.08-.71.64.64,0,0,0,.19.89A.63.63,0,0,0,370.44,387.38Z"/><path class="cls-6" d="M362.23,392.21a.92.92,0,0,0-.26-1.29.93.93,0,1,0-1,1.56A.92.92,0,0,0,362.23,392.21Z"/><circle class="cls-6" cx="352.68" cy="395.73" r="0.64"/><path class="cls-6" d="M344.29,399.52a.79.79,0,0,0-1.32-.86.79.79,0,0,0,.23,1.09A.78.78,0,0,0,344.29,399.52Z"/><path class="cls-6" d="M334.93,402.14a.69.69,0,0,0-.2-.94.68.68,0,0,0-.75,1.13A.69.69,0,0,0,334.93,402.14Z"/><path class="cls-6" d="M325.39,404.06a.58.58,0,0,0-.17-.8.57.57,0,0,0-.79.17.57.57,0,0,0,1,.63Z"/><path class="cls-6" d="M315.64,405.2a.36.36,0,0,0-.11-.49.35.35,0,1,0,.11.49Z"/><path class="cls-6" d="M306.06,405.79a.44.44,0,0,0-.13-.6.43.43,0,0,0-.47.72A.43.43,0,0,0,306.06,405.79Z"/><path class="cls-6" d="M296.34,405.57a.35.35,0,0,0-.1-.49.35.35,0,1,0-.39.59A.34.34,0,0,0,296.34,405.57Z"/><path class="cls-6" d="M286.73,404.68a.36.36,0,0,0-.1-.5.37.37,0,0,0-.5.1.36.36,0,0,0,.11.5A.36.36,0,0,0,286.73,404.68Z"/><path class="cls-6" d="M277.18,403a.31.31,0,0,0-.09-.44.32.32,0,0,0-.45.09.33.33,0,0,0,.1.45A.32.32,0,0,0,277.18,403Z"/><path class="cls-6" d="M267.84,400.74a.36.36,0,0,0-.1-.49.37.37,0,0,0-.5.1.35.35,0,0,0,.11.49A.35.35,0,0,0,267.84,400.74Z"/><path class="cls-6" d="M258.67,397.73a.36.36,0,0,0-.6-.4.36.36,0,0,0,.11.5A.36.36,0,0,0,258.67,397.73Z"/><path class="cls-6" d="M249.72,394a.32.32,0,1,0-.54-.35.31.31,0,0,0,.09.44A.32.32,0,0,0,249.72,394Z"/><path class="cls-6" d="M241.1,389.67a.31.31,0,0,0-.09-.44.32.32,0,0,0-.45.09.32.32,0,0,0,.09.44A.32.32,0,0,0,241.1,389.67Z"/><path class="cls-6" d="M232.74,384.64a.21.21,0,0,0-.06-.3.21.21,0,0,0-.3.06.2.2,0,0,0,.06.29A.22.22,0,0,0,232.74,384.64Z"/><path class="cls-6" d="M224.8,379a.14.14,0,0,0,0-.2.15.15,0,0,0-.2.05.14.14,0,0,0,.05.19A.13.13,0,0,0,224.8,379Z"/><path class="cls-6" d="M217.37,372.86a.15.15,0,0,0,0-.2.14.14,0,0,0-.2,0,.14.14,0,0,0,0,.2A.16.16,0,0,0,217.37,372.86Z"/><path class="cls-6" d="M210.38,366.14a.11.11,0,0,0,0-.15.11.11,0,1,0-.12.18A.1.1,0,0,0,210.38,366.14Z"/><path class="cls-6" d="M203.88,358.91s0,0,0-.05,0,0-.05,0,0,0,0,.05S203.87,358.92,203.88,358.91Z"/><path class="cls-6" d="M198,351.25a0,0,0,0,0,0-.05s0,0-.05,0,0,0,0,.05A0,0,0,0,0,198,351.25Z"/><path class="cls-6" d="M192.71,343.18s0,0,0-.05a0,0,0,0,0,0,0s0,0,0,.05A0,0,0,0,0,192.71,343.18Z"/><path class="cls-6" d="M188,334.73s0,0,0-.05,0,0-.05,0,0,0,0,.05S188,334.75,188,334.73Z"/><path class="cls-6" d="M184,326a0,0,0,0,0,0-.06,0,0,0,0,0-.05,0s0,0,0,0A0,0,0,0,0,184,326Z"/><path class="cls-6" d="M180.65,316.9s0,0,0,0h0s0,.05,0,.06A0,0,0,0,0,180.65,316.9Z"/><path class="cls-6" d="M178,307.63s0,0,0-.05,0,0-.05,0,0,0,0,.05A0,0,0,0,0,178,307.63Z"/><path class="cls-6" d="M176,298.18a0,0,0,0,0,0-.05s0,0-.05,0,0,0,0,.05A0,0,0,0,0,176,298.18Z"/><path class="cls-6" d="M174.73,288.61s0,0,0-.05a0,0,0,0,0-.05,0,0,0,0,0,0,0,.05S174.72,288.63,174.73,288.61Z"/><path class="cls-6" d="M174.18,279a0,0,0,0,0,0-.05,0,0,0,0,0-.06,0,0,0,0,0,0,0,.05A0,0,0,0,0,174.18,279Z"/><path class="cls-6" d="M174.36,269.32s0,0,0-.05a0,0,0,0,0,0,0,0,0,0,0,0,0,.05S174.35,269.34,174.36,269.32Z"/><path class="cls-6" d="M176.87,250.19s0,0,0-.05,0,0-.05,0a0,0,0,0,0,0,0S176.86,250.21,176.87,250.19Z"/><path class="cls-6" d="M357,159.14s0,0,0,0a0,0,0,0,0,0,0,0,0,0,0,0,0,.05S357,159.16,357,159.14Z"/><path class="cls-6" d="M365.65,163.49s0,0,0-.05,0,0-.05,0,0,0,0,.05A0,0,0,0,0,365.65,163.49Z"/><path class="cls-6" d="M379.81,159.46a0,0,0,0,0,0-.05s0,0-.05,0a0,0,0,0,0,0,.05S379.8,159.48,379.81,159.46Z"/><path class="cls-6" d="M387.71,165s0,0,0-.05,0,0,0,0a0,0,0,0,0,0,.05A0,0,0,0,0,387.71,165Z"/><path class="cls-6" d="M395.2,171.11s0,0,0-.05,0,0,0,0,0,0,0,.05S395.18,171.13,395.2,171.11Z"/><path class="cls-6" d="M402.31,177.75a.11.11,0,0,0,0-.15.1.1,0,0,0-.15,0,.11.11,0,0,0,0,.15A.11.11,0,0,0,402.31,177.75Z"/><path class="cls-6" d="M408.89,184.81a.12.12,0,0,0,0-.15.11.11,0,0,0-.15,0,.09.09,0,0,0,0,.14A.1.1,0,0,0,408.89,184.81Z"/><path class="cls-6" d="M415,192.31a.09.09,0,0,0,0-.14.1.1,0,0,0-.15,0,.11.11,0,1,0,.18.11Z"/><path class="cls-6" d="M420.51,200.22a.11.11,0,1,0-.15,0A.11.11,0,0,0,420.51,200.22Z"/><path class="cls-6" d="M425.43,208.45s0,0,0,0,0,0-.05,0,0,0,0,.05S425.42,208.46,425.43,208.45Z"/><path class="cls-6" d="M429.9,217.08a.11.11,0,0,0,0-.15.11.11,0,1,0,0,.15Z"/><path class="cls-6" d="M433.79,226a.22.22,0,0,0-.06-.3.23.23,0,0,0-.3.06.22.22,0,0,0,.36.24Z"/><path class="cls-6" d="M437,235.13a.22.22,0,0,0-.06-.3.22.22,0,0,0-.24.36A.23.23,0,0,0,437,235.13Z"/><path class="cls-6" d="M439.54,244.46a.26.26,0,0,0-.07-.35.26.26,0,0,0-.35.07.25.25,0,0,0,.07.35A.25.25,0,0,0,439.54,244.46Z"/><path class="cls-6" d="M441.41,253.9a.21.21,0,0,0-.07-.29.2.2,0,0,0-.29.06.21.21,0,0,0,.06.3A.22.22,0,0,0,441.41,253.9Z"/><path class="cls-6" d="M442.85,263.62a.48.48,0,0,0-.13-.65.47.47,0,0,0-.65.14.47.47,0,0,0,.78.51Z"/><path class="cls-6" d="M443.61,273.37a.69.69,0,0,0-.2-.94.67.67,0,0,0-.94.2.68.68,0,1,0,1.14.74Z"/><path class="cls-6" d="M443.93,283.3a1.18,1.18,0,1,0-1.63.34A1.17,1.17,0,0,0,443.93,283.3Z"/><path class="cls-6" d="M443.17,292.92a1.18,1.18,0,1,0-1.63.35A1.17,1.17,0,0,0,443.17,292.92Z"/><path class="cls-6" d="M441.42,302.26a.79.79,0,1,0-1.32-.86.8.8,0,0,0,.23,1.09A.79.79,0,0,0,441.42,302.26Z"/><path class="cls-6" d="M439.38,311.71a.82.82,0,1,0-1.14.24A.83.83,0,0,0,439.38,311.71Z"/><path class="cls-6" d="M436.53,320.89a.68.68,0,0,0-.19-.94.67.67,0,0,0-.94.2.68.68,0,0,0,.19.94A.67.67,0,0,0,436.53,320.89Z"/><path class="cls-6" d="M433,329.83a.48.48,0,0,0-.13-.65.47.47,0,0,0-.65.14.46.46,0,0,0,.14.64A.47.47,0,0,0,433,329.83Z"/><path class="cls-6" d="M429.27,338.78a.75.75,0,1,0-1,.22A.75.75,0,0,0,429.27,338.78Z"/><path class="cls-6" d="M424.55,347.19a.57.57,0,0,0-1-.63.57.57,0,1,0,1,.63Z"/><path class="cls-6" d="M419.41,355.36a.57.57,0,1,0-1-.63.56.56,0,0,0,.16.79A.58.58,0,0,0,419.41,355.36Z"/><path class="cls-6" d="M413.86,363.25a.75.75,0,1,0-1,.22A.75.75,0,0,0,413.86,363.25Z"/><path class="cls-6" d="M407.79,370.73a.93.93,0,1,0-1.29.27A.93.93,0,0,0,407.79,370.73Z"/><path class="cls-6" d="M401,377.59a.78.78,0,1,0-1.08.23A.77.77,0,0,0,401,377.59Z"/><path class="cls-6" d="M394.17,384.3a1.25,1.25,0,1,0-1.74.37A1.27,1.27,0,0,0,394.17,384.3Z"/><path class="cls-6" d="M386.8,390.41a1.54,1.54,0,0,0-2.58-1.69,1.54,1.54,0,0,0,2.58,1.69Z"/><path class="cls-6" d="M378.56,395.66a1.25,1.25,0,1,0-1.73.36A1.26,1.26,0,0,0,378.56,395.66Z"/><path class="cls-6" d="M370.21,400.5a1.25,1.25,0,1,0-1.73.36A1.24,1.24,0,0,0,370.21,400.5Z"/><path class="cls-6" d="M361.67,404.83a1.4,1.4,0,0,0-2.34-1.53,1.4,1.4,0,1,0,2.34,1.53Z"/><path class="cls-6" d="M353,408.66a1.72,1.72,0,1,0-2.38.5A1.72,1.72,0,0,0,353,408.66Z"/><path class="cls-6" d="M343.17,411.25a.93.93,0,1,0-1.29.27A.93.93,0,0,0,343.17,411.25Z"/><path class="cls-6" d="M333.81,413.63a.93.93,0,1,0-1.29.27A.93.93,0,0,0,333.81,413.63Z"/><path class="cls-6" d="M324.16,415.26a.75.75,0,1,0-1.26-.82.76.76,0,0,0,.22,1A.75.75,0,0,0,324.16,415.26Z"/><path class="cls-6" d="M314.51,416.29a.68.68,0,0,0-.2-.94.69.69,0,0,0-.94.2.68.68,0,1,0,1.14.74Z"/><path class="cls-6" d="M304.86,416.7a.68.68,0,1,0-1.14-.74.69.69,0,0,0,.2.94A.68.68,0,0,0,304.86,416.7Z"/><path class="cls-6" d="M295.3,416.5a.79.79,0,1,0-1.32-.86.8.8,0,0,0,.23,1.09A.79.79,0,0,0,295.3,416.5Z"/><path class="cls-6" d="M285.48,415.44a.54.54,0,1,0-.9-.59.53.53,0,0,0,.16.74A.52.52,0,0,0,285.48,415.44Z"/><path class="cls-6" d="M275.81,413.75a.36.36,0,0,0-.1-.49.36.36,0,0,0-.4.6A.36.36,0,0,0,275.81,413.75Z"/><path class="cls-6" d="M266.48,411.56a.43.43,0,1,0-.6.12A.44.44,0,0,0,266.48,411.56Z"/><path class="cls-6" d="M257.27,408.67a.43.43,0,0,0-.13-.59.43.43,0,0,0-.47.72A.44.44,0,0,0,257.27,408.67Z"/><path class="cls-6" d="M248.27,405.16a.43.43,0,0,0-.72-.47.44.44,0,0,0,.13.6A.43.43,0,0,0,248.27,405.16Z"/><path class="cls-6" d="M239.48,401a.35.35,0,0,0-.1-.49.36.36,0,1,0,.1.49Z"/><path class="cls-6" d="M230.93,396.21a.21.21,0,0,0-.06-.3.22.22,0,0,0-.29.06.21.21,0,0,0,.06.3A.2.2,0,0,0,230.93,396.21Z"/><path class="cls-6" d="M223,391a.32.32,0,1,0-.45.09A.32.32,0,0,0,223,391Z"/><path class="cls-6" d="M215.25,385.15a.31.31,0,0,0-.09-.44.32.32,0,1,0,.09.44Z"/><path class="cls-6" d="M207.83,378.71a.15.15,0,0,0,0-.2.14.14,0,0,0-.2,0,.14.14,0,0,0,0,.2A.16.16,0,0,0,207.83,378.71Z"/><path class="cls-6" d="M201.07,371.91a.21.21,0,0,0-.07-.29.2.2,0,0,0-.29.06.21.21,0,0,0,.06.3A.22.22,0,0,0,201.07,371.91Z"/><path class="cls-6" d="M194.67,364.59a.14.14,0,0,0,0-.2.14.14,0,0,0-.19,0,.14.14,0,0,0,0,.2A.14.14,0,0,0,194.67,364.59Z"/><path class="cls-6" d="M188.77,356.82a0,0,0,0,0,0-.05,0,0,0,0,0,0,0s0,0,0,.05S188.76,356.84,188.77,356.82Z"/><path class="cls-6" d="M183.5,348.73s0,0,0-.05,0,0-.05,0a0,0,0,0,0,0,.05S183.49,348.75,183.5,348.73Z"/><path class="cls-6" d="M178.86,340.33a.09.09,0,0,0,0-.14.1.1,0,0,0-.15,0,.11.11,0,1,0,.18.11Z"/><path class="cls-6" d="M174.76,331.6a.11.11,0,1,0-.15,0A.11.11,0,0,0,174.76,331.6Z"/><path class="cls-6" d="M171.3,322.62a.15.15,0,0,0-.05-.2.13.13,0,0,0-.19,0,.14.14,0,0,0,0,.2A.16.16,0,0,0,171.3,322.62Z"/><path class="cls-6" d="M168.4,313.38a.1.1,0,0,0,0-.15.11.11,0,0,0-.15,0,.12.12,0,0,0,0,.15A.11.11,0,0,0,168.4,313.38Z"/><path class="cls-6" d="M166.18,304a.1.1,0,0,0,0-.15.11.11,0,0,0-.15,0,.12.12,0,0,0,0,.15A.1.1,0,0,0,166.18,304Z"/><path class="cls-6" d="M164.62,294.46a.12.12,0,0,0,0-.15.1.1,0,0,0-.15,0,.1.1,0,0,0,0,.15A.11.11,0,0,0,164.62,294.46Z"/><path class="cls-6" d="M163.65,284.81s0-.05,0-.06a0,0,0,0,0,0,0s0,0,0,0Z"/><path class="cls-6" d="M163.41,275.15s0,0,0,0a0,0,0,0,0-.05,0s0,0,0,.05S163.4,275.17,163.41,275.15Z"/><path class="cls-6" d="M163.84,265.51a0,0,0,0,0,0-.05s0,0-.05,0,0,0,0,0A0,0,0,0,0,163.84,265.51Z"/><path class="cls-6" d="M164.93,255.92a0,0,0,0,0,0,0s0,0,0,0,0,0,0,.05A0,0,0,0,0,164.93,255.92Z"/><path class="cls-6" d="M345,143a0,0,0,0,0-.06,0s0,0,0,.05S345,143,345,143Z"/><path class="cls-6" d="M354.11,146.22a0,0,0,0,0,0-.05s0,0-.05,0,0,0,0,0S354.1,146.24,354.11,146.22Z"/><path class="cls-6" d="M363,150a0,0,0,0,0,0,0,0,0,0,0,0,0,0s0,0,0,.05S363,150.05,363,150Z"/><path class="cls-6" d="M371.56,154.46a0,0,0,0,0,0-.05s0,0-.05,0,0,0,0,.05A0,0,0,0,0,371.56,154.46Z"/><path class="cls-6" d="M385.76,150.5a.11.11,0,1,0-.15,0A.11.11,0,0,0,385.76,150.5Z"/><path class="cls-6" d="M393.67,156a.11.11,0,1,0-.15,0A.11.11,0,0,0,393.67,156Z"/><circle class="cls-6" cx="401.11" cy="162.02" r="0.11" transform="translate(45.95 409.01) rotate(-56.81)"/><path class="cls-6" d="M408.37,168.6a.16.16,0,0,0,0-.2.15.15,0,0,0-.2,0,.13.13,0,0,0,0,.19A.14.14,0,0,0,408.37,168.6Z"/><path class="cls-6" d="M415.07,175.55a.16.16,0,0,0,0-.2.15.15,0,0,0-.2,0,.14.14,0,0,0,0,.2A.14.14,0,0,0,415.07,175.55Z"/><path class="cls-6" d="M421.46,183a.33.33,0,0,0-.1-.45.31.31,0,0,0-.44.09.32.32,0,1,0,.54.36Z"/><path class="cls-6" d="M427.31,190.82a.43.43,0,0,0-.13-.59.43.43,0,1,0,.13.59Z"/><path class="cls-6" d="M432.29,198.75a.11.11,0,1,0-.15,0A.11.11,0,0,0,432.29,198.75Z"/><path class="cls-6" d="M437,207.17a.09.09,0,0,0,0-.14.1.1,0,0,0-.15,0,.11.11,0,0,0,0,.15A.1.1,0,0,0,437,207.17Z"/><path class="cls-6" d="M441.26,215.94a.21.21,0,0,0-.06-.3.22.22,0,0,0-.3.07.21.21,0,0,0,.07.29A.2.2,0,0,0,441.26,215.94Z"/><path class="cls-6" d="M444.8,224.86a.14.14,0,0,0,0-.2.14.14,0,0,0-.19,0,.14.14,0,0,0,0,.2A.14.14,0,0,0,444.8,224.86Z"/><path class="cls-6" d="M447.89,234.07a.23.23,0,0,0-.06-.3.22.22,0,0,0-.3.06.21.21,0,0,0,.06.3A.22.22,0,0,0,447.89,234.07Z"/><path class="cls-6" d="M450.52,243.55a.46.46,0,1,0-.77-.51.46.46,0,0,0,.77.51Z"/><path class="cls-6" d="M452.5,253.13a.65.65,0,0,0-1.08-.71.66.66,0,0,0,.19.9A.65.65,0,0,0,452.5,253.13Z"/><path class="cls-6" d="M453.56,262.61a.47.47,0,1,0-.64.13A.46.46,0,0,0,453.56,262.61Z"/><path class="cls-6" d="M454.4,272.4a.75.75,0,1,0-1,.22A.75.75,0,0,0,454.4,272.4Z"/><circle class="cls-6" cx="453.75" cy="281.64" r="1.04"/><path class="cls-6" d="M454.31,292.06a1.43,1.43,0,1,0-2,.42A1.43,1.43,0,0,0,454.31,292.06Z"/><path class="cls-6" d="M452.72,301.42a1,1,0,0,0-.3-1.44,1,1,0,1,0-1.13,1.74A1,1,0,0,0,452.72,301.42Z"/><path class="cls-6" d="M451.28,311.16a1.54,1.54,0,0,0-2.58-1.68,1.54,1.54,0,0,0,2.58,1.68Z"/><path class="cls-6" d="M448.8,320.5a1.54,1.54,0,1,0-2.13.44A1.53,1.53,0,0,0,448.8,320.5Z"/><path class="cls-6" d="M445.23,329.32a.93.93,0,1,0-1.29.27A.93.93,0,0,0,445.23,329.32Z"/><path class="cls-6" d="M441.65,338.3a1,1,0,1,0-1.39.29A1,1,0,0,0,441.65,338.3Z"/><path class="cls-6" d="M437.59,347.09a1.18,1.18,0,1,0-1.63.34A1.18,1.18,0,0,0,437.59,347.09Z"/><path class="cls-6" d="M432.53,355.29a.81.81,0,0,0-.23-1.13.82.82,0,1,0-.9,1.37A.8.8,0,0,0,432.53,355.29Z"/><path class="cls-6" d="M427.52,363.55a1.15,1.15,0,1,0-1.92-1.25,1.15,1.15,0,0,0,1.92,1.25Z"/><path class="cls-6" d="M421.85,371.35a1.29,1.29,0,1,0-1.79.37A1.28,1.28,0,0,0,421.85,371.35Z"/><path class="cls-6" d="M415.57,378.69a1.29,1.29,0,1,0-1.78.37A1.29,1.29,0,0,0,415.57,378.69Z"/><path class="cls-6" d="M408.9,385.65A1.36,1.36,0,1,0,407,386,1.36,1.36,0,0,0,408.9,385.65Z"/><path class="cls-6" d="M402.1,392.36a1.79,1.79,0,1,0-2.48.52A1.79,1.79,0,0,0,402.1,392.36Z"/><path class="cls-6" d="M394.75,398.5a2,2,0,1,0-2.83.59A2,2,0,0,0,394.75,398.5Z"/><path class="cls-6" d="M386.52,403.81a1.68,1.68,0,1,0-2.33.49A1.68,1.68,0,0,0,386.52,403.81Z"/><path class="cls-6" d="M378.91,409.23a2.47,2.47,0,1,0-3.42.71A2.47,2.47,0,0,0,378.91,409.23Z"/><path class="cls-6" d="M370.07,413.5a2.15,2.15,0,1,0-3,.62A2.16,2.16,0,0,0,370.07,413.5Z"/><path class="cls-6" d="M361.32,417.44a2.25,2.25,0,1,0-3.12.66A2.26,2.26,0,0,0,361.32,417.44Z"/><path class="cls-6" d="M352,420.6a2,2,0,1,0-2.72.57A2,2,0,0,0,352,420.6Z"/><path class="cls-6" d="M342.84,423.39a2.08,2.08,0,1,0-2.87.6A2.08,2.08,0,0,0,342.84,423.39Z"/><path class="cls-6" d="M332.82,425.12a1.36,1.36,0,0,0-2.27-1.49,1.36,1.36,0,1,0,2.27,1.49Z"/><path class="cls-6" d="M323.11,426.52a1.13,1.13,0,0,0-.33-1.58,1.15,1.15,0,1,0,.33,1.58Z"/><path class="cls-6" d="M313.5,427.43a1.13,1.13,0,0,0-.33-1.58,1.14,1.14,0,1,0,.33,1.58Z"/><path class="cls-6" d="M303.73,427.64a1,1,0,1,0-1.39.29A1,1,0,0,0,303.73,427.64Z"/><path class="cls-6" d="M293.9,427.19a.79.79,0,0,0-1.32-.86.79.79,0,1,0,1.32.86Z"/><path class="cls-6" d="M284.38,426.3a.9.9,0,1,0-1.24.26A.89.89,0,0,0,284.38,426.3Z"/><path class="cls-6" d="M274.86,424.74a.9.9,0,1,0-1.24.26A.9.9,0,0,0,274.86,424.74Z"/><path class="cls-6" d="M265.48,422.59a.93.93,0,1,0-1.29.27A.93.93,0,0,0,265.48,422.59Z"/><path class="cls-6" d="M256,419.68a.68.68,0,0,0-1.14-.74.68.68,0,1,0,1.14.74Z"/><circle class="cls-6" cx="246.4" cy="415.96" r="0.64"/><path class="cls-6" d="M238.2,412.44a.75.75,0,0,0-.21-1,.75.75,0,1,0,.21,1Z"/><path class="cls-6" d="M229.51,407.86a.58.58,0,0,0-.17-.79.57.57,0,1,0,.17.79Z"/><path class="cls-6" d="M221.23,402.82a.55.55,0,0,0-.15-.75.55.55,0,0,0-.75.16.53.53,0,0,0,.16.74A.54.54,0,0,0,221.23,402.82Z"/><path class="cls-6" d="M213.27,397.23a.46.46,0,0,0-.14-.64.47.47,0,0,0-.64.13.48.48,0,0,0,.13.65A.47.47,0,0,0,213.27,397.23Z"/><path class="cls-6" d="M205.73,391.2a.47.47,0,1,0-.64.13A.46.46,0,0,0,205.73,391.2Z"/><path class="cls-6" d="M198.51,384.63a.35.35,0,0,0-.11-.49.36.36,0,0,0-.49.1.36.36,0,1,0,.6.39Z"/><path class="cls-6" d="M191.69,377.61a.23.23,0,0,0-.06-.3.22.22,0,1,0-.24.36A.23.23,0,0,0,191.69,377.61Z"/><circle class="cls-6" cx="185.27" cy="370.12" r="0.36"/><path class="cls-6" d="M179.63,362.45a.16.16,0,0,0,0-.2.14.14,0,0,0-.16.24A.15.15,0,0,0,179.63,362.45Z"/><path class="cls-6" d="M174.44,354.38a.21.21,0,0,0-.36-.23.21.21,0,0,0,.06.3A.22.22,0,0,0,174.44,354.38Z"/><path class="cls-6" d="M169.63,345.9a.11.11,0,0,0,0-.15.12.12,0,0,0-.15,0,.11.11,0,0,0,0,.15A.1.1,0,0,0,169.63,345.9Z"/><path class="cls-6" d="M165.55,337.25a.21.21,0,0,0-.06-.29.21.21,0,0,0-.3.06.21.21,0,1,0,.36.23Z"/><path class="cls-6" d="M161.89,328.26a.14.14,0,1,0-.24-.16.14.14,0,0,0,0,.2A.16.16,0,0,0,161.89,328.26Z"/><path class="cls-6" d="M158.84,319.07a.12.12,0,0,0,0-.15.11.11,0,0,0-.15,0,.1.1,0,0,0,0,.15A.1.1,0,0,0,158.84,319.07Z"/><path class="cls-6" d="M156.41,309.73a.11.11,0,0,0,0-.15.1.1,0,0,0-.15,0,.11.11,0,0,0,0,.15A.12.12,0,0,0,156.41,309.73Z"/><path class="cls-6" d="M154.52,300.21s0,0,0,0,0,0,0,0,0,0,0,.05S154.51,300.22,154.52,300.21Z"/><path class="cls-6" d="M360.09,137s0,0,0-.05a0,0,0,0,0-.05,0s0,0,0,.05S360.08,137,360.09,137Z"/><path class="cls-6" d="M368.91,141s0,0,0,0a0,0,0,0,0,0,0s0,0,0,.05S368.9,141,368.91,141Z"/><path class="cls-6" d="M377.46,145.44a0,0,0,0,0,0-.05s0,0-.05,0a0,0,0,0,0,0,0S377.45,145.45,377.46,145.44Z"/><path class="cls-6" d="M391.65,141.5a.11.11,0,0,0,0-.15.1.1,0,0,0-.15,0,.11.11,0,0,0,0,.15A.11.11,0,0,0,391.65,141.5Z"/><path class="cls-6" d="M399.75,147.14a.33.33,0,0,0-.09-.45.32.32,0,0,0-.45.1.31.31,0,0,0,.09.44A.32.32,0,0,0,399.75,147.14Z"/><path class="cls-6" d="M407.26,153.09a.25.25,0,0,0-.07-.35.26.26,0,0,0-.35.07.26.26,0,0,0,.08.35A.24.24,0,0,0,407.26,153.09Z"/><path class="cls-6" d="M414.47,159.52a.26.26,0,0,0-.08-.35.24.24,0,0,0-.34.07.25.25,0,0,0,.07.35A.27.27,0,0,0,414.47,159.52Z"/><path class="cls-6" d="M421.24,166.35a.22.22,0,0,0-.36-.24.22.22,0,1,0,.36.24Z"/><path class="cls-6" d="M428,173.85a.68.68,0,0,0-.2-.95.68.68,0,0,0-.74,1.14A.68.68,0,0,0,428,173.85Z"/><path class="cls-6" d="M434.37,181.73a1.18,1.18,0,1,0-1.64.34A1.17,1.17,0,0,0,434.37,181.73Z"/><path class="cls-6" d="M439.21,189.28a.43.43,0,1,0-.72-.47.43.43,0,0,0,.13.59A.43.43,0,0,0,439.21,189.28Z"/><path class="cls-6" d="M444.62,197.82a.93.93,0,1,0-1.29.27A.93.93,0,0,0,444.62,197.82Z"/><path class="cls-6" d="M449,206.27a.75.75,0,1,0-1.26-.82.75.75,0,0,0,1.26.82Z"/><path class="cls-6" d="M452.55,214.84a.32.32,0,0,0-.09-.45.33.33,0,0,0-.45.1.32.32,0,0,0,.1.44A.31.31,0,0,0,452.55,214.84Z"/><path class="cls-6" d="M456.19,224a.57.57,0,1,0-.95-.63.58.58,0,0,0,.16.8A.57.57,0,0,0,456.19,224Z"/><path class="cls-6" d="M459.05,233.19a.54.54,0,1,0-.74.16A.54.54,0,0,0,459.05,233.19Z"/><path class="cls-6" d="M461.38,242.56a.54.54,0,1,0-.75.16A.55.55,0,0,0,461.38,242.56Z"/><path class="cls-6" d="M463.44,252.25a.9.9,0,1,0-1.24.26A.9.9,0,0,0,463.44,252.25Z"/><path class="cls-6" d="M464.72,261.89a1,1,0,1,0-1.38.29A1,1,0,0,0,464.72,261.89Z"/><path class="cls-6" d="M465.64,271.73a1.36,1.36,0,1,0-1.88.39A1.37,1.37,0,0,0,465.64,271.73Z"/><path class="cls-6" d="M465.68,281.38a1.36,1.36,0,1,0-1.88.39A1.36,1.36,0,0,0,465.68,281.38Z"/><path class="cls-6" d="M465.71,291.39a2,2,0,1,0-2.82.59A2,2,0,0,0,465.71,291.39Z"/><circle class="cls-6" cx="462.89" cy="299.86" r="1.83"/><path class="cls-6" d="M462.5,310.21a1.54,1.54,0,1,0-2.13.45A1.55,1.55,0,0,0,462.5,310.21Z"/><path class="cls-6" d="M460.25,319.6a1.54,1.54,0,1,0-2.13.45A1.55,1.55,0,0,0,460.25,319.6Z"/><path class="cls-6" d="M457.44,328.84a1.54,1.54,0,1,0-2.13.44A1.54,1.54,0,0,0,457.44,328.84Z"/><path class="cls-6" d="M453.85,337.74a1.26,1.26,0,0,0-.37-1.74,1.25,1.25,0,0,0-1.37,2.1A1.26,1.26,0,0,0,453.85,337.74Z"/><path class="cls-6" d="M449.89,346.53a1.18,1.18,0,1,0-2-1.29,1.18,1.18,0,1,0,2,1.29Z"/><path class="cls-6" d="M445.57,355.18a1.29,1.29,0,1,0-1.78.37A1.29,1.29,0,0,0,445.57,355.18Z"/><path class="cls-6" d="M440.78,363.57a1.43,1.43,0,1,0-2,.41A1.43,1.43,0,0,0,440.78,363.57Z"/><path class="cls-6" d="M435.7,371.78a1.83,1.83,0,1,0-2.53.53A1.82,1.82,0,0,0,435.7,371.78Z"/><path class="cls-6" d="M429.83,379.45a1.83,1.83,0,1,0-2.53.52A1.83,1.83,0,0,0,429.83,379.45Z"/><path class="cls-6" d="M423.65,386.84a2,2,0,1,0-2.77.58A2,2,0,0,0,423.65,386.84Z"/><path class="cls-6" d="M417.09,393.86a2.22,2.22,0,1,0-3.08.65A2.22,2.22,0,0,0,417.09,393.86Z"/><path class="cls-6" d="M409.94,400.36a2.22,2.22,0,1,0-3.07.64A2.23,2.23,0,0,0,409.94,400.36Z"/><path class="cls-6" d="M402.66,406.56a2.51,2.51,0,1,0-3.47.73A2.5,2.5,0,0,0,402.66,406.56Z"/><path class="cls-6" d="M394.69,412.1a2.4,2.4,0,1,0-3.32.69A2.4,2.4,0,0,0,394.69,412.1Z"/><path class="cls-6" d="M386.83,417.42a2.79,2.79,0,1,0-3.86.81A2.79,2.79,0,0,0,386.83,417.42Z"/><path class="cls-6" d="M378.11,421.88a2.51,2.51,0,1,0-3.47.72A2.5,2.5,0,0,0,378.11,421.88Z"/><path class="cls-6" d="M369.48,426.05a2.65,2.65,0,1,0-3.66.76A2.65,2.65,0,0,0,369.48,426.05Z"/><circle class="cls-6" cx="358.3" cy="428.16" r="2.4"/><path class="cls-6" d="M351.55,432.77a2.9,2.9,0,1,0-4,.84A2.89,2.89,0,0,0,351.55,432.77Z"/><path class="cls-6" d="M342,435.1a2.65,2.65,0,1,0-3.67.77A2.65,2.65,0,0,0,342,435.1Z"/><path class="cls-6" d="M332.54,437a2.65,2.65,0,1,0-3.66.77A2.65,2.65,0,0,0,332.54,437Z"/><path class="cls-6" d="M322.35,437.93a1.89,1.89,0,1,0-2.62.55A1.89,1.89,0,0,0,322.35,437.93Z"/><path class="cls-6" d="M312.43,438.5a1.54,1.54,0,1,0-2.13.44A1.54,1.54,0,0,0,312.43,438.5Z"/><circle class="cls-6" cx="301.49" cy="437.84" r="1.65" transform="translate(-229.96 450.47) rotate(-56.81)"/><path class="cls-6" d="M293.22,438.35a1.65,1.65,0,1,0-2.28.48A1.65,1.65,0,0,0,293.22,438.35Z"/><path class="cls-6" d="M283.4,437.24a1.39,1.39,0,1,0-1.93.41A1.4,1.4,0,0,0,283.4,437.24Z"/><path class="cls-6" d="M273.66,435.56a1.14,1.14,0,0,0-.33-1.58,1.14,1.14,0,1,0-1.25,1.91A1.13,1.13,0,0,0,273.66,435.56Z"/><path class="cls-6" d="M264.06,433.34a.93.93,0,1,0-1.29.27A.93.93,0,0,0,264.06,433.34Z"/><path class="cls-6" d="M255,430.79a1.15,1.15,0,1,0-1.92-1.26,1.15,1.15,0,0,0,1.92,1.26Z"/><path class="cls-6" d="M245.53,427.35a.75.75,0,1,0-1,.22A.76.76,0,0,0,245.53,427.35Z"/><path class="cls-6" d="M236.64,423.59a.77.77,0,0,0-.22-1,.75.75,0,0,0-.83,1.26A.76.76,0,0,0,236.64,423.59Z"/><path class="cls-6" d="M228,419.33a.78.78,0,0,0-.23-1.09.77.77,0,0,0-1.08.23.78.78,0,1,0,1.31.86Z"/><path class="cls-6" d="M219.6,414.52a.75.75,0,0,0-.22-1,.75.75,0,1,0,.22,1Z"/><path class="cls-6" d="M211.46,409.19a.67.67,0,0,0-.2-.94.68.68,0,0,0-.94.2.69.69,0,0,0,.2.94A.67.67,0,0,0,211.46,409.19Z"/><path class="cls-6" d="M203.59,403.36a.54.54,0,1,0-.9-.59.53.53,0,0,0,.16.74A.54.54,0,0,0,203.59,403.36Z"/><path class="cls-6" d="M196.23,397.17a.57.57,0,1,0-1-.63.57.57,0,0,0,.17.79A.58.58,0,0,0,196.23,397.17Z"/><path class="cls-6" d="M189.2,390.5a.53.53,0,0,0-.16-.74.54.54,0,0,0-.59.9A.55.55,0,0,0,189.2,390.5Z"/><path class="cls-6" d="M182.6,383.45a.54.54,0,0,0-.9-.59.55.55,0,0,0,.15.75A.55.55,0,0,0,182.6,383.45Z"/><path class="cls-6" d="M176.29,375.92a.36.36,0,0,0-.6-.39.36.36,0,0,0,.1.5A.37.37,0,0,0,176.29,375.92Z"/><path class="cls-6" d="M170.64,368.17a.43.43,0,0,0-.72-.47.44.44,0,0,0,.12.6A.44.44,0,0,0,170.64,368.17Z"/><path class="cls-6" d="M165.59,360.18a.65.65,0,0,0-1.08-.71.64.64,0,0,0,.19.89A.65.65,0,0,0,165.59,360.18Z"/><path class="cls-6" d="M160.58,351.59a.32.32,0,1,0-.45.09A.32.32,0,0,0,160.58,351.59Z"/><path class="cls-6" d="M156.36,342.91a.33.33,0,0,0-.1-.45.31.31,0,0,0-.44.09.32.32,0,0,0,.09.45A.33.33,0,0,0,156.36,342.91Z"/><path class="cls-6" d="M152.47,333.87a.1.1,0,0,0,0-.15.12.12,0,0,0-.16,0,.11.11,0,0,0,0,.15A.1.1,0,0,0,152.47,333.87Z"/><path class="cls-6" d="M149.35,324.77a.15.15,0,0,0,0-.2.14.14,0,0,0-.2,0,.14.14,0,0,0,0,.2A.16.16,0,0,0,149.35,324.77Z"/><path class="cls-6" d="M413.17,144a.22.22,0,0,0-.07-.3.2.2,0,0,0-.29.06.21.21,0,0,0,.06.3A.22.22,0,0,0,413.17,144Z"/><path class="cls-6" d="M420.52,150.43a.33.33,0,0,0-.1-.45.32.32,0,0,0-.44.1.31.31,0,0,0,.09.44A.32.32,0,0,0,420.52,150.43Z"/><path class="cls-6" d="M427.35,157.15a.26.26,0,0,0-.07-.35.26.26,0,0,0-.35.08.25.25,0,0,0,.07.34A.26.26,0,0,0,427.35,157.15Z"/><path class="cls-6" d="M434,164.38a.42.42,0,0,0-.12-.59.43.43,0,0,0-.6.12.44.44,0,0,0,.13.6A.42.42,0,0,0,434,164.38Z"/><path class="cls-6" d="M440.43,172.09a.82.82,0,1,0-1.14.24A.83.83,0,0,0,440.43,172.09Z"/><path class="cls-6" d="M446.45,180.14a1.25,1.25,0,1,0-1.73.36A1.25,1.25,0,0,0,446.45,180.14Z"/><path class="cls-6" d="M451.79,188.34a1.4,1.4,0,1,0-1.93.41A1.39,1.39,0,0,0,451.79,188.34Z"/><path class="cls-6" d="M457,197.06a2,2,0,1,0-2.73.57A2,2,0,0,0,457,197.06Z"/><path class="cls-6" d="M460.34,205.09a.83.83,0,0,0-.24-1.14.83.83,0,0,0-.91,1.38A.83.83,0,0,0,460.34,205.09Z"/><path class="cls-6" d="M464.21,214a.93.93,0,1,0-1.29.27A.93.93,0,0,0,464.21,214Z"/><path class="cls-6" d="M467.19,222.92a.57.57,0,1,0-.8.17A.58.58,0,0,0,467.19,222.92Z"/><path class="cls-6" d="M470.25,232.37a.93.93,0,1,0-1.29.27A.93.93,0,0,0,470.25,232.37Z"/><circle class="cls-6" cx="471.71" cy="241.25" r="1.18" transform="translate(11.6 503.95) rotate(-56.81)"/><path class="cls-6" d="M474.17,251.24a.9.9,0,1,0-1.24.26A.9.9,0,0,0,474.17,251.24Z"/><path class="cls-6" d="M476.09,261.32a1.79,1.79,0,1,0-2.47.51A1.8,1.8,0,0,0,476.09,261.32Z"/><path class="cls-6" d="M476.73,271a1.79,1.79,0,1,0-2.48.52A1.79,1.79,0,0,0,476.73,271Z"/><path class="cls-6" d="M476.85,280.62a1.82,1.82,0,1,0-2.52.53A1.81,1.81,0,0,0,476.85,280.62Z"/><path class="cls-6" d="M476.58,290.39a2,2,0,1,0-2.82.59A2,2,0,0,0,476.58,290.39Z"/><path class="cls-6" d="M476,300.25a2.51,2.51,0,1,0-3.47.72A2.52,2.52,0,0,0,476,300.25Z"/><path class="cls-6" d="M474.1,309.54a2.07,2.07,0,1,0-2.87.61A2.07,2.07,0,0,0,474.1,309.54Z"/><path class="cls-6" d="M471.9,318.88a1.9,1.9,0,1,0-2.63.55A1.9,1.9,0,0,0,471.9,318.88Z"/><path class="cls-6" d="M469.44,328.26a2,2,0,1,0-2.83.59A2,2,0,0,0,469.44,328.26Z"/><path class="cls-6" d="M466.49,337.5a2.22,2.22,0,1,0-3.08.65A2.22,2.22,0,0,0,466.49,337.5Z"/><path class="cls-6" d="M462.76,346.38a2.08,2.08,0,1,0-2.88.6A2.08,2.08,0,0,0,462.76,346.38Z"/><circle class="cls-6" cx="456.92" cy="353.98" r="2.08" transform="translate(-89.44 542.59) rotate(-56.81)"/><path class="cls-6" d="M454.34,363.79a2.4,2.4,0,1,0-3.32.69A2.4,2.4,0,0,0,454.34,363.79Z"/><path class="cls-6" d="M449.28,372a2.4,2.4,0,1,0-3.32.69A2.4,2.4,0,0,0,449.28,372Z"/><path class="cls-6" d="M443.89,380a2.54,2.54,0,1,0-3.52.74A2.53,2.53,0,0,0,443.89,380Z"/><path class="cls-6" d="M437.89,387.59a2.47,2.47,0,1,0-3.42.72A2.48,2.48,0,0,0,437.89,387.59Z"/><path class="cls-6" d="M431.79,395a2.79,2.79,0,1,0-3.86.81A2.8,2.8,0,0,0,431.79,395Z"/><path class="cls-6" d="M424.88,401.82a2.61,2.61,0,1,0-3.61.76A2.61,2.61,0,0,0,424.88,401.82Z"/><path class="cls-6" d="M417.81,408.37a2.69,2.69,0,1,0-3.72.77A2.69,2.69,0,0,0,417.81,408.37Z"/><path class="cls-6" d="M410.26,414.42a2.62,2.62,0,1,0-3.62.76A2.61,2.61,0,0,0,410.26,414.42Z"/><path class="cls-6" d="M402.44,420.09a2.62,2.62,0,1,0-3.62.75A2.61,2.61,0,0,0,402.44,420.09Z"/><path class="cls-6" d="M394.46,425.4a2.79,2.79,0,0,0-4.67-3.06,2.79,2.79,0,1,0,4.67,3.06Z"/><path class="cls-6" d="M386.06,430.15a2.79,2.79,0,1,0-3.86.81A2.79,2.79,0,0,0,386.06,430.15Z"/><path class="cls-6" d="M377.58,434.54a3,3,0,1,0-4.16.87A3,3,0,0,0,377.58,434.54Z"/><path class="cls-6" d="M368.4,438.13a2.65,2.65,0,1,0-3.67.77A2.65,2.65,0,0,0,368.4,438.13Z"/><path class="cls-6" d="M359.44,441.49a2.8,2.8,0,1,0-3.87.81A2.8,2.8,0,0,0,359.44,441.49Z"/><circle class="cls-6" cx="347.85" cy="442.72" r="2.97"/><path class="cls-6" d="M341,446.65a3.08,3.08,0,1,0-4.26.89A3.07,3.07,0,0,0,341,446.65Z"/><path class="cls-6" d="M331.44,448.3a3,3,0,1,0-4.11.86A3,3,0,0,0,331.44,448.3Z"/><path class="cls-6" d="M321.5,449.24A2.54,2.54,0,1,0,318,450,2.54,2.54,0,0,0,321.5,449.24Z"/><path class="cls-6" d="M311.87,449.88a2.55,2.55,0,1,0-3.52.73A2.56,2.56,0,0,0,311.87,449.88Z"/><path class="cls-6" d="M302.18,450a2.51,2.51,0,1,0-3.47.72A2.5,2.5,0,0,0,302.18,450Z"/><path class="cls-6" d="M292,449.13a1.83,1.83,0,1,0-2.53.53A1.84,1.84,0,0,0,292,449.13Z"/><path class="cls-6" d="M282.48,448.22a2,2,0,1,0-2.72.57A2,2,0,0,0,282.48,448.22Z"/><path class="cls-6" d="M273,446.7a2,2,0,1,0-2.73.57A2,2,0,0,0,273,446.7Z"/><path class="cls-6" d="M263.19,444.43a1.58,1.58,0,1,0-2.18.45A1.58,1.58,0,0,0,263.19,444.43Z"/><path class="cls-6" d="M254,441.92a1.72,1.72,0,1,0-2.38.5A1.72,1.72,0,0,0,254,441.92Z"/><path class="cls-6" d="M244.47,438.57a1.25,1.25,0,1,0-2.1-1.37,1.25,1.25,0,0,0,2.1,1.37Z"/><path class="cls-6" d="M235.42,434.9a1.14,1.14,0,1,0-1.58.33A1.13,1.13,0,0,0,235.42,434.9Z"/><path class="cls-6" d="M226.71,430.82a1.18,1.18,0,1,0-1.63.34A1.18,1.18,0,0,0,226.71,430.82Z"/><path class="cls-6" d="M218.19,426.21a1.13,1.13,0,0,0-.33-1.58,1.14,1.14,0,1,0,.33,1.58Z"/><path class="cls-6" d="M210,421.17a1.18,1.18,0,1,0-1.63.35A1.17,1.17,0,0,0,210,421.17Z"/><path class="cls-6" d="M201.83,415.51a.91.91,0,0,0-.26-1.24.9.9,0,1,0,.26,1.24Z"/><path class="cls-6" d="M194.22,409.56a.9.9,0,1,0-1.24.26A.9.9,0,0,0,194.22,409.56Z"/><path class="cls-6" d="M187,403.2a.9.9,0,1,0-1.24.26A.9.9,0,0,0,187,403.2Z"/><circle class="cls-6" cx="179.31" cy="395.95" r="0.64"/><path class="cls-6" d="M173.47,389.24a.78.78,0,0,0-.23-1.09.79.79,0,0,0-1.09.23.79.79,0,0,0,1.32.86Z"/><path class="cls-6" d="M167.1,381.58a.46.46,0,0,0-.13-.64.46.46,0,0,0-.51.77A.46.46,0,0,0,167.1,381.58Z"/><path class="cls-6" d="M161.35,373.7a.35.35,0,0,0-.1-.49.35.35,0,1,0-.39.59A.35.35,0,0,0,161.35,373.7Z"/><path class="cls-6" d="M156.22,365.64a.46.46,0,1,0-.77-.51.46.46,0,0,0,.77.51Z"/><path class="cls-6" d="M151.47,357.23a.47.47,0,0,0-.13-.64.48.48,0,0,0-.65.13.47.47,0,0,0,.14.65A.46.46,0,0,0,151.47,357.23Z"/><path class="cls-6" d="M146.93,348.4a.15.15,0,0,0,0-.2.14.14,0,0,0-.2,0,.14.14,0,0,0,0,.2A.15.15,0,0,0,146.93,348.4Z"/><path class="cls-6" d="M143.06,339.46a0,0,0,0,0,0,0s0,0-.05,0,0,0,0,.05S143.05,339.47,143.06,339.46Z"/><path class="cls-6" d="M433.5,148a.36.36,0,1,0-.5.1A.37.37,0,0,0,433.5,148Z"/><path class="cls-6" d="M440.08,155a.32.32,0,0,0-.1-.44.31.31,0,0,0-.44.09.32.32,0,0,0,.09.45A.33.33,0,0,0,440.08,155Z"/><path class="cls-6" d="M446.22,162.35a.21.21,0,0,0-.07-.29.21.21,0,1,0-.23.35A.21.21,0,0,0,446.22,162.35Z"/><path class="cls-6" d="M452.05,170.05a.22.22,0,0,0-.07-.3.2.2,0,0,0-.29.06.22.22,0,1,0,.36.24Z"/><path class="cls-6" d="M458.33,178.61a1.24,1.24,0,0,0-.36-1.73,1.25,1.25,0,1,0,.36,1.73Z"/><path class="cls-6" d="M464,187.29a2,2,0,1,0-2.78.58A2,2,0,0,0,464,187.29Z"/><path class="cls-6" d="M468.19,195.61a1.65,1.65,0,1,0-2.28.48A1.65,1.65,0,0,0,468.19,195.61Z"/><path class="cls-6" d="M472.28,204.36a1.65,1.65,0,1,0-2.28.48A1.65,1.65,0,0,0,472.28,204.36Z"/><path class="cls-6" d="M475.3,212.92a.93.93,0,1,0-1.29.27A.93.93,0,0,0,475.3,212.92Z"/><path class="cls-6" d="M478.86,222.32a1.43,1.43,0,1,0-2,.42A1.43,1.43,0,0,0,478.86,222.32Z"/><path class="cls-6" d="M481.52,231.6a1.43,1.43,0,1,0-2,.42A1.43,1.43,0,0,0,481.52,231.6Z"/><path class="cls-6" d="M483.68,241a1.43,1.43,0,1,0-2,.42A1.43,1.43,0,0,0,483.68,241Z"/><path class="cls-6" d="M485.64,250.72a1.79,1.79,0,1,0-2.47.52A1.79,1.79,0,0,0,485.64,250.72Z"/><path class="cls-6" d="M487.25,260.6a2.33,2.33,0,1,0-3.22.67A2.32,2.32,0,0,0,487.25,260.6Z"/><path class="cls-6" d="M487.9,270.23a2.32,2.32,0,1,0-3.22.68A2.32,2.32,0,0,0,487.9,270.23Z"/><path class="cls-6" d="M488.29,280a2.62,2.62,0,1,0-3.62.76A2.6,2.6,0,0,0,488.29,280Z"/><path class="cls-6" d="M488,289.71a2.65,2.65,0,1,0-3.67.77A2.65,2.65,0,0,0,488,289.71Z"/><path class="cls-6" d="M487.22,299.43a2.83,2.83,0,1,0-3.91.81A2.83,2.83,0,0,0,487.22,299.43Z"/><path class="cls-6" d="M485.84,309a2.82,2.82,0,1,0-3.91.82A2.82,2.82,0,0,0,485.84,309Z"/><path class="cls-6" d="M484,318.47a2.86,2.86,0,1,0-4,.83A2.85,2.85,0,0,0,484,318.47Z"/><path class="cls-6" d="M481.9,328a3.22,3.22,0,1,0-4.46.94A3.22,3.22,0,0,0,481.9,328Z"/><path class="cls-6" d="M478.88,337.14a3,3,0,1,0-4.21.88A3,3,0,0,0,478.88,337.14Z"/><path class="cls-6" d="M475.37,346.1a2.86,2.86,0,1,0-4,.83A2.87,2.87,0,0,0,475.37,346.1Z"/><path class="cls-6" d="M471.25,354.77a2.51,2.51,0,1,0-3.47.72A2.5,2.5,0,0,0,471.25,354.77Z"/><path class="cls-6" d="M467.23,363.59a2.83,2.83,0,1,0-3.92.82A2.82,2.82,0,0,0,467.23,363.59Z"/><path class="cls-6" d="M462.58,372.06a2.94,2.94,0,1,0-4.07.85A2.95,2.95,0,0,0,462.58,372.06Z"/><path class="cls-6" d="M457.4,380.21a2.93,2.93,0,1,0-4.06.85A2.93,2.93,0,0,0,457.4,380.21Z"/><path class="cls-6" d="M452,388.17a3.11,3.11,0,1,0-4.31.9A3.11,3.11,0,0,0,452,388.17Z"/><path class="cls-6" d="M445.61,395.51a2.72,2.72,0,1,0-3.77.79A2.71,2.71,0,0,0,445.61,395.51Z"/><path class="cls-6" d="M439.18,402.73a2.68,2.68,0,1,0-3.72.77A2.69,2.69,0,0,0,439.18,402.73Z"/><path class="cls-6" d="M432.65,409.77a3,3,0,1,0-4.11.85A3,3,0,0,0,432.65,409.77Z"/><path class="cls-6" d="M425.82,416.48a3.33,3.33,0,1,0-4.61,1A3.32,3.32,0,0,0,425.82,416.48Z"/><path class="cls-6" d="M418.18,422.49a3.11,3.11,0,1,0-4.31.9A3.1,3.1,0,0,0,418.18,422.49Z"/><path class="cls-6" d="M410.35,428.18a3,3,0,1,0-4.21.88A3,3,0,0,0,410.35,428.18Z"/><path class="cls-6" d="M402.29,433.49a3,3,0,1,0-4.21.88A3,3,0,0,0,402.29,433.49Z"/><path class="cls-6" d="M393.9,438.33a3,3,0,1,0-4.12.86A3,3,0,0,0,393.9,438.33Z"/><path class="cls-6" d="M385.71,443a3.44,3.44,0,1,0-4.76,1A3.43,3.43,0,0,0,385.71,443Z"/><path class="cls-6" d="M376.73,446.87a3.23,3.23,0,1,0-4.46.93A3.23,3.23,0,0,0,376.73,446.87Z"/><path class="cls-6" d="M367.73,450.37a3.22,3.22,0,1,0-4.46.93A3.22,3.22,0,0,0,367.73,450.37Z"/><path class="cls-6" d="M358.29,453.21a2.9,2.9,0,1,0-4,.84A2.89,2.89,0,0,0,358.29,453.21Z"/><path class="cls-6" d="M349.12,455.85a3.08,3.08,0,1,0-4.26.89A3.08,3.08,0,0,0,349.12,455.85Z"/><path class="cls-6" d="M339.68,457.88a3.08,3.08,0,1,0-4.26.9A3.06,3.06,0,0,0,339.68,457.88Z"/><path class="cls-6" d="M329.88,459.25a2.76,2.76,0,1,0-3.81.79A2.76,2.76,0,0,0,329.88,459.25Z"/><path class="cls-6" d="M320.52,460.43a3,3,0,1,0-4.21.89A3,3,0,0,0,320.52,460.43Z"/><path class="cls-6" d="M310.55,460.74a2.65,2.65,0,1,0-3.66.77A2.64,2.64,0,0,0,310.55,460.74Z"/><path class="cls-6" d="M300.63,460.58a2.33,2.33,0,1,0-3.22.67A2.33,2.33,0,0,0,300.63,460.58Z"/><path class="cls-6" d="M291,460.09a2.33,2.33,0,1,0-3.22.67A2.32,2.32,0,0,0,291,460.09Z"/><path class="cls-6" d="M280.81,458.71a1.64,1.64,0,1,0-2.28.48A1.65,1.65,0,0,0,280.81,458.71Z"/><path class="cls-6" d="M271.39,457.28a1.79,1.79,0,1,0-2.47.52A1.78,1.78,0,0,0,271.39,457.28Z"/><path class="cls-6" d="M261.59,455a1.36,1.36,0,1,0-1.88.39A1.36,1.36,0,0,0,261.59,455Z"/><path class="cls-6" d="M252.06,452.4a1.11,1.11,0,1,0-1.54.32A1.12,1.12,0,0,0,252.06,452.4Z"/><path class="cls-6" d="M242.7,449.28a.89.89,0,0,0-.26-1.23.89.89,0,1,0,.26,1.23Z"/><path class="cls-6" d="M233.69,445.81a.9.9,0,1,0-1.24.26A.89.89,0,0,0,233.69,445.81Z"/><path class="cls-6" d="M225.18,442.06a1.25,1.25,0,1,0-1.74.37A1.27,1.27,0,0,0,225.18,442.06Z"/><path class="cls-6" d="M216.38,437.52a1,1,0,1,0-1.39.29A1,1,0,0,0,216.38,437.52Z"/><path class="cls-6" d="M207.94,432.61a.9.9,0,1,0-1.24.26A.9.9,0,0,0,207.94,432.61Z"/><path class="cls-6" d="M199.89,427.35a.93.93,0,1,0-1.56-1,.92.92,0,0,0,.27,1.28A.93.93,0,0,0,199.89,427.35Z"/><path class="cls-6" d="M192,421.56a.79.79,0,1,0-1.32-.86.79.79,0,0,0,1.32.86Z"/><circle class="cls-6" cx="183.84" cy="415.02" r="1.04"/><path class="cls-6" d="M177.38,409a.81.81,0,0,0-.23-1.14.82.82,0,0,0-1.14.24.82.82,0,1,0,1.37.9Z"/><path class="cls-6" d="M170.35,402a.53.53,0,0,0-.15-.74.54.54,0,0,0-.59.9A.53.53,0,0,0,170.35,402Z"/><path class="cls-6" d="M163.93,394.75a.52.52,0,0,0-.15-.74.53.53,0,1,0-.59.89A.52.52,0,0,0,163.93,394.75Z"/><path class="cls-6" d="M157.9,387.21a.54.54,0,0,0-.15-.74.55.55,0,0,0-.75.15.55.55,0,0,0,.16.75A.54.54,0,0,0,157.9,387.21Z"/><path class="cls-6" d="M152,379.21a.26.26,0,0,0-.08-.35.24.24,0,0,0-.34.07.25.25,0,0,0,.07.35A.26.26,0,0,0,152,379.21Z"/><path class="cls-6" d="M464,168.45a.22.22,0,0,0-.36-.24.22.22,0,0,0,.06.3A.23.23,0,0,0,464,168.45Z"/><path class="cls-6" d="M469.25,176.6a.24.24,0,0,0-.07-.34.26.26,0,0,0-.35.07.26.26,0,0,0,.08.35A.25.25,0,0,0,469.25,176.6Z"/><path class="cls-6" d="M473.94,184.93a.13.13,0,0,0,0-.19.14.14,0,0,0-.2,0,.16.16,0,0,0,0,.2A.15.15,0,0,0,473.94,184.93Z"/><path class="cls-6" d="M479.05,194a1,1,0,0,0-.31-1.43,1,1,0,1,0-1.13,1.73A1,1,0,0,0,479.05,194Z"/><path class="cls-6" d="M482.46,202.54a.43.43,0,1,0-.6.12A.44.44,0,0,0,482.46,202.54Z"/><path class="cls-6" d="M487.13,212.33a1.86,1.86,0,1,0-2.58.53A1.87,1.87,0,0,0,487.13,212.33Z"/><path class="cls-6" d="M489.85,221.3a1.5,1.5,0,1,0-2.08.44A1.5,1.5,0,0,0,489.85,221.3Z"/><path class="cls-6" d="M492.8,230.86a2,2,0,1,0-2.72.57A2,2,0,0,0,492.8,230.86Z"/><path class="cls-6" d="M494.93,240.31a2,2,0,1,0-2.78.58A2,2,0,0,0,494.93,240.31Z"/><path class="cls-6" d="M496.82,250a2.33,2.33,0,1,0-3.22.68A2.33,2.33,0,0,0,496.82,250Z"/><path class="cls-6" d="M497.69,259.41a2,2,0,1,0-2.77.58A2,2,0,0,0,497.69,259.41Z"/><path class="cls-6" d="M499.14,269.56a2.94,2.94,0,1,0-4.07.85A3,3,0,0,0,499.14,269.56Z"/><path class="cls-6" d="M498.93,279a2.47,2.47,0,1,0-3.41.71A2.47,2.47,0,0,0,498.93,279Z"/><path class="cls-6" d="M499,288.82a2.86,2.86,0,1,0-4,.83A2.86,2.86,0,0,0,499,288.82Z"/><path class="cls-6" d="M498.13,298.41a2.8,2.8,0,1,0-3.87.8A2.8,2.8,0,0,0,498.13,298.41Z"/><path class="cls-6" d="M496.93,308a2.86,2.86,0,1,0-4,.83A2.85,2.85,0,0,0,496.93,308Z"/><path class="cls-6" d="M495.38,317.63a3.08,3.08,0,1,0-4.26.9A3.08,3.08,0,0,0,495.38,317.63Z"/><path class="cls-6" d="M493.3,327.11a3.22,3.22,0,1,0-4.46.94A3.23,3.23,0,0,0,493.3,327.11Z"/><path class="cls-6" d="M490.78,336.49a3.4,3.4,0,1,0-4.71,1A3.4,3.4,0,0,0,490.78,336.49Z"/><path class="cls-6" d="M487.68,345.65a3.44,3.44,0,1,0-4.76,1A3.44,3.44,0,0,0,487.68,345.65Z"/><path class="cls-6" d="M483.83,354.43a3.11,3.11,0,1,0-4.31.91A3.12,3.12,0,0,0,483.83,354.43Z"/><path class="cls-6" d="M479.84,363.23a3.15,3.15,0,1,0-4.36.91A3.16,3.16,0,0,0,479.84,363.23Z"/><path class="cls-6" d="M475.44,371.84a3.22,3.22,0,1,0-4.45.93A3.21,3.21,0,0,0,475.44,371.84Z"/><path class="cls-6" d="M470.45,380.09a3.08,3.08,0,1,0-4.26.89A3.08,3.08,0,0,0,470.45,380.09Z"/><path class="cls-6" d="M465.43,388.35a3.4,3.4,0,1,0-4.7,1A3.4,3.4,0,0,0,465.43,388.35Z"/><path class="cls-6" d="M459.54,396a3.15,3.15,0,1,0-4.36.91A3.16,3.16,0,0,0,459.54,396Z"/><path class="cls-6" d="M453.48,403.53a3.15,3.15,0,1,0-4.36.92A3.16,3.16,0,0,0,453.48,403.53Z"/><path class="cls-6" d="M447,410.7a3.08,3.08,0,1,0-4.27.89A3.09,3.09,0,0,0,447,410.7Z"/><path class="cls-6" d="M440.42,417.71a3.33,3.33,0,1,0-4.61,1A3.34,3.34,0,0,0,440.42,417.71Z"/><path class="cls-6" d="M433.27,424.21a3.29,3.29,0,1,0-4.56,1A3.29,3.29,0,0,0,433.27,424.21Z"/><path class="cls-6" d="M425.93,430.44a3.41,3.41,0,1,0-4.71,1A3.4,3.4,0,0,0,425.93,430.44Z"/><path class="cls-6" d="M418.2,436.22a3.4,3.4,0,1,0-4.71,1A3.41,3.41,0,0,0,418.2,436.22Z"/><path class="cls-6" d="M410.25,441.65a3.47,3.47,0,1,0-4.81,1A3.47,3.47,0,0,0,410.25,441.65Z"/><path class="cls-6" d="M401.83,446.54a3.29,3.29,0,1,0-4.56.95A3.29,3.29,0,0,0,401.83,446.54Z"/><path class="cls-6" d="M393.48,451.21a3.48,3.48,0,1,0-4.81,1A3.49,3.49,0,0,0,393.48,451.21Z"/><path class="cls-6" d="M384.78,455.37a3.51,3.51,0,1,0-4.86,1A3.51,3.51,0,0,0,384.78,455.37Z"/><path class="cls-6" d="M375.68,459a3.29,3.29,0,1,0-4.56.95A3.29,3.29,0,0,0,375.68,459Z"/><path class="cls-6" d="M366.5,462.14a3.19,3.19,0,1,0-4.41.92A3.19,3.19,0,0,0,366.5,462.14Z"/><path class="cls-6" d="M357.35,465a3.29,3.29,0,1,0-4.56.95A3.29,3.29,0,0,0,357.35,465Z"/><path class="cls-6" d="M347.77,467.18a3,3,0,1,0-4.21.88A3,3,0,0,0,347.77,467.18Z"/><path class="cls-6" d="M338.29,469a3,3,0,1,0-4.21.88A3,3,0,0,0,338.29,469Z"/><path class="cls-6" d="M328.89,470.52a3.22,3.22,0,1,0-4.46.93A3.22,3.22,0,0,0,328.89,470.52Z"/><path class="cls-6" d="M319.36,471.48a3.33,3.33,0,1,0-4.6,1A3.31,3.31,0,0,0,319.36,471.48Z"/><path class="cls-6" d="M309.72,471.91a3.33,3.33,0,1,0-4.61,1A3.33,3.33,0,0,0,309.72,471.91Z"/><path class="cls-6" d="M299.61,471.56a2.79,2.79,0,1,0-3.86.81A2.79,2.79,0,0,0,299.61,471.56Z"/><path class="cls-6" d="M289.88,471a2.68,2.68,0,1,0-3.71.78A2.68,2.68,0,0,0,289.88,471Z"/><path class="cls-6" d="M279.41,469.38a1.64,1.64,0,1,0-2.27.48A1.65,1.65,0,0,0,279.41,469.38Z"/><path class="cls-6" d="M269.67,467.75a1.4,1.4,0,1,0-1.94.4A1.4,1.4,0,0,0,269.67,467.75Z"/><circle class="cls-6" cx="259.05" cy="465.01" r="1.4"/><path class="cls-6" d="M250.87,463.34a1.4,1.4,0,1,0-1.93.41A1.4,1.4,0,0,0,250.87,463.34Z"/><path class="cls-6" d="M241.54,460.37a1.26,1.26,0,1,0-1.73.36A1.26,1.26,0,0,0,241.54,460.37Z"/><path class="cls-6" d="M232.37,456.93a1.11,1.11,0,1,0-1.86-1.21,1.1,1.1,0,0,0,.32,1.53A1.11,1.11,0,0,0,232.37,456.93Z"/><circle class="cls-6" cx="222.56" cy="452.52" r="0.82" transform="translate(-277.97 391.06) rotate(-56.81)"/><path class="cls-6" d="M214.64,448.77a.9.9,0,0,0-1.5-1,.9.9,0,0,0,1.5,1Z"/><circle class="cls-6" cx="205.44" cy="443.62" r="0.82" transform="translate(-278.27 372.7) rotate(-56.81)"/><path class="cls-6" d="M197.89,439a.79.79,0,1,0-1.32-.86.79.79,0,1,0,1.32.86Z"/><path class="cls-6" d="M189.91,433.46a.75.75,0,1,0-1,.22A.76.76,0,0,0,189.91,433.46Z"/><path class="cls-6" d="M182.25,427.58a.75.75,0,0,0-1.26-.82.75.75,0,1,0,1.26.82Z"/><circle class="cls-6" cx="174.26" cy="420.93" r="0.64"/><path class="cls-6" d="M167.49,414.49a.33.33,0,0,0-.09-.44.32.32,0,0,0-.36.54A.33.33,0,0,0,167.49,414.49Z"/><path class="cls-6" d="M154.2,400.11s0,0,0-.05,0,0-.05,0,0,0,0,.05S154.19,400.13,154.2,400.11Z"/><path class="cls-6" d="M485.32,183.59s0,0,0-.05,0,0-.05,0,0,0,0,0S485.31,183.61,485.32,183.59Z"/><path class="cls-6" d="M493.6,201.39a.42.42,0,0,0-.12-.59.43.43,0,1,0-.47.72A.42.42,0,0,0,493.6,201.39Z"/><path class="cls-6" d="M496.8,210.35a.25.25,0,0,0-.08-.34.24.24,0,0,0-.34.07.26.26,0,0,0,.07.35A.26.26,0,0,0,496.8,210.35Z"/><circle class="cls-6" cx="499.5" cy="219.42" r="0.64" transform="matrix(0.55, -0.84, 0.84, 0.55, 42.44, 517.33)"/><path class="cls-6" d="M502.51,229.11a.64.64,0,1,0-.88.18A.62.62,0,0,0,502.51,229.11Z"/><path class="cls-6" d="M505.09,238.9a1.29,1.29,0,1,0-2.16-1.41,1.29,1.29,0,0,0,2.16,1.41Z"/><path class="cls-6" d="M507,248.64a1.68,1.68,0,1,0-2.33.49A1.68,1.68,0,0,0,507,248.64Z"/><path class="cls-6" d="M508.13,258.23a1.68,1.68,0,1,0-2.33.48A1.69,1.69,0,0,0,508.13,258.23Z"/><path class="cls-6" d="M509.44,268.27a2.43,2.43,0,1,0-3.37.71A2.44,2.44,0,0,0,509.44,268.27Z"/><path class="cls-6" d="M509.69,278a2.47,2.47,0,1,0-3.41.71A2.47,2.47,0,0,0,509.69,278Z"/><path class="cls-6" d="M509.31,287.5a2.29,2.29,0,1,0-3.17.66A2.29,2.29,0,0,0,509.31,287.5Z"/><path class="cls-6" d="M508.62,297.13a2.29,2.29,0,1,0-3.17.66A2.29,2.29,0,0,0,508.62,297.13Z"/><path class="cls-6" d="M507.69,306.85a2.54,2.54,0,1,0-3.52.74A2.53,2.53,0,0,0,507.69,306.85Z"/><path class="cls-6" d="M506.07,316.36a2.51,2.51,0,1,0-3.47.72A2.51,2.51,0,0,0,506.07,316.36Z"/><circle class="cls-6" cx="501.93" cy="324.42" r="3.04"/><path class="cls-6" d="M501.93,335.38a3,3,0,1,0-4.12.86A3,3,0,0,0,501.93,335.38Z"/><path class="cls-6" d="M499.06,344.62a3,3,0,1,0-4.21.88A3,3,0,0,0,499.06,344.62Z"/><path class="cls-6" d="M495.71,353.67a3,3,0,1,0-4.21.89A3,3,0,0,0,495.71,353.67Z"/><path class="cls-6" d="M492,362.62a3.15,3.15,0,1,0-4.36.91A3.16,3.16,0,0,0,492,362.62Z"/><path class="cls-6" d="M488,371.41a3.33,3.33,0,1,0-4.6,1A3.31,3.31,0,0,0,488,371.41Z"/><path class="cls-6" d="M483.67,380.1a3.69,3.69,0,1,0-5.1,1.07A3.68,3.68,0,0,0,483.67,380.1Z"/><path class="cls-6" d="M478.65,388.34a3.65,3.65,0,1,0-5.06,1.06A3.65,3.65,0,0,0,478.65,388.34Z"/><path class="cls-6" d="M473.09,396.24a3.44,3.44,0,1,0-4.76,1A3.44,3.44,0,0,0,473.09,396.24Z"/><circle class="cls-6" cx="464.46" cy="402.11" r="2.61"/><path class="cls-6" d="M460.8,411.2a2.94,2.94,0,1,0-4.06.84A2.94,2.94,0,0,0,460.8,411.2Z"/><path class="cls-6" d="M454.88,418.73a3.58,3.58,0,1,0-4.95,1A3.58,3.58,0,0,0,454.88,418.73Z"/><path class="cls-6" d="M448.09,425.59a3.58,3.58,0,1,0-4.95,1A3.59,3.59,0,0,0,448.09,425.59Z"/><path class="cls-6" d="M441.1,432.2a3.72,3.72,0,1,0-5.15,1.08A3.71,3.71,0,0,0,441.1,432.2Z"/><path class="cls-6" d="M433.4,438.2a3.37,3.37,0,1,0-4.66,1A3.37,3.37,0,0,0,433.4,438.2Z"/><path class="cls-6" d="M425.79,444.09a3.47,3.47,0,1,0-4.8,1A3.46,3.46,0,0,0,425.79,444.09Z"/><path class="cls-6" d="M417.89,449.6a3.54,3.54,0,1,0-4.9,1A3.54,3.54,0,0,0,417.89,449.6Z"/><path class="cls-6" d="M409.63,454.64a3.48,3.48,0,1,0-4.81,1A3.46,3.46,0,0,0,409.63,454.64Z"/><path class="cls-6" d="M401.19,459.33a3.48,3.48,0,1,0-4.81,1A3.46,3.46,0,0,0,401.19,459.33Z"/><path class="cls-6" d="M392.45,463.56a3.37,3.37,0,1,0-4.66,1A3.36,3.36,0,0,0,392.45,463.56Z"/><path class="cls-6" d="M383.69,467.5a3.47,3.47,0,1,0-4.8,1A3.48,3.48,0,0,0,383.69,467.5Z"/><path class="cls-6" d="M374.65,470.93a3.44,3.44,0,1,0-4.76,1A3.45,3.45,0,0,0,374.65,470.93Z"/><path class="cls-6" d="M365.44,473.93a3.4,3.4,0,1,0-4.7,1A3.4,3.4,0,0,0,365.44,473.93Z"/><path class="cls-6" d="M356.11,476.5a3.37,3.37,0,1,0-4.66,1A3.37,3.37,0,0,0,356.11,476.5Z"/><circle class="cls-6" cx="343.88" cy="476.8" r="3.44"/><circle class="cls-6" cx="334.38" cy="478.49" r="3.33" transform="translate(-249.1 496.39) rotate(-56.81)"/><circle class="cls-6" cx="324.8" cy="479.74" r="3.44"/><path class="cls-6" d="M318.17,482.49a3.58,3.58,0,1,0-4.95,1A3.57,3.57,0,0,0,318.17,482.49Z"/><path class="cls-6" d="M308.32,482.69a3.33,3.33,0,1,0-4.61,1A3.34,3.34,0,0,0,308.32,482.69Z"/><path class="cls-6" d="M297.94,482.1a2.47,2.47,0,1,0-3.42.71A2.47,2.47,0,0,0,297.94,482.1Z"/><path class="cls-6" d="M287.88,481.25a2,2,0,1,0-2.72.57A2,2,0,0,0,287.88,481.25Z"/><path class="cls-6" d="M278.28,480.22a2,2,0,1,0-2.72.57A2,2,0,0,0,278.28,480.22Z"/><circle class="cls-6" cx="267.1" cy="477.66" r="1.4"/><path class="cls-6" d="M258.77,476.48a1.36,1.36,0,1,0-1.88.39A1.37,1.37,0,0,0,258.77,476.48Z"/><path class="cls-6" d="M249.33,474a1.25,1.25,0,1,0-1.74.36A1.26,1.26,0,0,0,249.33,474Z"/><path class="cls-6" d="M240.18,471.29a1.36,1.36,0,1,0-1.89.39A1.38,1.38,0,0,0,240.18,471.29Z"/><path class="cls-6" d="M231,468a1.25,1.25,0,1,0-1.73.36A1.25,1.25,0,0,0,231,468Z"/><path class="cls-6" d="M222.07,464.31a1.26,1.26,0,0,0-.37-1.74,1.25,1.25,0,1,0,.37,1.74Z"/><path class="cls-6" d="M213.23,460.15a1.15,1.15,0,0,0-1.92-1.25,1.16,1.16,0,0,0,.34,1.59A1.15,1.15,0,0,0,213.23,460.15Z"/><path class="cls-6" d="M204.69,455.66a1.15,1.15,0,1,0-1.59.33A1.16,1.16,0,0,0,204.69,455.66Z"/><path class="cls-6" d="M196,450.54a.75.75,0,0,0-1.26-.82.75.75,0,1,0,1.26.82Z"/><path class="cls-6" d="M187.87,445.2a.65.65,0,0,0-1.08-.71.65.65,0,0,0,1.08.71Z"/><path class="cls-6" d="M179.78,439.36a.32.32,0,0,0-.1-.44.32.32,0,0,0-.35.53A.32.32,0,0,0,179.78,439.36Z"/><path class="cls-6" d="M172.05,433.22a.11.11,0,1,0-.15,0A.11.11,0,0,0,172.05,433.22Z"/><path class="cls-6" d="M513,227.87a.26.26,0,0,0-.07-.35.25.25,0,0,0-.35.07.26.26,0,0,0,.07.35A.26.26,0,0,0,513,227.87Z"/><path class="cls-6" d="M516.8,247a.58.58,0,0,0-.17-.79.57.57,0,0,0-.63,1A.58.58,0,0,0,516.8,247Z"/><path class="cls-6" d="M518.22,256.81a.93.93,0,1,0-1.29.27A.93.93,0,0,0,518.22,256.81Z"/><path class="cls-6" d="M518.43,266.13a.37.37,0,0,0-.11-.5.35.35,0,0,0-.49.1.36.36,0,0,0,.1.5A.37.37,0,0,0,518.43,266.13Z"/><path class="cls-6" d="M519.58,276.37a1.43,1.43,0,1,0-2,.41A1.44,1.44,0,0,0,519.58,276.37Z"/><path class="cls-6" d="M519.89,286.33a2,2,0,1,0-2.78.58A2,2,0,0,0,519.89,286.33Z"/><path class="cls-6" d="M519.16,295.89a1.86,1.86,0,1,0-2.58.54A1.86,1.86,0,0,0,519.16,295.89Z"/><path class="cls-6" d="M518.68,305.86a2.54,2.54,0,1,0-3.52.74A2.55,2.55,0,0,0,518.68,305.86Z"/><circle class="cls-6" cx="515.09" cy="314.01" r="2.26" transform="translate(-29.66 573.18) rotate(-56.81)"/><path class="cls-6" d="M515.35,324.89a2.58,2.58,0,1,0-3.57.75A2.59,2.59,0,0,0,515.35,324.89Z"/><path class="cls-6" d="M513.15,334.34a2.72,2.72,0,1,0-3.77.79A2.72,2.72,0,0,0,513.15,334.34Z"/><circle class="cls-6" cx="508.13" cy="342.11" r="2.69" transform="translate(-56.33 580.08) rotate(-56.81)"/><path class="cls-6" d="M507.41,352.83a2.9,2.9,0,1,0-4,.84A2.91,2.91,0,0,0,507.41,352.83Z"/><path class="cls-6" d="M503.61,361.65a2.61,2.61,0,1,0-3.62.75A2.61,2.61,0,0,0,503.61,361.65Z"/><path class="cls-6" d="M500,370.71a3.08,3.08,0,1,0-4.26.89A3.07,3.07,0,0,0,500,370.71Z"/><path class="cls-6" d="M495.7,379.33a3.08,3.08,0,1,0-4.27.89A3.09,3.09,0,0,0,495.7,379.33Z"/><path class="cls-6" d="M491.11,387.85a3.26,3.26,0,1,0-4.51.94A3.25,3.25,0,0,0,491.11,387.85Z"/><path class="cls-6" d="M486,396a3.26,3.26,0,1,0-4.51.94A3.26,3.26,0,0,0,486,396Z"/><path class="cls-6" d="M480.28,403.83a2.94,2.94,0,1,0-4.07.84A3,3,0,0,0,480.28,403.83Z"/><path class="cls-6" d="M474.76,411.73a3.29,3.29,0,1,0-4.56.95A3.29,3.29,0,0,0,474.76,411.73Z"/><path class="cls-6" d="M468.18,418.89a2.79,2.79,0,1,0-3.86.81A2.78,2.78,0,0,0,468.18,418.89Z"/><path class="cls-6" d="M462.33,426.46a3.54,3.54,0,1,0-4.91,1A3.55,3.55,0,0,0,462.33,426.46Z"/><path class="cls-6" d="M455.92,433.57a4,4,0,1,0-5.55,1.16A4,4,0,0,0,455.92,433.57Z"/><path class="cls-6" d="M448.61,440a3.76,3.76,0,1,0-5.2,1.08A3.76,3.76,0,0,0,448.61,440Z"/><circle class="cls-6" cx="438.08" cy="444.14" r="3.79"/><path class="cls-6" d="M433.12,451.78a3.23,3.23,0,1,0-4.47.93A3.23,3.23,0,0,0,433.12,451.78Z"/><circle class="cls-6" cx="422.51" cy="455.55" r="3.72"/><path class="cls-6" d="M417.32,462.66a3.54,3.54,0,1,0-4.91,1A3.55,3.55,0,0,0,417.32,462.66Z"/><path class="cls-6" d="M408.58,467.22a3.11,3.11,0,1,0-4.31.91A3.11,3.11,0,0,0,408.58,467.22Z"/><path class="cls-6" d="M400,471.65a3.12,3.12,0,1,0-4.32.9A3.13,3.13,0,0,0,400,471.65Z"/><path class="cls-6" d="M391.43,475.81a3.36,3.36,0,1,0-4.66,1A3.37,3.37,0,0,0,391.43,475.81Z"/><path class="cls-6" d="M382.58,479.5a3.48,3.48,0,1,0-4.81,1A3.46,3.46,0,0,0,382.58,479.5Z"/><path class="cls-6" d="M373.53,482.77a3.54,3.54,0,1,0-4.9,1A3.54,3.54,0,0,0,373.53,482.77Z"/><path class="cls-6" d="M364.3,485.58a3.54,3.54,0,1,0-4.91,1A3.54,3.54,0,0,0,364.3,485.58Z"/><path class="cls-6" d="M355,488A3.66,3.66,0,1,0,350,489.1,3.65,3.65,0,0,0,355,488Z"/><circle class="cls-6" cx="342.53" cy="488.02" r="3.51"/><path class="cls-6" d="M335.93,491.49a3.51,3.51,0,1,0-4.85,1A3.52,3.52,0,0,0,335.93,491.49Z"/><path class="cls-6" d="M326.31,492.59a3.47,3.47,0,1,0-4.8,1A3.48,3.48,0,0,0,326.31,492.59Z"/><path class="cls-6" d="M316.77,493.34a3.58,3.58,0,1,0-4.95,1A3.58,3.58,0,0,0,316.77,493.34Z"/><path class="cls-6" d="M306.25,493a2.54,2.54,0,1,0-3.51.73A2.54,2.54,0,0,0,306.25,493Z"/><path class="cls-6" d="M296.6,492.85a2.54,2.54,0,1,0-3.52.74A2.54,2.54,0,0,0,296.6,492.85Z"/><path class="cls-6" d="M286.72,492.09a2.25,2.25,0,1,0-3.12.65A2.26,2.26,0,0,0,286.72,492.09Z"/><path class="cls-6" d="M277,491a2.08,2.08,0,1,0-2.87.6A2.08,2.08,0,0,0,277,491Z"/><path class="cls-6" d="M267.13,489.28a1.72,1.72,0,1,0-2.38.5A1.72,1.72,0,0,0,267.13,489.28Z"/><path class="cls-6" d="M257.72,487.42a1.79,1.79,0,1,0-2.47.52A1.79,1.79,0,0,0,257.72,487.42Z"/><path class="cls-6" d="M248.35,485.1a1.79,1.79,0,1,0-2.47.52A1.79,1.79,0,0,0,248.35,485.1Z"/><path class="cls-6" d="M238,481.64a.47.47,0,0,0-.79-.51.47.47,0,0,0,.79.51Z"/><circle class="cls-6" cx="228.47" cy="478.23" r="0.64"/><path class="cls-6" d="M219.85,474.91a.42.42,0,0,0-.12-.59.43.43,0,1,0-.47.72A.43.43,0,0,0,219.85,474.91Z"/><path class="cls-6" d="M211,470.9a.32.32,0,0,0-.54-.36.33.33,0,0,0,.1.45A.32.32,0,0,0,211,470.9Z"/><path class="cls-6" d="M202.24,466.49a.21.21,0,0,0-.06-.3.22.22,0,0,0-.24.36A.21.21,0,0,0,202.24,466.49Z"/><path class="cls-6" d="M193.74,461.7a.11.11,0,0,0,0-.15.1.1,0,0,0-.14,0,.1.1,0,0,0,0,.15A.11.11,0,0,0,193.74,461.7Z"/><path class="cls-6" d="M529.15,265.12a.36.36,0,0,0-.11-.5.36.36,0,0,0-.49.1.36.36,0,1,0,.6.4Z"/><circle class="cls-6" cx="529.14" cy="274.57" r="0.64"/><path class="cls-6" d="M529.55,284.58a.65.65,0,0,0-1.08-.71.66.66,0,0,0,.19.9A.65.65,0,0,0,529.55,284.58Z"/><path class="cls-6" d="M529,294.18a.57.57,0,0,0-.16-.79.57.57,0,1,0-.63,1A.57.57,0,0,0,529,294.18Z"/><path class="cls-6" d="M528.9,304.38a1.65,1.65,0,1,0-2.28.47A1.64,1.64,0,0,0,528.9,304.38Z"/><path class="cls-6" d="M526.61,313.33a.53.53,0,1,0-.89-.59.53.53,0,1,0,.89.59Z"/><path class="cls-6" d="M525.81,323.45a1.68,1.68,0,1,0-2.33.48A1.68,1.68,0,0,0,525.81,323.45Z"/><path class="cls-6" d="M523.64,332.86a1.68,1.68,0,1,0-2.33.48A1.68,1.68,0,0,0,523.64,332.86Z"/><path class="cls-6" d="M519.84,341.36a.2.2,0,0,0-.06-.29.21.21,0,0,0-.3.06.21.21,0,0,0,.06.29A.21.21,0,0,0,519.84,341.36Z"/><path class="cls-6" d="M517.45,350.92a.9.9,0,1,0-1.24.26A.89.89,0,0,0,517.45,350.92Z"/><path class="cls-6" d="M514.84,360.47a1.79,1.79,0,1,0-2.48.52A1.79,1.79,0,0,0,514.84,360.47Z"/><path class="cls-6" d="M511.73,369.78a2.54,2.54,0,1,0-3.52.74A2.54,2.54,0,0,0,511.73,369.78Z"/><path class="cls-6" d="M508.15,378.87a3.19,3.19,0,1,0-4.41.92A3.18,3.18,0,0,0,508.15,378.87Z"/><path class="cls-6" d="M503.73,387.46a3.26,3.26,0,1,0-4.51.94A3.27,3.27,0,0,0,503.73,387.46Z"/><path class="cls-6" d="M498.7,395.69a3,3,0,1,0-4.21.88A3,3,0,0,0,498.7,395.69Z"/><path class="cls-6" d="M493.5,403.83a3,3,0,1,0-4.21.88A3,3,0,0,0,493.5,403.83Z"/><path class="cls-6" d="M488.2,411.89a3.33,3.33,0,1,0-4.61,1A3.33,3.33,0,0,0,488.2,411.89Z"/><path class="cls-6" d="M482.51,419.67a3.55,3.55,0,1,0-4.91,1A3.55,3.55,0,0,0,482.51,419.67Z"/><path class="cls-6" d="M476.19,427a3.4,3.4,0,1,0-4.71,1A3.4,3.4,0,0,0,476.19,427Z"/><path class="cls-6" d="M469.59,434.07a3.29,3.29,0,1,0-4.56,1A3.29,3.29,0,0,0,469.59,434.07Z"/><path class="cls-6" d="M463.09,441.12a3.66,3.66,0,1,0-5.06,1.06A3.66,3.66,0,0,0,463.09,441.12Z"/><path class="cls-6" d="M456,447.65a3.62,3.62,0,1,0-5,1A3.62,3.62,0,0,0,456,447.65Z"/><path class="cls-6" d="M448.42,453.77a3.4,3.4,0,1,0-4.71,1A3.4,3.4,0,0,0,448.42,453.77Z"/><path class="cls-6" d="M440.79,459.69a3.4,3.4,0,1,0-4.71,1A3.39,3.39,0,0,0,440.79,459.69Z"/><path class="cls-6" d="M433.16,465.44a3.68,3.68,0,1,0-5.11,1.07A3.68,3.68,0,0,0,433.16,465.44Z"/><path class="cls-6" d="M424.87,470.58a3.47,3.47,0,1,0-4.8,1A3.48,3.48,0,0,0,424.87,470.58Z"/><path class="cls-6" d="M416.64,475.53a3.58,3.58,0,1,0-4.95,1A3.57,3.57,0,0,0,416.64,475.53Z"/><path class="cls-6" d="M408.15,480.09a3.62,3.62,0,1,0-5,1.05A3.61,3.61,0,0,0,408.15,480.09Z"/><path class="cls-6" d="M399.53,484.32a3.72,3.72,0,1,0-5.15,1.08A3.73,3.73,0,0,0,399.53,484.32Z"/><path class="cls-6" d="M390.65,488.11a3.72,3.72,0,1,0-5.15,1.08A3.71,3.71,0,0,0,390.65,488.11Z"/><path class="cls-6" d="M381.65,491.54a3.76,3.76,0,1,0-5.2,1.09A3.75,3.75,0,0,0,381.65,491.54Z"/><path class="cls-6" d="M372,494.27a3.22,3.22,0,1,0-4.46.93A3.21,3.21,0,0,0,372,494.27Z"/><path class="cls-6" d="M363,497a3.47,3.47,0,1,0-4.81,1A3.47,3.47,0,0,0,363,497Z"/><path class="cls-6" d="M353.71,499.36a3.66,3.66,0,1,0-5.06,1.06A3.65,3.65,0,0,0,353.71,499.36Z"/><path class="cls-6" d="M343.5,500.72a2.79,2.79,0,1,0-3.86.81A2.79,2.79,0,0,0,343.5,500.72Z"/><path class="cls-6" d="M334.52,502.51a3.47,3.47,0,1,0-4.8,1A3.48,3.48,0,0,0,334.52,502.51Z"/><path class="cls-6" d="M324.38,503.16a2.82,2.82,0,1,0-3.92.82A2.82,2.82,0,0,0,324.38,503.16Z"/><path class="cls-6" d="M314.74,503.76a2.83,2.83,0,1,0-3.91.82A2.81,2.81,0,0,0,314.74,503.76Z"/><path class="cls-6" d="M303.89,503.16a1.4,1.4,0,1,0-1.93.41A1.4,1.4,0,0,0,303.89,503.16Z"/><path class="cls-6" d="M294.87,503.34a2.15,2.15,0,1,0-3,.63A2.15,2.15,0,0,0,294.87,503.34Z"/><path class="cls-6" d="M284,501.88a.63.63,0,0,0-.18-.89.65.65,0,1,0,.18.89Z"/><path class="cls-6" d="M275,501.22a1.36,1.36,0,1,0-1.89.39A1.36,1.36,0,0,0,275,501.22Z"/><path class="cls-6" d="M264.32,499a0,0,0,0,0,0,0s0,0-.05,0,0,0,0,.05A0,0,0,0,0,264.32,499Z"/><path class="cls-6" d="M254.91,497.21a.11.11,0,1,0-.15,0A.11.11,0,0,0,254.91,497.21Z"/><path class="cls-6" d="M245.61,495a.21.21,0,0,0-.06-.3.21.21,0,0,0-.29.06.21.21,0,0,0,.06.3A.2.2,0,0,0,245.61,495Z"/><path class="cls-6" d="M236.54,492.46a.46.46,0,1,0-.64.14A.46.46,0,0,0,236.54,492.46Z"/><path class="cls-6" d="M537.24,312.07s0,0,0-.05,0,0-.05,0a0,0,0,0,0,0,.05A0,0,0,0,0,537.24,312.07Z"/><path class="cls-6" d="M533.57,331s0,0,0,0a.07.07,0,0,0-.06,0,0,0,0,0,0,0,0A0,0,0,0,0,533.57,331Z"/><path class="cls-6" d="M531.3,340.47a.21.21,0,0,0-.06-.3.22.22,0,0,0-.3.07.2.2,0,0,0,.06.29A.21.21,0,0,0,531.3,340.47Z"/><path class="cls-6" d="M517.8,376.59a.1.1,0,0,0,0-.15.11.11,0,1,0-.11.18A.1.1,0,0,0,517.8,376.59Z"/><path class="cls-6" d="M513.54,385.26a.1.1,0,0,0,0-.15.1.1,0,0,0-.15,0,.12.12,0,0,0,0,.15A.1.1,0,0,0,513.54,385.26Z"/><circle class="cls-6" cx="508.84" cy="393.68" r="0.36"/><path class="cls-6" d="M504.82,402.57a1.11,1.11,0,1,0-1.54.33A1.1,1.1,0,0,0,504.82,402.57Z"/><circle class="cls-6" cx="498.61" cy="410.05" r="1.11"/><path class="cls-6" d="M493.75,418.4a.9.9,0,1,0-1.24.26A.9.9,0,0,0,493.75,418.4Z"/><path class="cls-6" d="M487.82,426a.9.9,0,1,0-1.24.26A.9.9,0,0,0,487.82,426Z"/><path class="cls-6" d="M481.68,433.45a1,1,0,1,0-1.39.29A1,1,0,0,0,481.68,433.45Z"/><path class="cls-6" d="M475.39,440.73a1.29,1.29,0,1,0-1.79.37A1.29,1.29,0,0,0,475.39,440.73Z"/><path class="cls-6" d="M468.94,447.8a1.72,1.72,0,1,0-2.39.5A1.72,1.72,0,0,0,468.94,447.8Z"/><path class="cls-6" d="M461.37,454.05a1.15,1.15,0,1,0-1.59.33A1.15,1.15,0,0,0,461.37,454.05Z"/><circle class="cls-6" cx="453.06" cy="459.69" r="3.72"/><path class="cls-6" d="M447.83,467.19a2.82,2.82,0,1,0-3.91.82A2.82,2.82,0,0,0,447.83,467.19Z"/><path class="cls-6" d="M438.77,472a1.36,1.36,0,1,0-1.88.4A1.36,1.36,0,0,0,438.77,472Z"/><path class="cls-6" d="M432.78,478.71a3.83,3.83,0,1,0-5.3,1.1A3.84,3.84,0,0,0,432.78,478.71Z"/><path class="cls-6" d="M423.94,483.32a3.15,3.15,0,1,0-4.36.91A3.14,3.14,0,0,0,423.94,483.32Z"/><path class="cls-6" d="M413.71,486.81a1,1,0,1,0-1.44.3A1,1,0,0,0,413.71,486.81Z"/><path class="cls-6" d="M405.84,491.61a2,2,0,1,0-2.73.58A2,2,0,0,0,405.84,491.61Z"/><path class="cls-6" d="M395.77,494.73a.47.47,0,0,0-.13-.64.48.48,0,0,0-.65.13.47.47,0,0,0,.14.65A.46.46,0,0,0,395.77,494.73Z"/><path class="cls-6" d="M389.17,499.86a3.29,3.29,0,1,0-4.56.95A3.29,3.29,0,0,0,389.17,499.86Z"/><path class="cls-6" d="M378.89,502.3a1.9,1.9,0,1,0-2.63.55A1.89,1.89,0,0,0,378.89,502.3Z"/><path class="cls-6" d="M369.9,505.29a2.18,2.18,0,1,0-3,.64A2.18,2.18,0,0,0,369.9,505.29Z"/><path class="cls-6" d="M361.37,508.28a3.15,3.15,0,1,0-4.36.91A3.16,3.16,0,0,0,361.37,508.28Z"/><path class="cls-6" d="M350,509.08a.83.83,0,0,0-.24-1.14.82.82,0,0,0-1.14.23.83.83,0,0,0,.23,1.15A.84.84,0,0,0,350,509.08Z"/><path class="cls-6" d="M340,510.45a.26.26,0,0,0-.08-.35.25.25,0,0,0-.34.07.24.24,0,0,0,.07.35A.26.26,0,0,0,340,510.45Z"/><path class="cls-6" d="M331.28,512.29a1.26,1.26,0,0,0-.37-1.73,1.25,1.25,0,0,0-1.37,2.1A1.26,1.26,0,0,0,331.28,512.29Z"/><path class="cls-6" d="M320.65,512.54a.07.07,0,0,0,0-.06,0,0,0,0,0-.05,0,0,0,0,0,0,0,0S320.64,512.55,320.65,512.54Z"/><path class="cls-6" d="M311.24,513.2a.31.31,0,0,0-.09-.44.32.32,0,0,0-.45.09.33.33,0,0,0,.1.45A.32.32,0,0,0,311.24,513.2Z"/><path class="cls-6" d="M301.41,513.21a.11.11,0,0,0,0-.15.1.1,0,0,0-.15,0,.11.11,0,0,0,0,.15A.12.12,0,0,0,301.41,513.21Z"/><path class="cls-6" d="M291.76,512.93a.12.12,0,0,0,0-.15.11.11,0,1,0,0,.15Z"/><path class="cls-6" d="M262.92,509.71s0,0,0,0,0,0-.05,0a0,0,0,0,0,0,.05S262.91,509.73,262.92,509.71Z"/><path class="cls-6" d="M460.82,467.63a.31.31,0,0,0-.09-.44.32.32,0,0,0-.45.09.32.32,0,1,0,.54.35Z"/><path class="cls-6" d="M453.07,473.51a.11.11,0,0,0,0-.15.1.1,0,0,0-.15,0,.11.11,0,0,0,0,.15A.11.11,0,0,0,453.07,473.51Z"/><path class="cls-6" d="M445.21,479.16s0,0,0-.05,0,0-.05,0,0,0,0,.05S445.2,479.18,445.21,479.16Z"/><path class="cls-6" d="M437.38,484.66a.25.25,0,0,0-.08-.34.24.24,0,0,0-.34.07.25.25,0,0,0,.07.35A.26.26,0,0,0,437.38,484.66Z"/><path class="cls-6" d="M429.16,489.73a.26.26,0,0,0-.07-.35.26.26,0,0,0-.35.08.24.24,0,0,0,.07.34A.25.25,0,0,0,429.16,489.73Z"/><path class="cls-6" d="M420.56,494.35s0,0,0-.05a0,0,0,0,0-.05,0,0,0,0,0,0,.05,0Z"/><path class="cls-6" d="M412.13,498.86a.21.21,0,0,0-.36-.23.21.21,0,0,0,.06.3A.22.22,0,0,0,412.13,498.86Z"/><path class="cls-6" d="M403.28,502.88a.1.1,0,0,0,0-.15.11.11,0,1,0-.11.18A.1.1,0,0,0,403.28,502.88Z"/><path class="cls-6" d="M394.38,506.61a.11.11,0,0,0,0-.15.1.1,0,0,0-.14,0,.11.11,0,0,0,0,.15A.11.11,0,0,0,394.38,506.61Z"/><path class="cls-6" d="M385.33,510a.1.1,0,0,0,0-.14.1.1,0,0,0-.15,0,.1.1,0,0,0,0,.14A.1.1,0,0,0,385.33,510Z"/><path class="cls-6" d="M376.25,513.06a.2.2,0,0,0-.06-.29.21.21,0,0,0-.3.06.21.21,0,1,0,.36.23Z"/><path class="cls-6" d="M366.82,515.63a0,0,0,0,0,0,0s0,0-.05,0,0,0,0,0S366.81,515.65,366.82,515.63Z"/><path class="cls-6" d="M357.44,517.93s0,0,0,0,0,0-.05,0a0,0,0,0,0,0,.05A0,0,0,0,0,357.44,517.93Z"/><path class="cls-6" d="M348,519.86s0,0,0-.05,0,0-.05,0a0,0,0,0,0,0,0A0,0,0,0,0,348,519.86Z"/><path class="cls-6" d="M338.45,521.42s0,0,0,0,0,0-.05,0,0,0,0,0A0,0,0,0,0,338.45,521.42Z"/><path class="cls-6" d="M319.25,523.41s0,0,0,0,0,0-.05,0a0,0,0,0,0,0,0S319.24,523.43,319.25,523.41Z"/><path class="cls-6" d="M436.61,497.59a0,0,0,0,0,0,0,0,0,0,0,0-.06,0s0,0,0,.05S436.6,497.6,436.61,497.59Z"/><path class="cls-6" d="M428.25,502.42a0,0,0,0,0,0-.05s0,0-.05,0,0,0,0,.05A0,0,0,0,0,428.25,502.42Z"/><path class="cls-6" d="M419.71,506.94s0,0,0-.05,0,0-.05,0a.13.13,0,0,0,0,.05A0,0,0,0,0,419.71,506.94Z"/><path class="cls-6" d="M411,511.13a0,0,0,0,0,0-.05,0,0,0,0,0,0,0,0,0,0,0,0,0,.05A.06.06,0,0,0,411,511.13Z"/><path class="cls-6" d="M402.17,515s0,0,0,0a0,0,0,0,0-.05,0s0,0,0,0S402.15,515,402.17,515Z"/><path class="cls-6" d="M393.18,518.52s0,0,0,0h-.05s0,0,0,0S393.17,518.54,393.18,518.52Z"/><path class="cls-6" d="M384.07,521.72a0,0,0,0,0,0-.05s0,0-.05,0,0,0,0,.05S384.06,521.74,384.07,521.72Z"/><path class="cls-6" d="M346.62,531s0,0,0,0a0,0,0,0,0-.05,0s0,0,0,0A0,0,0,0,0,346.62,531Z"/><path class="cls-6" d="M337.07,532.47a0,0,0,0,0,0-.06,0,0,0,0,0-.05,0,0,0,0,0,0,0,.05A0,0,0,0,0,337.07,532.47Z"/><path class="cls-6" d="M327.48,533.55a0,0,0,1,0-.06,0s0,0,0,0S327.46,533.57,327.48,533.55Z"/><path class="cls-6" d="M435.91,510.46s0,0,0,0,0,0,0,0,0,0,0,.05A0,0,0,0,0,435.91,510.46Z"/><path class="cls-6" d="M382.92,533.46a.14.14,0,1,0-.19,0A.13.13,0,0,0,382.92,533.46Z"/><path class="cls-6" d="M345.25,542.15a0,0,0,0,0,0,0s0,0-.05,0a0,0,0,0,0,0,0S345.24,542.16,345.25,542.15Z"/><path class="cls-6" d="M335.68,543.48s0,0,0,0a0,0,0,0,0-.05,0,.06.06,0,0,0,0,.06A0,0,0,0,0,335.68,543.48Z"/><path class="cls-6" d="M399.92,539s0,0,0-.05a0,0,0,0,0-.05,0s0,0,0,.05A0,0,0,0,0,399.92,539Z"/><path class="cls-6" d="M390.8,542.15a0,0,0,0,0,0,0,0,0,0,0,0-.05,0s0,0,0,0S390.79,542.17,390.8,542.15Z"/><path class="cls-6" d="M315,556s0,0,0-.05,0,0,0,0,0,0,0,.05A0,0,0,0,0,315,556Z"/><path class="cls-6" d="M305.39,556.2s0,0,0-.05,0,0-.05,0,0,0,0,.05A0,0,0,0,0,305.39,556.2Z"/></g><path class="cls-7" d="M299.74,229.61h-2.42s-14.24-3.79-14.24-43.54c0-11.71-62.85-11.7-62.85.87,0,38.27-14.61,42.67-14.61,42.67h-2a3.12,3.12,0,0,0-3.16,3.12v1.59a3.14,3.14,0,0,0,3.16,3.15h96.09a3.44,3.44,0,0,0,3.5-3.15v-1.59A3.42,3.42,0,0,0,299.74,229.61Z"/><path class="cls-7" d="M363.19,30.76H139.8c-4.3,0-8.21,2.26-8.21,6.56V193.18c0,4.3,3.91,9.84,8.21,9.84H363.19c4.31,0,6.53-5.54,6.53-9.84V37.32C369.72,33,367.5,30.76,363.19,30.76Z"/><rect class="cls-8" x="143.07" y="43.45" width="215.17" height="123.3"/><path class="cls-7" d="M237.36,328.38H54.83v-117c0-2.44,2.4-3.83,4.84-3.83H233.74c2.43,0,3.62,1.39,3.62,3.83Z"/><rect class="cls-8" x="62.08" y="215.96" width="169.23" height="103.35"/><path class="cls-7" d="M260.93,333.21v-5.1c0-1.22-.63-1.54-1.85-1.54H35.43c-1.22,0-2.36.32-2.36,1.54v5.1h.15s5.51,4.24,8.82,4.24H252.47c3.3,0,8.81-4.24,8.81-4.24Z"/><path class="cls-9" d="M167.08,330.19H127.42c-3.3,0-3.3-3.62-3.3-3.62h46.27S170.39,330.19,167.08,330.19Z"/><path class="cls-7" d="M418.66,263.62c0,4.63-3.63,8.78-8.26,8.78H324a9,9,0,0,1-8.67-8.78V144A9,9,0,0,1,324,135.2H410.4c4.63,0,8.26,4.15,8.26,8.79Z"/><rect class="cls-8" x="323.77" y="145.48" width="86.43" height="105.17"/><path class="cls-7" d="M459.63,281.57c0,3.91-3.78,7.42-7.7,7.42H407a7.47,7.47,0,0,1-7.2-7.42v-97a7.48,7.48,0,0,1,7.2-7.43h44.93c3.92,0,7.7,3.51,7.7,7.43Z"/><path class="cls-7" d="M459.63,281.57c0,3.91-3.78,7.42-7.7,7.42H407a7.47,7.47,0,0,1-7.2-7.42v-97a7.48,7.48,0,0,1,7.2-7.43h44.93c3.92,0,7.7,3.51,7.7,7.43Z"/><rect class="cls-8" x="404.03" y="191.08" width="51.37" height="81.59"/><path class="cls-9" d="M433.76,280.66a4.3,4.3,0,1,1-4.3-4.29A4.3,4.3,0,0,1,433.76,280.66Z"/><rect class="cls-9" x="416.11" y="184.43" width="23.57" height="2.42" rx="1.12"/><path class="cls-7" d="M468.29,319.2a2,2,0,0,0-1.06-1.26c-4.58-2.48-16.43-8-40.21-14.07-32.21-8.21-48.81-8.09-49.68-8.08-.52-.36-10.33-7.23-42.54-15.44-23.77-6.06-39.52-7.58-46.14-8a7.89,7.89,0,0,0-5.68,2.08l-83.8,86.34a2.52,2.52,0,0,0-.86,2.36h0l1,3.5a2.44,2.44,0,0,0,1.91,1.55l.4.08.14,0,.23,0h.13l.81.07.27,0,.58.05.36,0,.56.05.38,0,.59.06.46,0,.33,0,.57.06.35,0,.64.07.3,0,.85.1.14,0,1,.12.29,0,.76.09.4.05.7.1.44.06.71.09.44.06.8.12.37.05,1.1.16.12,0,1.25.19.39.06.89.14.49.08.84.14.52.09.85.14.52.09.94.17.47.08,1.29.23.14,0,1.46.27.47.09,1,.2.58.11,1,.19.61.12,1,.2.61.13,1.07.22.54.12,1.57.34H235l1.67.37.55.12,1.15.26.66.16,1.08.25.69.16,1.11.27.68.16,1.22.3.59.15,1.83.46c31.07,7.92,42,15.06,42.54,15.44h1.69l.52,0h.21l.44,0h.27l.47,0,.3,0,.57,0h.28l.92.07h0l1,.08.34,0,.74.06.42,0,.76.08.44,0,1.13.11.17,0,1.24.14h.13l1.35.16.26,0,1.41.17.25,0,1.55.2h0l1.6.23.27,0,1.64.25.32,0,1.73.27.23,0,1.75.29.2,0,1.88.32.37.07,1.93.35.34.07c.69.12,1.38.26,2.09.4h0l2.14.43.36.07,2.14.44.43.1,2.24.48.27.06,2.25.51.27.06c.79.18,1.59.36,2.39.56l.46.1,2.43.59.42.11,2.61.65c21.06,5.37,33.12,10.56,38.7,13.34a3.5,3.5,0,0,0,.77.28,3.82,3.82,0,0,0,.69.12h.08a4.93,4.93,0,0,0,.55,0h.69l.26,0h.22l.24-.05h.11l.12,0,.24,0,.12,0,.1,0,.26-.07.13,0,.08,0,.31-.11.13,0,0,0,.52-.23h0l.14-.08.25-.13.18-.1.23-.15,0,0,.08-.06.34-.25.13-.1.39-.36L468.4,325l.05-.06.09-.11.15-.17.1-.14.12-.17s0,0,0,0l0-.06.14-.28a.21.21,0,0,0,0-.07s0,0,0-.05a1.72,1.72,0,0,0,.07-.21l0-.08v0a.86.86,0,0,0,0-.17.36.36,0,0,0,0-.1V323l0-.14s0-.08,0-.11l0-.05-1-3.5A.11.11,0,0,1,468.29,319.2Z"/><path class="cls-10" d="M424.68,306.07c23.1,5.89,34.62,11.26,39.07,13.67,1.37.74,1.45,2.17.19,3.47L382.51,407.1A7.47,7.47,0,0,1,376,409a3.19,3.19,0,0,1-.75-.27c-5.42-2.7-17.13-7.74-37.6-13-30.19-7.7-47.37-7.84-48.27-7.85-.56-.37-11.14-7.31-41.34-15-20.46-5.22-35.37-7-42.84-7.55a7.06,7.06,0,0,1-.88-.14c-2-.52-2.56-2.2-1-3.8l81.43-83.89a7.6,7.6,0,0,1,5.52-2c6.43.37,21.73,1.84,44.83,7.73,31.3,8,40.84,14.65,41.34,15C377.26,298.21,393.39,298.09,424.68,306.07Z"/><path class="cls-8" d="M334.72,285.74c30.26,7.72,39.53,14.12,40,14.45l-82.86,85.37c-.54-.35-10.82-7-40-14.46a255.53,255.53,0,0,0-41.39-7.35,5.36,5.36,0,0,1-.86-.13c-2-.5-2.49-2.11-1-3.63l77.53-79.86a7.19,7.19,0,0,1,5.29-1.91C297.61,278.59,312.38,280,334.72,285.74Z"/><path class="cls-8" d="M421.37,307.84c22.34,5.7,33.51,10.86,37.82,13.17,1.34.72,1.43,2.08.23,3.32L381.9,404.2a7.18,7.18,0,0,1-6.26,1.76,3.32,3.32,0,0,1-.73-.26c-5.25-2.6-16.61-7.44-36.4-12.49-29.2-7.45-45.76-7.64-46.63-7.65l82.86-85.37C375.56,300.19,391.11,300.12,421.37,307.84Z"/><line class="cls-11" x1="289.34" y1="388.12" x2="378.34" y2="297.12"/></g></g></svg>