<svg xmlns="http://www.w3.org/2000/svg" viewBox="0 0 852.13 791.2"><defs><style>.cls-1{fill:#f056b1;opacity:0.35;}.cls-1,.cls-2,.cls-3{isolation:isolate;}.cls-2,.cls-5{fill:#fff;}.cls-2{opacity:0.19;}.cls-3{fill:orange;opacity:0.24;}.cls-4{fill:#4d4d4d;}.cls-6{fill:#b3b3b3;}</style></defs><title>objects (2)</title><g id="Layer_2" data-name="Layer 2"><g id="objects"><g id="Layer_2-2" data-name="Layer 2"><circle id="Ellipse_2" data-name="Ellipse 2" class="cls-1" cx="501.23" cy="217.98" r="217.98"/><circle id="Ellipse_4" data-name="Ellipse 4" class="cls-2" cx="201.36" cy="353.27" r="201.36"/><circle id="Ellipse_3" data-name="Ellipse 3" class="cls-3" cx="564.13" cy="503.21" r="288"/></g><path class="cls-4" d="M489.94,383h-4s-23.55-6.27-23.55-72c0-19.37-104-19.36-104,1.44,0,63.32-24.16,70.59-24.16,70.59H331a5.17,5.17,0,0,0-5.24,5.17v2.63A5.2,5.2,0,0,0,331,396h159c2.91,0,5.78-2.3,5.78-5.2v-2.63C495.72,385.27,492.85,383,489.94,383Z"/><path class="cls-4" d="M594.93,54H225.32c-7.12,0-13.6,3.74-13.6,10.86V322.72c0,7.13,6.48,16.28,13.6,16.28H594.93c7.12,0,10.79-9.15,10.79-16.28V64.86C605.72,57.74,602.05,54,594.93,54Z"/><rect class="cls-5" x="230.72" y="75" width="356" height="204"/><path class="cls-4" d="M386.72,558h-302V364.33c0-4,4-6.33,8-6.33h288c4,0,6,2.3,6,6.33Z"/><rect class="cls-5" x="96.72" y="372" width="280" height="171"/><path class="cls-4" d="M425.72,566v-8.45c0-2-1-2.55-3.06-2.55h-370c-2,0-3.91.54-3.91,2.55V566H49s9.11,7,14.58,7H411.73c5.47,0,14.58-7,14.58-7Z"/><path class="cls-6" d="M270.46,561H204.83c-5.46,0-5.46-6-5.46-6h76.55S275.92,561,270.46,561Z"/><path class="cls-4" d="M729.72,457.47c0,7.67-6,14.53-13.67,14.53h-143c-7.66,0-14.34-6.86-14.34-14.53V259.53c0-7.67,6.68-14.53,14.34-14.53h143c7.66,0,13.67,6.86,13.67,14.53Z"/><rect class="cls-5" x="572.72" y="262" width="143" height="174"/><path class="cls-4" d="M585.72,594.71c0,6.48-6.25,12.29-12.74,12.29H498.64c-6.48,0-11.92-5.81-11.92-12.29V434.29c0-6.48,5.44-12.29,11.92-12.29H573c6.49,0,12.74,5.81,12.74,12.29Z"/><path class="cls-4" d="M585.72,594.71c0,6.48-6.25,12.29-12.74,12.29H498.64c-6.48,0-11.92-5.81-11.92-12.29V434.29c0-6.48,5.44-12.29,11.92-12.29H573c6.49,0,12.74,5.81,12.74,12.29Z"/><rect class="cls-5" x="493.72" y="445" width="85" height="135"/><path class="cls-6" d="M542.92,593.21a7.11,7.11,0,1,1-7.11-7.1A7.11,7.11,0,0,1,542.92,593.21Z"/><rect class="cls-6" x="513.72" y="434" width="39" height="4" rx="1.86"/></g></g></svg>