<svg xmlns="http://www.w3.org/2000/svg" viewBox="0 0 538.18 533.96"><defs><style>.cls-1,.cls-2,.cls-4,.cls-8{fill:#fff;}.cls-1,.cls-2,.cls-3,.cls-4,.cls-5{isolation:isolate;}.cls-2{opacity:0.31;}.cls-3,.cls-6{fill:#f056b1;}.cls-3{opacity:0.35;}.cls-4{opacity:0.19;}.cls-5{fill:orange;opacity:0.24;}.cls-7{fill:#4d4d4d;}.cls-9{fill:#b3b3b3;}</style></defs><title>objects (7)</title><g id="Layer_2" data-name="Layer 2"><g id="objects"><g id="Layer_3" data-name="Layer 3"><circle id="Ellipse_2" data-name="Ellipse 2" class="cls-1" cx="302.94" cy="131.75" r="131.75"/><circle id="Ellipse_4" data-name="Ellipse 4" class="cls-2" cx="121.7" cy="213.52" r="121.7"/><circle id="Ellipse_3" data-name="Ellipse 3" class="cls-1" cx="340.96" cy="304.14" r="174.07"/></g><g id="Layer_2-2" data-name="Layer 2"><circle id="Ellipse_2-2" data-name="Ellipse 2" class="cls-3" cx="303.56" cy="131.87" r="131.75"/><circle id="Ellipse_4-2" data-name="Ellipse 4" class="cls-4" cx="125.32" cy="211.64" r="121.7"/><circle id="Ellipse_3-2" data-name="Ellipse 3" class="cls-5" cx="339.58" cy="303.26" r="174.07"/></g><g id="Layer_4" data-name="Layer 4"><path class="cls-6" d="M356.92,358.52a0,0,0,1,0-.05,0Z"/><path class="cls-6" d="M321,361.77a.1.1,0,0,0,0-.14.09.09,0,0,0-.14,0,.11.11,0,0,0,0,.14A.1.1,0,0,0,321,361.77Z"/><path class="cls-6" d="M431.69,281s0,0,0-.05h-.05s0,0,0,.05Z"/><path class="cls-6" d="M430.42,289.93a0,0,0,0,0,0-.05h0s0,0,0,.05Z"/><path class="cls-6" d="M428.35,298.76a0,0,0,0,0,0,0s0,0-.05,0a0,0,0,0,0,0,.05A0,0,0,0,0,428.35,298.76Z"/><path class="cls-6" d="M425.49,307.38s0,0,0-.05,0,0-.05,0a0,0,0,0,0,0,.05S425.48,307.39,425.49,307.38Z"/><path class="cls-6" d="M421.94,315.77a.13.13,0,1,0-.17-.2.13.13,0,1,0,.17.2Z"/><path class="cls-6" d="M417.58,323.71a.11.11,0,1,0-.15,0A.12.12,0,0,0,417.58,323.71Z"/><path class="cls-6" d="M412.53,331.25a.1.1,0,1,0-.13-.15.1.1,0,0,0,0,.14A.11.11,0,0,0,412.53,331.25Z"/><circle class="cls-6" cx="406.77" cy="338.23" r="0.1" transform="translate(-122.16 347.98) rotate(-40.8)"/><path class="cls-6" d="M400.53,344.83a.11.11,0,0,0,0-.14.11.11,0,0,0-.15,0,.11.11,0,0,0,.14.16Z"/><path class="cls-6" d="M393.66,350.76a.11.11,0,0,0,0-.15.11.11,0,0,0-.14,0,.09.09,0,0,0,0,.14A.1.1,0,0,0,393.66,350.76Z"/><path class="cls-6" d="M386.29,356a.11.11,0,0,0,0-.14.11.11,0,0,0-.15,0,.1.1,0,0,0,.14.15Z"/><path class="cls-6" d="M378.47,360.65a.11.11,0,0,0,0-.15.1.1,0,1,0,0,.15Z"/><path class="cls-6" d="M370.28,364.54a.11.11,0,1,0-.15,0A.12.12,0,0,0,370.28,364.54Z"/><path class="cls-6" d="M361.83,367.75a.21.21,0,1,0-.29,0A.21.21,0,0,0,361.83,367.75Z"/><path class="cls-6" d="M353,370.06a.14.14,0,0,0-.18-.21.14.14,0,0,0,.18.21Z"/><path class="cls-6" d="M344.13,371.68a.2.2,0,0,0,0-.29.2.2,0,0,0-.28,0,.21.21,0,0,0,0,.29A.2.2,0,0,0,344.13,371.68Z"/><path class="cls-6" d="M335,372.36a.11.11,0,0,0,0-.14.1.1,0,0,0-.15,0,.11.11,0,0,0,0,.14A.11.11,0,0,0,335,372.36Z"/><path class="cls-6" d="M326,372.41a.25.25,0,0,0,0-.34.25.25,0,0,0-.33,0,.23.23,0,0,0,.3.36Z"/><path class="cls-6" d="M317,371.54a.24.24,0,0,0,0-.33.25.25,0,0,0-.34,0,.26.26,0,0,0,0,.34A.25.25,0,0,0,317,371.54Z"/><path class="cls-6" d="M308,369.76a.1.1,0,0,0,0-.14.11.11,0,0,0-.14,0,.09.09,0,0,0,0,.14C307.9,369.8,308,369.8,308,369.76Z"/><path class="cls-6" d="M299.37,367.4a.23.23,0,0,0,0-.33.24.24,0,0,0-.33,0,.25.25,0,0,0,0,.34A.24.24,0,0,0,299.37,367.4Z"/><path class="cls-6" d="M290.8,364.06a.1.1,0,0,0-.13-.15.11.11,0,0,0,0,.14A.1.1,0,0,0,290.8,364.06Z"/><path class="cls-6" d="M282.72,360.15a.2.2,0,0,0-.26-.31.21.21,0,0,0,0,.29A.2.2,0,0,0,282.72,360.15Z"/><path class="cls-6" d="M274.9,355.38a.11.11,0,0,0,0-.15.11.11,0,0,0-.14,0,.11.11,0,1,0,.14.16Z"/><path class="cls-6" d="M267.55,350a0,0,0,0,0,0-.05h-.05s0,0,0,0S267.53,350,267.55,350Z"/><path class="cls-6" d="M236.19,306.24a0,0,0,0,0,0-.05h-.05a0,0,0,0,0,0,.05Z"/><circle class="cls-6" cx="415.22" cy="198.59" r="0.03" transform="translate(-28.86 319.57) rotate(-40.8)"/><path class="cls-6" d="M420.88,205.72s0,0,0-.05h-.05s0,0,0,0S420.87,205.73,420.88,205.72Z"/><path class="cls-6" d="M425.93,213.26a0,0,0,0,0,0,0,0,0,0,0,0-.05,0,0,0,0,0,0,0,0S425.91,213.27,425.93,213.26Z"/><path class="cls-6" d="M430.34,221.19s0,0,0-.05a0,0,0,0,0,0,0s0,0,0,.05S430.33,221.2,430.34,221.19Z"/><path class="cls-6" d="M434.09,229.45s0,0,0,0a0,0,0,0,0-.05,0,0,0,0,0,0,0,.05S434.08,229.46,434.09,229.45Z"/><path class="cls-6" d="M437.16,238s0,0,0,0a0,0,0,0,0-.05,0,0,0,0,0,0,0,0A0,0,0,0,0,437.16,238Z"/><path class="cls-6" d="M439.52,246.74s0,0,0-.05h0s0,0,0,.05Z"/><path class="cls-6" d="M441.16,255.66a0,0,0,0,0,0,0s0,0-.05,0,0,0,0,0S441.15,255.68,441.16,255.66Z"/><path class="cls-6" d="M442.07,264.69a0,0,0,0,0,0-.05h0s0,0,0,.05Z"/><path class="cls-6" d="M442.35,273.89a.21.21,0,0,0,0-.29.21.21,0,0,0-.31.27A.21.21,0,0,0,442.35,273.89Z"/><path class="cls-6" d="M441.67,282.82a0,0,0,0,0,0-.05,0,0,0,0,0-.05,0,0,0,0,0,0,0,0S441.65,282.83,441.67,282.82Z"/><path class="cls-6" d="M440.42,291.87a.13.13,0,0,0,0-.19.14.14,0,1,0,0,.19Z"/><path class="cls-6" d="M438.43,300.76a.2.2,0,0,0-.26-.3.2.2,0,1,0,.26.3Z"/><path class="cls-6" d="M435.68,309.41a.2.2,0,0,0,0-.29.19.19,0,0,0-.28,0,.19.19,0,0,0,0,.28A.2.2,0,0,0,435.68,309.41Z"/><path class="cls-6" d="M432.19,317.75a.13.13,0,1,0-.19,0A.14.14,0,0,0,432.19,317.75Z"/><path class="cls-6" d="M428.21,326a.34.34,0,0,0,0-.48.34.34,0,0,0-.51.44A.34.34,0,0,0,428.21,326Z"/><path class="cls-6" d="M423.44,333.71a.34.34,0,1,0-.44-.51.34.34,0,0,0,0,.48A.33.33,0,0,0,423.44,333.71Z"/><circle class="cls-6" cx="417.85" cy="340.76" r="0.4"/><path class="cls-6" d="M412.09,347.83a.3.3,0,1,0-.39-.45.3.3,0,1,0,.39.45Z"/><path class="cls-6" d="M405.62,354.2a.33.33,0,0,0,0-.47.34.34,0,0,0-.48,0,.34.34,0,0,0,.44.51Z"/><circle class="cls-6" cx="398.41" cy="359.73" r="0.3" transform="translate(-138.24 347.75) rotate(-40.8)"/><path class="cls-6" d="M391.2,365.18a.34.34,0,0,0-.44-.51.35.35,0,0,0,0,.48A.34.34,0,0,0,391.2,365.18Z"/><path class="cls-6" d="M383.47,369.89a.51.51,0,1,0-.71-.06A.5.5,0,0,0,383.47,369.89Z"/><path class="cls-6" d="M375.36,373.88a.6.6,0,1,0-.86-.06A.61.61,0,0,0,375.36,373.88Z"/><path class="cls-6" d="M366.88,377.12a.59.59,0,0,0,.07-.85.61.61,0,0,0-.86-.06.6.6,0,0,0,.79.91Z"/><path class="cls-6" d="M358,379.46a.34.34,0,0,0-.44-.51.34.34,0,1,0,.44.51Z"/><path class="cls-6" d="M349.18,381.36a.44.44,0,0,0-.57-.67.44.44,0,0,0,.57.67Z"/><path class="cls-6" d="M340.15,382.42a.41.41,0,0,0,0-.57.4.4,0,1,0,0,.57Z"/><path class="cls-6" d="M331.08,382.77a.39.39,0,0,0,0-.56.4.4,0,1,0,0,.56Z"/><path class="cls-6" d="M322,382.41a.44.44,0,0,0,0-.61.43.43,0,0,0-.62-.05.45.45,0,0,0-.05.62A.44.44,0,0,0,322,382.41Z"/><path class="cls-6" d="M313,381.19a.3.3,0,1,0-.4-.46.3.3,0,0,0,.4.46Z"/><path class="cls-6" d="M304.07,379.33a.31.31,0,0,0,0-.43.32.32,0,0,0-.43,0,.31.31,0,0,0,0,.43A.3.3,0,0,0,304.07,379.33Z"/><path class="cls-6" d="M295.43,376.84a.41.41,0,0,0,.05-.57.4.4,0,0,0-.61.53A.41.41,0,0,0,295.43,376.84Z"/><path class="cls-6" d="M286.93,373.51a.33.33,0,0,0,0-.47.35.35,0,0,0-.48,0,.34.34,0,0,0,.44.51Z"/><path class="cls-6" d="M278.74,369.53a.29.29,0,0,0,0-.42.3.3,0,0,0-.43,0,.31.31,0,0,0,0,.42A.3.3,0,0,0,278.74,369.53Z"/><path class="cls-6" d="M270.88,364.88a.23.23,0,0,0,0-.33.24.24,0,0,0-.33,0,.23.23,0,0,0,0,.33A.24.24,0,0,0,270.88,364.88Z"/><path class="cls-6" d="M263.46,359.65a.23.23,0,0,0,0-.33.24.24,0,0,0-.33,0,.25.25,0,0,0,0,.34A.23.23,0,0,0,263.46,359.65Z"/><path class="cls-6" d="M256.48,353.81a.2.2,0,0,0,0-.28.22.22,0,0,0-.29,0,.2.2,0,0,0,0,.28A.2.2,0,0,0,256.48,353.81Z"/><path class="cls-6" d="M250,347.4a.14.14,0,0,0,0-.19.14.14,0,0,0-.21.18A.15.15,0,0,0,250,347.4Z"/><path class="cls-6" d="M244,340.51a.11.11,0,0,0,0-.14.11.11,0,0,0-.15,0,.12.12,0,0,0,0,.15A.11.11,0,0,0,244,340.51Z"/><path class="cls-6" d="M238.62,333.13s0,0,0-.05h0s0,0,0,0S238.61,333.14,238.62,333.13Z"/><path class="cls-6" d="M233.89,325.39a0,0,0,0,0,0-.05h0s0,0,0,.05Z"/><path class="cls-6" d="M229.8,317.29s0,0,0-.05h0s0,0,0,.05Z"/><path class="cls-6" d="M226.39,308.88a0,0,0,0,0,0,0s0,0,0,0a0,0,0,0,0,0,.05Z"/><path class="cls-6" d="M219.86,273.34a0,0,0,0,0,0,0,0,0,0,0,0,0,0,0,0,0,0,0,0,0S219.84,273.35,219.86,273.34Z"/><path class="cls-6" d="M402.31,185.9s0,0,0-.05h-.05a0,0,0,0,0,0,.05Z"/><path class="cls-6" d="M409,192a0,0,0,0,0,0,0s0,0-.05,0a0,0,0,0,0,0,.05Z"/><path class="cls-6" d="M428.56,199.09a0,0,0,0,0,0,0,0,0,0,0,0,0,0,0,0,0,0,0,0,.05S428.55,199.11,428.56,199.09Z"/><path class="cls-6" d="M433.68,206.58s0,0,0-.05h-.05s0,0,0,.05Z"/><path class="cls-6" d="M438.23,214.43s0,0,0-.05h0s0,0,0,.05Z"/><path class="cls-6" d="M442.18,222.6a0,0,0,0,0,0,0,0,0,0,0,0,0,0s0,0,0,0A0,0,0,0,0,442.18,222.6Z"/><path class="cls-6" d="M445.51,231a0,0,0,1,0-.05,0A0,0,0,0,0,445.51,231Z"/><path class="cls-6" d="M448.19,239.7a0,0,0,0,0,0,0s0,0-.05,0,0,0,0,0A0,0,0,0,0,448.19,239.7Z"/><path class="cls-6" d="M450.23,248.55a0,0,0,0,0,0-.05h-.05a0,0,0,0,0,0,.05Z"/><path class="cls-6" d="M451.64,257.57a.11.11,0,0,0,0-.14.1.1,0,0,0-.14,0,.1.1,0,0,0,0,.14A.11.11,0,0,0,451.64,257.57Z"/><path class="cls-6" d="M452.35,266.64a.13.13,0,1,0-.19,0A.14.14,0,0,0,452.35,266.64Z"/><path class="cls-6" d="M452.43,275.79a.23.23,0,0,0,0-.33.24.24,0,0,0-.33,0,.24.24,0,0,0,.31.36Z"/><path class="cls-6" d="M451.76,284.84a.23.23,0,1,0-.3-.36.25.25,0,0,0,0,.34A.25.25,0,0,0,451.76,284.84Z"/><path class="cls-6" d="M450.4,293.79a.2.2,0,0,0,0-.29.2.2,0,0,0-.28,0,.21.21,0,0,0,0,.29A.2.2,0,0,0,450.4,293.79Z"/><path class="cls-6" d="M448.4,302.64a.21.21,0,1,0-.27-.31.2.2,0,0,0,0,.28A.21.21,0,0,0,448.4,302.64Z"/><path class="cls-6" d="M446.06,311.69a.71.71,0,0,0,.08-1,.71.71,0,0,0-1.07.93A.7.7,0,0,0,446.06,311.69Z"/><path class="cls-6" d="M442.63,320a.5.5,0,0,0,.05-.71.51.51,0,0,0-.71-.06.52.52,0,0,0-.05.72A.51.51,0,0,0,442.63,320Z"/><path class="cls-6" d="M438.58,328a.31.31,0,0,0,0-.43.3.3,0,0,0-.43,0,.29.29,0,0,0,0,.42A.3.3,0,0,0,438.58,328Z"/><path class="cls-6" d="M434.14,336a.45.45,0,0,0,.05-.62.44.44,0,1,0-.05.62Z"/><path class="cls-6" d="M429.11,343.56a.55.55,0,0,0,.05-.76.54.54,0,1,0-.05.76Z"/><path class="cls-6" d="M423.46,350.66a.54.54,0,1,0-.7-.81.54.54,0,1,0,.7.81Z"/><path class="cls-6" d="M417.21,357.22a.4.4,0,0,0,0-.57.4.4,0,0,0-.61.53A.4.4,0,0,0,417.21,357.22Z"/><path class="cls-6" d="M410.57,363.4a.4.4,0,0,0,0-.57.42.42,0,0,0-.57,0,.4.4,0,1,0,.53.61Z"/><path class="cls-6" d="M403.62,369.22a.6.6,0,0,0,.06-.85.61.61,0,0,0-.86-.06.6.6,0,0,0-.06.85A.61.61,0,0,0,403.62,369.22Z"/><path class="cls-6" d="M396.06,374.27a.5.5,0,0,0,.05-.71.51.51,0,0,0-.71-.06.52.52,0,0,0,0,.72A.51.51,0,0,0,396.06,374.27Z"/><path class="cls-6" d="M388.3,378.92a.64.64,0,0,0-.84-1,.64.64,0,0,0-.06.9A.64.64,0,0,0,388.3,378.92Z"/><path class="cls-6" d="M380.28,383.05a.88.88,0,1,0-1.23-.09A.88.88,0,0,0,380.28,383.05Z"/><path class="cls-6" d="M371.82,386.35a.84.84,0,1,0-1.19-.09A.85.85,0,0,0,371.82,386.35Z"/><path class="cls-6" d="M363,388.86a.61.61,0,1,0-.85-.07A.59.59,0,0,0,363,388.86Z"/><path class="cls-6" d="M354.34,391.09a.88.88,0,1,0-1.24-.09A.88.88,0,0,0,354.34,391.09Z"/><circle class="cls-6" cx="344.79" cy="391.8" r="0.61"/><path class="cls-6" d="M336.23,393.05a.74.74,0,1,0-1-1.12.74.74,0,0,0,1,1.12Z"/><path class="cls-6" d="M327.09,393a.64.64,0,1,0-.83-1,.64.64,0,1,0,.83,1Z"/><path class="cls-6" d="M318,392.24a.54.54,0,1,0-.71-.81.55.55,0,0,0,0,.76A.54.54,0,0,0,318,392.24Z"/><path class="cls-6" d="M308.87,390.75a.33.33,0,0,0,0-.47.34.34,0,1,0-.51.44A.32.32,0,0,0,308.87,390.75Z"/><path class="cls-6" d="M300.07,388.8a.4.4,0,1,0-.57,0A.41.41,0,0,0,300.07,388.8Z"/><path class="cls-6" d="M291.35,386.09a.34.34,0,1,0-.47,0A.34.34,0,0,0,291.35,386.09Z"/><path class="cls-6" d="M282.9,382.79a.35.35,0,0,0,0-.48.34.34,0,0,0-.52.44A.35.35,0,0,0,282.9,382.79Z"/><path class="cls-6" d="M274.7,378.83a.3.3,0,0,0,0-.42.3.3,0,0,0-.43,0,.29.29,0,0,0,0,.42A.3.3,0,0,0,274.7,378.83Z"/><path class="cls-6" d="M266.86,374.33a.33.33,0,1,0-.48,0A.33.33,0,0,0,266.86,374.33Z"/><path class="cls-6" d="M259.35,369.23a.33.33,0,0,0,0-.47.34.34,0,1,0-.51.44A.32.32,0,0,0,259.35,369.23Z"/><path class="cls-6" d="M252.23,363.57a.31.31,0,0,0,0-.43.3.3,0,0,0-.46.39A.31.31,0,0,0,252.23,363.57Z"/><path class="cls-6" d="M245.57,357.4a.3.3,0,0,0,0-.42.3.3,0,1,0,0,.42Z"/><path class="cls-6" d="M239.32,350.69a.2.2,0,0,0,0-.29.2.2,0,0,0-.28,0,.19.19,0,0,0,0,.28A.2.2,0,0,0,239.32,350.69Z"/><path class="cls-6" d="M233.61,343.55a.13.13,0,0,0-.18-.2.13.13,0,0,0,0,.18A.13.13,0,0,0,233.61,343.55Z"/><path class="cls-6" d="M228.49,336.06a.14.14,0,0,0,0-.19.13.13,0,0,0-.19,0,.13.13,0,1,0,.18.2Z"/><path class="cls-6" d="M223.92,328.18a.11.11,0,0,0,0-.14.1.1,0,0,0-.14,0,.1.1,0,0,0,0,.14A.1.1,0,0,0,223.92,328.18Z"/><path class="cls-6" d="M219.92,320s0,0,0-.05a0,0,0,0,0-.05,0,0,0,0,0,0,0,0A0,0,0,0,0,219.92,320Z"/><path class="cls-6" d="M216.6,311.53a0,0,0,0,0,0,0s0,0,0,0a0,0,0,0,0,0,0A0,0,0,0,0,216.6,311.53Z"/><path class="cls-6" d="M213.91,302.86s0,0,0-.05h0s0,0,0,.05Z"/><path class="cls-6" d="M211.88,294a0,0,0,0,0,0,0s0,0,0,0a0,0,0,0,0,0,0S211.86,294,211.88,294Z"/><path class="cls-6" d="M210.51,285.05s0,0,0-.05,0,0-.05,0,0,0,0,0A0,0,0,0,0,210.51,285.05Z"/><path class="cls-6" d="M209.82,276a0,0,0,0,0,0-.05h0s0,0,0,.05Z"/><path class="cls-6" d="M209.81,266.93a0,0,0,0,0,0-.05,0,0,0,0,0-.05,0,0,0,0,0,0,0,.05Z"/><path class="cls-6" d="M210.47,257.88s0,0,0-.05h0s0,0,0,.05Z"/><path class="cls-6" d="M211.81,248.91s0,0,0,0a0,0,0,0,0,0,0s0,0,0,.05S211.8,248.92,211.81,248.91Z"/><path class="cls-6" d="M213.81,240.06s0,0,0-.05,0,0,0,0a0,0,0,0,0,0,0A0,0,0,0,0,213.81,240.06Z"/><path class="cls-6" d="M216.48,231.38a0,0,0,0,0,0,0,0,0,0,0,0,0,0s0,0,0,0A0,0,0,0,0,216.48,231.38Z"/><path class="cls-6" d="M223.7,214.75a0,0,0,0,0,0,0s0,0-.05,0a0,0,0,0,0,0,.05S223.69,214.77,223.7,214.75Z"/><path class="cls-6" d="M410.05,179.2a0,0,0,0,0,0,0s0,0-.05,0,0,0,0,0S410,179.22,410.05,179.2Z"/><path class="cls-6" d="M416.71,185.37s0,0,0-.05a0,0,0,0,0,0,0s0,0,0,.05S416.7,185.38,416.71,185.37Z"/><path class="cls-6" d="M430.55,185.4a0,0,0,0,0,0-.05h-.05a0,0,0,0,0,0,.05Z"/><path class="cls-6" d="M436.24,192.47a0,0,0,0,0,0-.05h-.05a0,0,0,0,0,0,.05Z"/><path class="cls-6" d="M441.42,199.91a0,0,0,0,0,0,0,0,0,0,0,0,0,0s0,0,0,0S441.41,199.93,441.42,199.91Z"/><path class="cls-6" d="M446.13,207.75a.11.11,0,0,0,0-.14.1.1,0,0,0-.15,0,.11.11,0,0,0,0,.14A.11.11,0,0,0,446.13,207.75Z"/><path class="cls-6" d="M450.24,215.84a.11.11,0,0,0,0-.14.09.09,0,0,0-.14,0,.1.1,0,0,0,0,.14A.11.11,0,0,0,450.24,215.84Z"/><path class="cls-6" d="M453.78,224.19a.09.09,0,0,0,0-.14.1.1,0,1,0,0,.14Z"/><path class="cls-6" d="M456.74,232.77a.12.12,0,0,0,0-.15.12.12,0,0,0-.15,0,.11.11,0,0,0,0,.15A.11.11,0,0,0,456.74,232.77Z"/><path class="cls-6" d="M459.06,241.48s0,0,0,0a0,0,0,0,0,0,0,0,0,0,0,0,0,0S459.05,241.49,459.06,241.48Z"/><path class="cls-6" d="M460.85,250.43a.1.1,0,0,0,0-.14.11.11,0,0,0-.15,0,.11.11,0,0,0,0,.14A.1.1,0,0,0,460.85,250.43Z"/><path class="cls-6" d="M462.05,259.51a.21.21,0,0,0,0-.29.21.21,0,0,0-.31.27A.2.2,0,0,0,462.05,259.51Z"/><path class="cls-6" d="M462.56,268.57a.2.2,0,0,0,0-.29.2.2,0,0,0-.28,0,.21.21,0,0,0,0,.29A.2.2,0,0,0,462.56,268.57Z"/><path class="cls-6" d="M462.47,277.66a.23.23,0,0,0,0-.33.24.24,0,0,0-.33,0,.23.23,0,0,0,.31.35Z"/><path class="cls-6" d="M461.7,286.68a.2.2,0,0,0,0-.28.2.2,0,0,0-.29,0,.2.2,0,1,0,.26.3Z"/><path class="cls-6" d="M460.49,295.83a.43.43,0,0,0,.05-.62.44.44,0,0,0-.62,0,.43.43,0,0,0,0,.61A.42.42,0,0,0,460.49,295.83Z"/><path class="cls-6" d="M458.65,304.84a.64.64,0,0,0,.06-.9.64.64,0,1,0-1,.83A.65.65,0,0,0,458.65,304.84Z"/><path class="cls-6" d="M456.37,313.89a1.11,1.11,0,1,0-1.57-.11A1.12,1.12,0,0,0,456.37,313.89Z"/><path class="cls-6" d="M453.19,322.39a1.12,1.12,0,0,0,.11-1.57,1.11,1.11,0,1,0-.11,1.57Z"/><path class="cls-6" d="M449.19,330.37a.74.74,0,1,0-1.05-.08A.75.75,0,0,0,449.19,330.37Z"/><path class="cls-6" d="M444.89,338.37a.77.77,0,0,0,.08-1.09.77.77,0,1,0-1.17,1A.77.77,0,0,0,444.89,338.37Z"/><path class="cls-6" d="M439.94,345.93a.64.64,0,1,0-.9-.07A.64.64,0,0,0,439.94,345.93Z"/><path class="cls-6" d="M434.43,353.09a.44.44,0,0,0,.05-.62.44.44,0,1,0-.05.62Z"/><path class="cls-6" d="M428.74,360.21a.71.71,0,1,0-1-.07A.72.72,0,0,0,428.74,360.21Z"/><path class="cls-6" d="M422.3,366.58a.54.54,0,1,0-.76-.05A.55.55,0,0,0,422.3,366.58Z"/><path class="cls-6" d="M415.53,372.63a.54.54,0,1,0-.76-.06A.54.54,0,0,0,415.53,372.63Z"/><path class="cls-6" d="M408.48,378.32a.72.72,0,0,0,.07-1,.71.71,0,0,0-1.07.93A.72.72,0,0,0,408.48,378.32Z"/><path class="cls-6" d="M401.05,383.5a.87.87,0,1,0-1.14-1.32.87.87,0,0,0-.09,1.23A.86.86,0,0,0,401.05,383.5Z"/><path class="cls-6" d="M393.1,387.93a.74.74,0,0,0,.08-1.05.74.74,0,1,0-.08,1.05Z"/><path class="cls-6" d="M385.23,392.23a1.18,1.18,0,1,0-1.66-.12A1.17,1.17,0,0,0,385.23,392.23Z"/><path class="cls-6" d="M377,395.84a1.45,1.45,0,0,0-1.89-2.19,1.45,1.45,0,0,0,1.89,2.19Z"/><path class="cls-6" d="M368.19,398.44a1.18,1.18,0,1,0-1.66-.12A1.18,1.18,0,0,0,368.19,398.44Z"/><path class="cls-6" d="M359.39,400.65a1.18,1.18,0,1,0-1.66-.12A1.17,1.17,0,0,0,359.39,400.65Z"/><path class="cls-6" d="M350.55,402.35a1.31,1.31,0,1,0-1.85-.13A1.31,1.31,0,0,0,350.55,402.35Z"/><path class="cls-6" d="M341.73,403.56a1.62,1.62,0,1,0-2.28-.17A1.61,1.61,0,0,0,341.73,403.56Z"/><path class="cls-6" d="M332.17,403.35a.87.87,0,1,0-1.23-.09A.86.86,0,0,0,332.17,403.35Z"/><path class="cls-6" d="M323.11,403.08a.88.88,0,1,0-1.24-.09A.89.89,0,0,0,323.11,403.08Z"/><path class="cls-6" d="M314,402.05a.71.71,0,0,0,.07-1A.71.71,0,0,0,313,402,.71.71,0,0,0,314,402.05Z"/><path class="cls-6" d="M305,400.48a.63.63,0,0,0,.06-.9.63.63,0,0,0-.9-.07.66.66,0,0,0-.06.91A.64.64,0,0,0,305,400.48Z"/><path class="cls-6" d="M296.16,398.35a.64.64,0,0,0,.07-.9.64.64,0,1,0-1,.83A.64.64,0,0,0,296.16,398.35Z"/><path class="cls-6" d="M287.57,395.69a.74.74,0,1,0-1-.08A.74.74,0,0,0,287.57,395.69Z"/><path class="cls-6" d="M279,392.18a.5.5,0,0,0,0-.71.5.5,0,1,0-.76.66A.5.5,0,0,0,279,392.18Z"/><path class="cls-6" d="M270.68,388.16a.34.34,0,0,0-.44-.51.32.32,0,0,0,0,.47A.33.33,0,0,0,270.68,388.16Z"/><path class="cls-6" d="M262.82,383.75a.4.4,0,1,0-.57,0A.4.4,0,0,0,262.82,383.75Z"/><path class="cls-6" d="M255.24,378.76a.41.41,0,0,0,0-.57.4.4,0,0,0-.57,0,.4.4,0,1,0,.52.61Z"/><path class="cls-6" d="M248,373.26a.4.4,0,0,0,0-.57.4.4,0,1,0,0,.57Z"/><path class="cls-6" d="M241.17,367.22a.34.34,0,0,0,0-.48.34.34,0,0,0-.51.44A.35.35,0,0,0,241.17,367.22Z"/><path class="cls-6" d="M234.69,360.67a.2.2,0,0,0,0-.28.2.2,0,0,0-.31.26A.2.2,0,0,0,234.69,360.67Z"/><path class="cls-6" d="M228.83,353.88a.3.3,0,0,0,0-.43.3.3,0,1,0-.46.4A.3.3,0,0,0,228.83,353.88Z"/><path class="cls-6" d="M223.39,346.62a.3.3,0,0,0,0-.42.3.3,0,0,0-.43,0,.31.31,0,0,0,0,.43A.3.3,0,0,0,223.39,346.62Z"/><path class="cls-6" d="M218.35,338.87a.13.13,0,0,0,0-.19.14.14,0,0,0-.19,0,.13.13,0,1,0,.17.2Z"/><path class="cls-6" d="M214,331a.2.2,0,0,0,0-.28.21.21,0,0,0-.29,0,.2.2,0,0,0,0,.28A.2.2,0,0,0,214,331Z"/><path class="cls-6" d="M210.13,322.71a.14.14,0,0,0,0-.19.14.14,0,0,0-.21.18A.14.14,0,0,0,210.13,322.71Z"/><path class="cls-6" d="M206.81,314.16s0,0,0,0a0,0,0,0,0,0,0s0,0,0,.05S206.8,314.18,206.81,314.16Z"/><path class="cls-6" d="M204.15,305.49a0,0,0,0,0,0-.05h-.05a0,0,0,0,0,0,0S204.13,305.5,204.15,305.49Z"/><path class="cls-6" d="M202.14,296.7a.1.1,0,0,0-.14-.15.11.11,0,0,0,0,.14A.1.1,0,0,0,202.14,296.7Z"/><path class="cls-6" d="M200.69,287.75a.11.11,0,0,0,0-.15.11.11,0,0,0-.14,0,.11.11,0,0,0,0,.15A.11.11,0,0,0,200.69,287.75Z"/><path class="cls-6" d="M199.89,278.74a.13.13,0,0,0,0-.19.12.12,0,0,0-.18,0,.14.14,0,0,0,.17.21Z"/><path class="cls-6" d="M199.67,269.64a.09.09,0,0,0,0-.14.1.1,0,0,0-.14,0,.11.11,0,0,0,0,.14A.1.1,0,0,0,199.67,269.64Z"/><path class="cls-6" d="M200.1,260.57c.05,0,.05-.09,0-.14a.11.11,0,0,0-.14,0,.12.12,0,0,0,0,.15A.1.1,0,0,0,200.1,260.57Z"/><path class="cls-6" d="M201.16,251.57a.12.12,0,0,0,0-.15.11.11,0,0,0-.14,0,.09.09,0,0,0,0,.14A.1.1,0,0,0,201.16,251.57Z"/><path class="cls-6" d="M202.79,242.6a0,0,0,0,0,0,0s0,0,0,0a0,0,0,0,0,0,0S202.77,242.61,202.79,242.6Z"/><path class="cls-6" d="M205.07,233.82s0,0,0,0,0,0-.05,0,0,0,0,.05S205.06,233.83,205.07,233.82Z"/><path class="cls-6" d="M208,225.21a0,0,0,0,0,0,0s0,0-.05,0a0,0,0,0,0,0,.05A0,0,0,0,0,208,225.21Z"/><path class="cls-6" d="M211.43,216.83a0,0,0,0,0,0-.05h-.05a0,0,0,0,0,0,.05Z"/><path class="cls-6" d="M403.36,161.53a0,0,0,0,0,0-.05s0,0-.05,0a0,0,0,0,0,0,0S403.34,161.54,403.36,161.53Z"/><path class="cls-6" d="M410.76,166.78a0,0,0,0,0,0-.05s0,0-.05,0a0,0,0,0,0,0,.05S410.74,166.79,410.76,166.78Z"/><path class="cls-6" d="M417.78,172.52a0,0,0,0,0,0,0,0,0,0,0,0,0,0,0,0,0,0,0,0,.05A0,0,0,0,0,417.78,172.52Z"/><path class="cls-6" d="M424.39,178.74a0,0,0,0,0,0,0,0,0,0,0,0-.05,0,0,0,0,0,0,0,.05A0,0,0,0,0,424.39,178.74Z"/><path class="cls-6" d="M438.24,178.85a.11.11,0,0,0,0-.15.12.12,0,0,0-.15,0,.11.11,0,0,0,0,.14A.1.1,0,0,0,438.24,178.85Z"/><path class="cls-6" d="M444,185.9a.1.1,0,1,0-.14,0A.1.1,0,0,0,444,185.9Z"/><circle class="cls-6" cx="449.13" cy="193.23" r="0.1" transform="translate(-17.12 340.42) rotate(-40.8)"/><path class="cls-6" d="M454,201.06a.13.13,0,1,0-.18-.2.13.13,0,0,0,0,.18A.13.13,0,0,0,454,201.06Z"/><path class="cls-6" d="M458.22,209.08a.14.14,0,0,0,0-.19.14.14,0,0,0-.21.17A.14.14,0,0,0,458.22,209.08Z"/><path class="cls-6" d="M462.06,217.47a.29.29,0,0,0,0-.42.3.3,0,0,0-.43,0,.3.3,0,0,0,0,.42A.3.3,0,0,0,462.06,217.47Z"/><path class="cls-6" d="M465.32,226a.4.4,0,0,0,0-.57.42.42,0,0,0-.57,0,.4.4,0,0,0,.53.61Z"/><path class="cls-6" d="M467.76,234.5a.11.11,0,0,0,0-.15.11.11,0,0,0-.14,0,.1.1,0,0,0,0,.14A.1.1,0,0,0,467.76,234.5Z"/><path class="cls-6" d="M469.84,243.33a.11.11,0,0,0,0-.15.11.11,0,0,0-.14,0,.11.11,0,0,0,0,.15A.11.11,0,0,0,469.84,243.33Z"/><path class="cls-6" d="M471.42,252.35a.2.2,0,0,0,0-.28.21.21,0,0,0-.29,0,.21.21,0,1,0,.27.31Z"/><path class="cls-6" d="M472.3,261.32a.13.13,0,0,0,0-.19.14.14,0,0,0-.19,0,.13.13,0,0,0,0,.19A.12.12,0,0,0,472.3,261.32Z"/><path class="cls-6" d="M472.7,270.44a.2.2,0,1,0-.28,0A.2.2,0,0,0,472.7,270.44Z"/><path class="cls-6" d="M472.63,279.69a.44.44,0,1,0-.58-.66.44.44,0,0,0,.58.66Z"/><path class="cls-6" d="M471.93,288.85a.6.6,0,1,0-.86-.06A.6.6,0,0,0,471.93,288.85Z"/><path class="cls-6" d="M470.43,297.69a.44.44,0,1,0-.57-.66.45.45,0,0,0-.05.62A.44.44,0,0,0,470.43,297.69Z"/><path class="cls-6" d="M468.65,306.76a.71.71,0,1,0-.93-1.07.71.71,0,0,0,.93,1.07Z"/><circle class="cls-6" cx="465.66" cy="314.94" r="0.97"/><path class="cls-6" d="M463.47,324.49a1.34,1.34,0,1,0-1.9-.14A1.34,1.34,0,0,0,463.47,324.49Z"/><path class="cls-6" d="M459.61,332.54a1,1,0,0,0-1.28-1.48,1,1,0,1,0,1.28,1.48Z"/><path class="cls-6" d="M455.78,341a1.44,1.44,0,1,0-2-.14A1.44,1.44,0,0,0,455.78,341Z"/><path class="cls-6" d="M451.13,348.76a1.45,1.45,0,1,0-2.05-.15A1.46,1.46,0,0,0,451.13,348.76Z"/><path class="cls-6" d="M445.61,355.8a.86.86,0,0,0,.09-1.23.87.87,0,1,0-.09,1.23Z"/><path class="cls-6" d="M440.05,363a.94.94,0,1,0-1.33-.09A.95.95,0,0,0,440.05,363Z"/><path class="cls-6" d="M434.1,369.87a1.11,1.11,0,1,0-1.56-.12A1.1,1.1,0,0,0,434.1,369.87Z"/><path class="cls-6" d="M427.41,376a.77.77,0,1,0-1-1.17.77.77,0,0,0-.08,1.09A.77.77,0,0,0,427.41,376Z"/><path class="cls-6" d="M420.74,382.13a1.08,1.08,0,1,0-1.52-.11A1.08,1.08,0,0,0,420.74,382.13Z"/><path class="cls-6" d="M413.59,387.71a1.21,1.21,0,1,0-1.7-.13A1.21,1.21,0,0,0,413.59,387.71Z"/><path class="cls-6" d="M406,392.71a1.21,1.21,0,1,0-1.58-1.83,1.21,1.21,0,0,0,1.58,1.83Z"/><path class="cls-6" d="M398.19,397.27a1.28,1.28,0,1,0-1.8-.14A1.28,1.28,0,0,0,398.19,397.27Z"/><path class="cls-6" d="M390.31,401.56a1.68,1.68,0,1,0-2.38-.17A1.68,1.68,0,0,0,390.31,401.56Z"/><path class="cls-6" d="M382.07,405.21a1.92,1.92,0,1,0-2.7-.2A1.92,1.92,0,0,0,382.07,405.21Z"/><path class="cls-6" d="M373.26,407.87a1.58,1.58,0,1,0-2.23-.17A1.58,1.58,0,0,0,373.26,407.87Z"/><path class="cls-6" d="M365,410.79a2.33,2.33,0,1,0-3.28-.24A2.32,2.32,0,0,0,365,410.79Z"/><path class="cls-6" d="M355.89,412.36a2,2,0,1,0-2.84-.21A2,2,0,0,0,355.89,412.36Z"/><path class="cls-6" d="M347,413.65a2.12,2.12,0,1,0-3-.22A2.12,2.12,0,0,0,347,413.65Z"/><path class="cls-6" d="M337.74,414.09a1.85,1.85,0,1,0-2.61-.19A1.84,1.84,0,0,0,337.74,414.09Z"/><path class="cls-6" d="M328.73,414.23A1.95,1.95,0,1,0,326,414,1.95,1.95,0,0,0,328.73,414.23Z"/><path class="cls-6" d="M319.24,413.2a1.28,1.28,0,1,0-1.81-.13A1.28,1.28,0,0,0,319.24,413.2Z"/><path class="cls-6" d="M310.1,412a1.08,1.08,0,1,0-1.52-.11A1.08,1.08,0,0,0,310.1,412Z"/><path class="cls-6" d="M301.18,410.28a1.08,1.08,0,1,0-1.51-.11A1.06,1.06,0,0,0,301.18,410.28Z"/><path class="cls-6" d="M292.3,407.94a.94.94,0,1,0-1.33-.1A.94.94,0,0,0,292.3,407.94Z"/><path class="cls-6" d="M283.54,405a.74.74,0,1,0-1-.07A.74.74,0,0,0,283.54,405Z"/><path class="cls-6" d="M275.17,401.71a.84.84,0,1,0-1.1-1.27.85.85,0,0,0-.09,1.19A.84.84,0,0,0,275.17,401.71Z"/><path class="cls-6" d="M267,397.83a.85.85,0,0,0,.09-1.19.84.84,0,1,0-.09,1.19Z"/><path class="cls-6" d="M259.06,393.46a.88.88,0,1,0-1.24-.09A.89.89,0,0,0,259.06,393.46Z"/><path class="cls-6" d="M251.26,388.38a.64.64,0,1,0-.83-1,.64.64,0,1,0,.83,1Z"/><circle class="cls-6" cx="243.54" cy="382.52" r="0.61"/><path class="cls-6" d="M237.05,377.22a.69.69,0,0,0,.07-1,.7.7,0,1,0-1.06.92A.7.7,0,0,0,237.05,377.22Z"/><path class="cls-6" d="M230.38,370.83a.54.54,0,1,0-.76-.06A.55.55,0,0,0,230.38,370.83Z"/><path class="cls-6" d="M224.21,364.13a.51.51,0,0,0-.66-.77.51.51,0,0,0,.66.77Z"/><path class="cls-6" d="M218.46,357a.43.43,0,0,0,0-.62.44.44,0,0,0-.66.58A.43.43,0,0,0,218.46,357Z"/><path class="cls-6" d="M213.22,349.62a.44.44,0,0,0,0-.62.43.43,0,0,0-.61-.05.44.44,0,0,0-.05.62A.45.45,0,0,0,213.22,349.62Z"/><path class="cls-6" d="M208.4,341.81a.34.34,0,0,0-.44-.51.34.34,0,1,0,.44.51Z"/><path class="cls-6" d="M204.06,333.7a.21.21,0,1,0-.27-.31.2.2,0,0,0,0,.28A.21.21,0,0,0,204.06,333.7Z"/><circle class="cls-6" cx="200.2" cy="325.27" r="0.34"/><path class="cls-6" d="M197.09,316.88a.13.13,0,0,0,0-.19.13.13,0,0,0-.19,0,.13.13,0,0,0,0,.18A.13.13,0,0,0,197.09,316.88Z"/><path class="cls-6" d="M194.5,308.25a.21.21,0,1,0-.29,0A.21.21,0,0,0,194.5,308.25Z"/><path class="cls-6" d="M192.35,299.34a.1.1,0,1,0-.14,0A.1.1,0,0,0,192.35,299.34Z"/><path class="cls-6" d="M190.91,290.47a.21.21,0,1,0-.29,0A.21.21,0,0,0,190.91,290.47Z"/><path class="cls-6" d="M189.93,281.39a.13.13,0,0,0,0-.19.13.13,0,0,0-.18,0,.13.13,0,1,0,.17.2Z"/><path class="cls-6" d="M189.56,272.3a.11.11,0,0,0,0-.14.11.11,0,0,0-.15,0,.11.11,0,0,0,0,.14A.11.11,0,0,0,189.56,272.3Z"/><path class="cls-6" d="M189.79,263.23a.11.11,0,0,0,0-.14.1.1,0,0,0-.15,0,.1.1,0,0,0,0,.14A.11.11,0,0,0,189.79,263.23Z"/><path class="cls-6" d="M190.55,254.14s0,0,0,0,0,0-.05,0,0,0,0,0A0,0,0,0,0,190.55,254.14Z"/><path class="cls-6" d="M418.54,160s0,0,0-.05,0,0-.05,0,0,0,0,0A0,0,0,0,0,418.54,160Z"/><path class="cls-6" d="M425.49,165.85s0,0,0,0a0,0,0,0,0-.05,0,0,0,0,0,0,0,0A0,0,0,0,0,425.49,165.85Z"/><path class="cls-6" d="M432.05,172.12s0,0,0-.05H432a0,0,0,0,0,0,.05Z"/><path class="cls-6" d="M445.9,172.24a.11.11,0,0,0,0-.14.11.11,0,0,0-.15,0,.1.1,0,0,0,.14.15Z"/><path class="cls-6" d="M451.75,179.44a.3.3,0,1,0-.4-.46.3.3,0,1,0,.4.46Z"/><path class="cls-6" d="M457,186.76a.25.25,0,0,0,0-.33.23.23,0,1,0-.36.3A.25.25,0,0,0,457,186.76Z"/><path class="cls-6" d="M461.83,194.43a.24.24,0,0,0,0-.33.23.23,0,0,0-.33,0,.24.24,0,0,0,0,.33A.23.23,0,0,0,461.83,194.43Z"/><path class="cls-6" d="M466.18,202.36a.21.21,0,0,0,0-.29.21.21,0,0,0-.31.27A.2.2,0,0,0,466.18,202.36Z"/><path class="cls-6" d="M470.36,210.89a.64.64,0,0,0,.06-.9.63.63,0,1,0-.06.9Z"/><path class="cls-6" d="M474.05,219.66a1.1,1.1,0,0,0,.12-1.56,1.11,1.11,0,1,0-.12,1.56Z"/><path class="cls-6" d="M476.48,227.73a.42.42,0,0,0,0-.57.4.4,0,0,0-.57,0,.4.4,0,1,0,.53.61Z"/><path class="cls-6" d="M479.14,236.85a.88.88,0,0,0-1.14-1.33.88.88,0,0,0,1.14,1.33Z"/><path class="cls-6" d="M480.87,245.61a.72.72,0,0,0,.07-1,.71.71,0,1,0-.07,1Z"/><path class="cls-6" d="M481.9,254.28a.3.3,0,0,0,0-.43.3.3,0,1,0-.45.4A.29.29,0,0,0,481.9,254.28Z"/><path class="cls-6" d="M482.82,263.5a.54.54,0,1,0-.71-.81.54.54,0,0,0,.71.81Z"/><path class="cls-6" d="M483,272.55a.52.52,0,0,0,.05-.72.5.5,0,1,0-.05.72Z"/><path class="cls-6" d="M482.69,281.61a.5.5,0,1,0-.66-.76.5.5,0,0,0-.06.71A.51.51,0,0,0,482.69,281.61Z"/><path class="cls-6" d="M482,290.9a.85.85,0,0,0,.09-1.19.84.84,0,0,0-1.28,1.1A.85.85,0,0,0,482,290.9Z"/><path class="cls-6" d="M480.7,299.94a1,1,0,0,0,.09-1.33.94.94,0,1,0-.09,1.33Z"/><path class="cls-6" d="M479,309.06a1.28,1.28,0,0,0,.13-1.8,1.28,1.28,0,1,0-1.93,1.67A1.28,1.28,0,0,0,479,309.06Z"/><path class="cls-6" d="M476.51,317.79a1.28,1.28,0,1,0-1.8-.13A1.27,1.27,0,0,0,476.51,317.79Z"/><path class="cls-6" d="M474,326.84a1.92,1.92,0,0,0-2.51-2.9,1.92,1.92,0,1,0,2.51,2.9Z"/><circle class="cls-6" cx="469.2" cy="333.77" r="1.72"/><path class="cls-6" d="M466.16,343a1.45,1.45,0,1,0-2-.15A1.45,1.45,0,0,0,466.16,343Z"/><path class="cls-6" d="M461.7,350.91a1.45,1.45,0,1,0-1.89-2.19,1.45,1.45,0,1,0,1.89,2.19Z"/><path class="cls-6" d="M456.76,358.53a1.43,1.43,0,0,0,.15-2,1.45,1.45,0,1,0-.15,2Z"/><path class="cls-6" d="M451.21,365.64a1.18,1.18,0,1,0-1.66-.13A1.18,1.18,0,0,0,451.21,365.64Z"/><path class="cls-6" d="M445.36,372.56a1.11,1.11,0,1,0-1.56-.12A1.1,1.1,0,0,0,445.36,372.56Z"/><path class="cls-6" d="M439.22,379.25a1.21,1.21,0,1,0-1.71-.13A1.22,1.22,0,0,0,439.22,379.25Z"/><path class="cls-6" d="M432.71,385.58a1.35,1.35,0,1,0-1.9-.14A1.35,1.35,0,0,0,432.71,385.58Z"/><path class="cls-6" d="M426,391.69a1.72,1.72,0,1,0-2.41-.18A1.71,1.71,0,0,0,426,391.69Z"/><path class="cls-6" d="M418.7,397.09a1.72,1.72,0,1,0-2.42-.18A1.71,1.71,0,0,0,418.7,397.09Z"/><path class="cls-6" d="M411.21,402.17a1.89,1.89,0,1,0-2.66-.2A1.88,1.88,0,0,0,411.21,402.17Z"/><path class="cls-6" d="M403.46,406.81a2.09,2.09,0,1,0-2.95-.22A2.09,2.09,0,0,0,403.46,406.81Z"/><path class="cls-6" d="M395.32,410.82a2.09,2.09,0,1,0-2.94-.22A2.08,2.08,0,0,0,395.32,410.82Z"/><path class="cls-6" d="M387.13,414.54a2.36,2.36,0,1,0-3.32-.24A2.36,2.36,0,0,0,387.13,414.54Z"/><path class="cls-6" d="M378.5,417.47a2.25,2.25,0,1,0-3.18-.23A2.26,2.26,0,0,0,378.5,417.47Z"/><path class="cls-6" d="M370,420.24a2.62,2.62,0,1,0-3.7-.27A2.62,2.62,0,0,0,370,420.24Z"/><path class="cls-6" d="M361,422a2.35,2.35,0,1,0-3.32-.25A2.35,2.35,0,0,0,361,422Z"/><path class="cls-6" d="M352.11,423.54a2.49,2.49,0,1,0-3.51-.26A2.48,2.48,0,0,0,352.11,423.54Z"/><circle class="cls-6" cx="341.46" cy="422.55" r="2.25"/><path class="cls-6" d="M334.17,425a2.73,2.73,0,1,0-3.84-.28A2.74,2.74,0,0,0,334.17,425Z"/><path class="cls-6" d="M325,424.6a2.49,2.49,0,1,0-3.52-.26A2.49,2.49,0,0,0,325,424.6Z"/><path class="cls-6" d="M315.9,423.87a2.49,2.49,0,1,0-3.51-.26A2.49,2.49,0,0,0,315.9,423.87Z"/><path class="cls-6" d="M306.46,422.06a1.78,1.78,0,1,0-2.52-.18A1.79,1.79,0,0,0,306.46,422.06Z"/><path class="cls-6" d="M297.34,420a1.45,1.45,0,1,0-2-.15A1.44,1.44,0,0,0,297.34,420Z"/><circle class="cls-6" cx="287.63" cy="416.57" r="1.55" transform="translate(-202.3 289.17) rotate(-40.8)"/><path class="cls-6" d="M280,414.89a1.55,1.55,0,1,0-2.18-.16A1.55,1.55,0,0,0,280,414.89Z"/><path class="cls-6" d="M271.45,411.34a1.31,1.31,0,1,0-1.85-.13A1.31,1.31,0,0,0,271.45,411.34Z"/><path class="cls-6" d="M263.09,407.3a1.08,1.08,0,1,0-1.52-.11A1.09,1.09,0,0,0,263.09,407.3Z"/><path class="cls-6" d="M255,402.8a.88.88,0,1,0-1.23-.09A.87.87,0,0,0,255,402.8Z"/><path class="cls-6" d="M247.43,398.14a1.08,1.08,0,1,0-1.52-.12A1.08,1.08,0,0,0,247.43,398.14Z"/><path class="cls-6" d="M239.8,392.59a.71.71,0,0,0-.92-1.07.69.69,0,0,0-.07,1A.7.7,0,0,0,239.8,392.59Z"/><path class="cls-6" d="M232.74,386.89a.71.71,0,1,0-.92-1.07.7.7,0,0,0-.08,1A.71.71,0,0,0,232.74,386.89Z"/><path class="cls-6" d="M226.06,380.8a.73.73,0,0,0,.07-1,.74.74,0,1,0-.07,1Z"/><path class="cls-6" d="M219.71,374.28a.72.72,0,0,0,.07-1,.71.71,0,0,0-1-.08.72.72,0,0,0-.07,1A.71.71,0,0,0,219.71,374.28Z"/><path class="cls-6" d="M213.73,367.36a.64.64,0,1,0-.83-1,.64.64,0,0,0,.83,1Z"/><path class="cls-6" d="M208.14,360a.5.5,0,1,0-.66-.76.5.5,0,1,0,.66.76Z"/><path class="cls-6" d="M203.09,352.54a.54.54,0,1,0-.7-.81.53.53,0,0,0,0,.75A.52.52,0,0,0,203.09,352.54Z"/><path class="cls-6" d="M198.47,344.7a.51.51,0,0,0-.66-.77.51.51,0,1,0,.66.77Z"/><path class="cls-6" d="M194.33,336.62a.5.5,0,1,0-.71-.05A.51.51,0,0,0,194.33,336.62Z"/><path class="cls-6" d="M190.58,328.18a.33.33,0,0,0,0-.47.34.34,0,1,0-.51.44A.33.33,0,0,0,190.58,328.18Z"/><path class="cls-6" d="M187.49,319.72a.4.4,0,1,0-.57,0A.41.41,0,0,0,187.49,319.72Z"/><path class="cls-6" d="M185,311.18a.6.6,0,1,0-.85-.06A.6.6,0,0,0,185,311.18Z"/><path class="cls-6" d="M182.7,302.13a.3.3,0,0,0,0-.43.29.29,0,0,0-.42,0,.3.3,0,0,0,0,.43A.3.3,0,0,0,182.7,302.13Z"/><path class="cls-6" d="M181.14,293.19a.3.3,0,1,0-.4-.46.3.3,0,0,0,.4.46Z"/><path class="cls-6" d="M180,284a.09.09,0,0,0,0-.14.1.1,0,1,0-.15.13A.09.09,0,0,0,180,284Z"/><path class="cls-6" d="M179.51,275a.14.14,0,1,0-.19,0A.13.13,0,0,0,179.51,275Z"/><path class="cls-6" d="M464.68,180.09a.2.2,0,0,0,0-.29.2.2,0,0,0-.31.26A.21.21,0,0,0,464.68,180.09Z"/><path class="cls-6" d="M469.66,187.79a.3.3,0,1,0-.43,0A.3.3,0,0,0,469.66,187.79Z"/><path class="cls-6" d="M474.09,195.63a.23.23,0,1,0-.33,0A.23.23,0,0,0,474.09,195.63Z"/><path class="cls-6" d="M478.22,203.89a.41.41,0,0,0,0-.57.42.42,0,0,0-.57,0,.41.41,0,0,0-.05.57A.4.4,0,0,0,478.22,203.89Z"/><path class="cls-6" d="M482,212.52a.77.77,0,0,0,.08-1.09.77.77,0,0,0-1.17,1A.77.77,0,0,0,482,212.52Z"/><path class="cls-6" d="M485.38,221.36a1.18,1.18,0,1,0-1.66-.13A1.17,1.17,0,0,0,485.38,221.36Z"/><path class="cls-6" d="M488.08,230.15a1.32,1.32,0,1,0-1.85-.14A1.31,1.31,0,0,0,488.08,230.15Z"/><path class="cls-6" d="M490.54,239.38a1.85,1.85,0,1,0-2.61-.19A1.84,1.84,0,0,0,490.54,239.38Z"/><path class="cls-6" d="M491.46,247.49a.77.77,0,1,0-1.1-.08A.77.77,0,0,0,491.46,247.49Z"/><path class="cls-6" d="M492.64,256.57a.87.87,0,0,0,.08-1.23.87.87,0,1,0-.08,1.23Z"/><path class="cls-6" d="M493,265.38a.54.54,0,0,0,.06-.76.53.53,0,0,0-.76-.06.54.54,0,1,0,.7.82Z"/><path class="cls-6" d="M493.34,274.7a.87.87,0,1,0-1.23-.09A.86.86,0,0,0,493.34,274.7Z"/><circle class="cls-6" cx="492.36" cy="283.11" r="1.11" transform="translate(-65.34 390.51) rotate(-40.8)"/><path class="cls-6" d="M492,292.77a.85.85,0,0,0,.09-1.19.84.84,0,0,0-1.28,1.1A.85.85,0,0,0,492,292.77Z"/><path class="cls-6" d="M491.12,302.37a1.68,1.68,0,1,0-2.37-.18A1.69,1.69,0,0,0,491.12,302.37Z"/><path class="cls-6" d="M489.2,311.23a1.68,1.68,0,1,0-2.38-.17A1.68,1.68,0,0,0,489.2,311.23Z"/><path class="cls-6" d="M486.8,320a1.71,1.71,0,1,0-2.42-.17A1.7,1.7,0,0,0,486.8,320Z"/><path class="cls-6" d="M484,328.76a1.92,1.92,0,1,0-2.71-.2A1.93,1.93,0,0,0,484,328.76Z"/><path class="cls-6" d="M480.93,337.51a2.36,2.36,0,1,0-3.32-.25A2.36,2.36,0,0,0,480.93,337.51Z"/><path class="cls-6" d="M476.82,345.42a2,2,0,1,0-2.75-.2A2,2,0,0,0,476.82,345.42Z"/><path class="cls-6" d="M472.41,353.28a1.78,1.78,0,1,0-2.52-.18A1.79,1.79,0,0,0,472.41,353.28Z"/><path class="cls-6" d="M467.75,361.12a1.92,1.92,0,1,0-2.7-.2A1.92,1.92,0,0,0,467.75,361.12Z"/><path class="cls-6" d="M462.69,368.7a2.08,2.08,0,1,0-2.94-.22A2.09,2.09,0,0,0,462.69,368.7Z"/><path class="cls-6" d="M457,375.75a1.95,1.95,0,1,0-2.75-.2A1.95,1.95,0,0,0,457,375.75Z"/><circle class="cls-6" cx="449.78" cy="381.11" r="1.95" transform="translate(-139.73 386.5) rotate(-40.8)"/><path class="cls-6" d="M444.9,389.3a2.25,2.25,0,1,0-3.18-.24A2.26,2.26,0,0,0,444.9,389.3Z"/><path class="cls-6" d="M438.2,395.42a2.26,2.26,0,1,0-3.18-.23A2.25,2.25,0,0,0,438.2,395.42Z"/><path class="cls-6" d="M431.26,401.25a2.39,2.39,0,1,0-3.37-.24A2.38,2.38,0,0,0,431.26,401.25Z"/><path class="cls-6" d="M423.87,406.53a2.32,2.32,0,1,0-3.27-.24A2.31,2.31,0,0,0,423.87,406.53Z"/><path class="cls-6" d="M416.44,411.67a2.62,2.62,0,1,0-3.7-.27A2.62,2.62,0,0,0,416.44,411.67Z"/><path class="cls-6" d="M408.44,416a2.46,2.46,0,1,0-3.47-.25A2.45,2.45,0,0,0,408.44,416Z"/><path class="cls-6" d="M400.35,420.1a2.52,2.52,0,1,0-3.56-.26A2.53,2.53,0,0,0,400.35,420.1Z"/><path class="cls-6" d="M392,423.61a2.46,2.46,0,1,0-3.46-.26A2.46,2.46,0,0,0,392,423.61Z"/><path class="cls-6" d="M383.43,426.7a2.46,2.46,0,1,0-3.47-.26A2.47,2.47,0,0,0,383.43,426.7Z"/><path class="cls-6" d="M374.85,429.43a2.62,2.62,0,1,0-3.71-.27A2.63,2.63,0,0,0,374.85,429.43Z"/><path class="cls-6" d="M366,431.55a2.63,2.63,0,1,0-3.7-.28A2.62,2.62,0,0,0,366,431.55Z"/><path class="cls-6" d="M357.22,433.32a2.83,2.83,0,1,0-4-.3A2.82,2.82,0,0,0,357.22,433.32Z"/><path class="cls-6" d="M348,434.18a2.49,2.49,0,1,0-3.51-.26A2.49,2.49,0,0,0,348,434.18Z"/><path class="cls-6" d="M339,434.88a2.62,2.62,0,1,0-3.71-.27A2.63,2.63,0,0,0,339,434.88Z"/><circle class="cls-6" cx="328.25" cy="433" r="2.79"/><path class="cls-6" d="M321.07,434.78a2.89,2.89,0,1,0-4.08-.3A2.89,2.89,0,0,0,321.07,434.78Z"/><path class="cls-6" d="M312,433.78a2.79,2.79,0,1,0-3.94-.29A2.79,2.79,0,0,0,312,433.78Z"/><path class="cls-6" d="M302.75,432.05a2.39,2.39,0,1,0-3.36-.24A2.39,2.39,0,0,0,302.75,432.05Z"/><path class="cls-6" d="M293.89,430.13a2.39,2.39,0,1,0-3.37-.25A2.38,2.38,0,0,0,293.89,430.13Z"/><path class="cls-6" d="M285.12,427.69a2.36,2.36,0,1,0-3.32-.25A2.36,2.36,0,0,0,285.12,427.69Z"/><path class="cls-6" d="M276.1,424.3a1.72,1.72,0,1,0-2.41-.18A1.71,1.71,0,0,0,276.1,424.3Z"/><path class="cls-6" d="M267.77,421a1.85,1.85,0,1,0-2.61-.19A1.86,1.86,0,0,0,267.77,421Z"/><path class="cls-6" d="M259.55,417.17A1.85,1.85,0,1,0,257,417,1.83,1.83,0,0,0,259.55,417.17Z"/><path class="cls-6" d="M251.33,412.59a1.49,1.49,0,0,0,.15-2.09,1.48,1.48,0,1,0-2.24,1.94A1.49,1.49,0,0,0,251.33,412.59Z"/><path class="cls-6" d="M243.68,408a1.62,1.62,0,1,0-2.28-.17A1.62,1.62,0,0,0,243.68,408Z"/><path class="cls-6" d="M235.94,402.45a1.18,1.18,0,0,0-1.54-1.79,1.18,1.18,0,1,0,1.54,1.79Z"/><path class="cls-6" d="M228.71,396.79a1.07,1.07,0,1,0-1.52-.11A1.09,1.09,0,0,0,228.71,396.79Z"/><path class="cls-6" d="M221.91,390.84a1.11,1.11,0,0,0-1.46-1.68,1.11,1.11,0,1,0,1.46,1.68Z"/><path class="cls-6" d="M215.4,384.47a1.08,1.08,0,1,0-1.52-.11A1.08,1.08,0,0,0,215.4,384.47Z"/><path class="cls-6" d="M209.3,377.8a1.11,1.11,0,1,0-1.45-1.68,1.11,1.11,0,1,0,1.45,1.68Z"/><path class="cls-6" d="M203.39,370.56a.84.84,0,1,0-1.19-.09A.85.85,0,0,0,203.39,370.56Z"/><path class="cls-6" d="M198.06,363.22a.84.84,0,1,0-1.19-.09A.85.85,0,0,0,198.06,363.22Z"/><path class="cls-6" d="M193.15,355.59a.85.85,0,0,0,.09-1.19.84.84,0,0,0-1.28,1.1A.85.85,0,0,0,193.15,355.59Z"/><circle class="cls-6" cx="188.13" cy="347.06" r="0.61"/><path class="cls-6" d="M184.58,339.49a.74.74,0,0,0,.08-1.05.74.74,0,0,0-1.12,1A.74.74,0,0,0,184.58,339.49Z"/><path class="cls-6" d="M180.82,330.91a.44.44,0,0,0,.05-.61.43.43,0,0,0-.62-.05.44.44,0,0,0,0,.62A.43.43,0,0,0,180.82,330.91Z"/><path class="cls-6" d="M177.67,322.3a.33.33,0,0,0,0-.47.32.32,0,0,0-.47,0,.33.33,0,0,0,0,.47A.35.35,0,0,0,177.67,322.3Z"/><path class="cls-6" d="M175.13,313.69a.44.44,0,0,0-.58-.66.44.44,0,0,0,.58.66Z"/><path class="cls-6" d="M173,304.87a.45.45,0,0,0,.05-.62.44.44,0,0,0-.62-.05.44.44,0,1,0,.57.67Z"/><path class="cls-6" d="M171.2,295.71a.14.14,0,1,0-.19,0A.13.13,0,0,0,171.2,295.71Z"/><path class="cls-6" d="M170,286.63a0,0,0,0,0,0-.05s0,0-.05,0a0,0,0,0,0,0,0S170,286.64,170,286.63Z"/><path class="cls-6" d="M482,189a.34.34,0,1,0-.44-.51.32.32,0,0,0,0,.47A.33.33,0,0,0,482,189Z"/><path class="cls-6" d="M486.13,197a.3.3,0,0,0-.39-.46.3.3,0,0,0,0,.43A.29.29,0,0,0,486.13,197Z"/><path class="cls-6" d="M489.78,205.22a.19.19,0,0,0,0-.28.2.2,0,0,0-.28,0,.2.2,0,1,0,.26.3Z"/><path class="cls-6" d="M493.05,213.69a.2.2,0,0,0,0-.29.2.2,0,0,0-.28,0,.21.21,0,0,0,0,.29A.2.2,0,0,0,493.05,213.69Z"/><path class="cls-6" d="M496.51,223.05a1.18,1.18,0,1,0-1.66-.12A1.17,1.17,0,0,0,496.51,223.05Z"/><path class="cls-6" d="M499.33,232.35a1.88,1.88,0,1,0-2.65-.2A1.89,1.89,0,0,0,499.33,232.35Z"/><path class="cls-6" d="M501,241a1.55,1.55,0,1,0-2.18-.16A1.55,1.55,0,0,0,501,241Z"/><path class="cls-6" d="M502.44,249.93a1.55,1.55,0,1,0-2.19-.16A1.55,1.55,0,0,0,502.44,249.93Z"/><path class="cls-6" d="M503,258.44a.88.88,0,1,0-1.24-.09A.88.88,0,0,0,503,258.44Z"/><path class="cls-6" d="M503.73,267.86a1.35,1.35,0,1,0-1.9-.14A1.36,1.36,0,0,0,503.73,267.86Z"/><path class="cls-6" d="M503.72,276.93a1.34,1.34,0,1,0-1.9-.14A1.35,1.35,0,0,0,503.72,276.93Z"/><path class="cls-6" d="M503.24,286a1.34,1.34,0,1,0-1.9-.13A1.33,1.33,0,0,0,503.24,286Z"/><path class="cls-6" d="M502.49,295.27a1.68,1.68,0,1,0-2.37-.17A1.68,1.68,0,0,0,502.49,295.27Z"/><path class="cls-6" d="M501.38,304.61a2.18,2.18,0,1,0-3.08-.22A2.18,2.18,0,0,0,501.38,304.61Z"/><path class="cls-6" d="M499.48,313.48a2.19,2.19,0,1,0-3.09-.22A2.18,2.18,0,0,0,499.48,313.48Z"/><path class="cls-6" d="M497.28,322.45a2.46,2.46,0,1,0-3.47-.26A2.47,2.47,0,0,0,497.28,322.45Z"/><path class="cls-6" d="M494.47,331.09a2.49,2.49,0,1,0-3.51-.26A2.5,2.5,0,0,0,494.47,331.09Z"/><path class="cls-6" d="M491.29,339.68a2.66,2.66,0,1,0-3.74-.28A2.65,2.65,0,0,0,491.29,339.68Z"/><path class="cls-6" d="M487.57,348a2.66,2.66,0,1,0-3.75-.28A2.66,2.66,0,0,0,487.57,348Z"/><path class="cls-6" d="M483.43,356a2.69,2.69,0,1,0-3.79-.28A2.68,2.68,0,0,0,483.43,356Z"/><path class="cls-6" d="M479.07,364.13a3,3,0,1,0-4.26-.31A3,3,0,0,0,479.07,364.13Z"/><path class="cls-6" d="M474,371.59a2.86,2.86,0,1,0-4-.3A2.87,2.87,0,0,0,474,371.59Z"/><path class="cls-6" d="M468.49,378.77a2.69,2.69,0,1,0-3.79-.28A2.69,2.69,0,0,0,468.49,378.77Z"/><path class="cls-6" d="M462.52,385.53a2.36,2.36,0,1,0-3.32-.24A2.36,2.36,0,0,0,462.52,385.53Z"/><path class="cls-6" d="M456.6,392.46a2.66,2.66,0,1,0-3.75-.27A2.66,2.66,0,0,0,456.6,392.46Z"/><path class="cls-6" d="M450.2,398.91a2.76,2.76,0,1,0-3.89-.29A2.77,2.77,0,0,0,450.2,398.91Z"/><path class="cls-6" d="M443.41,404.92a2.75,2.75,0,1,0-3.89-.28A2.76,2.76,0,0,0,443.41,404.92Z"/><path class="cls-6" d="M436.42,410.7a2.92,2.92,0,0,0-3.82-4.43,2.92,2.92,0,1,0,3.82,4.43Z"/><path class="cls-6" d="M428.8,415.69a2.56,2.56,0,1,0-3.61-.26A2.56,2.56,0,0,0,428.8,415.69Z"/><path class="cls-6" d="M421.12,420.54a2.52,2.52,0,1,0-3.56-.26A2.53,2.53,0,0,0,421.12,420.54Z"/><path class="cls-6" d="M413.39,425.21a2.79,2.79,0,1,0-3.93-.29A2.79,2.79,0,0,0,413.39,425.21Z"/><path class="cls-6" d="M405.49,429.5a3.13,3.13,0,1,0-4.42-.32A3.12,3.12,0,0,0,405.49,429.5Z"/><path class="cls-6" d="M397,433a2.93,2.93,0,1,0-4.13-.3A2.93,2.93,0,0,0,397,433Z"/><path class="cls-6" d="M388.48,436.06a2.86,2.86,0,1,0-4-.3A2.85,2.85,0,0,0,388.48,436.06Z"/><path class="cls-6" d="M379.82,438.77a2.86,2.86,0,1,0-4-.3A2.87,2.87,0,0,0,379.82,438.77Z"/><path class="cls-6" d="M371,441a2.79,2.79,0,1,0-3.94-.29A2.79,2.79,0,0,0,371,441Z"/><path class="cls-6" d="M362.37,443.07a3.23,3.23,0,1,0-4.55-.33A3.22,3.22,0,0,0,362.37,443.07Z"/><path class="cls-6" d="M353.26,444.23a3,3,0,1,0-4.27-.32A3,3,0,0,0,353.26,444.23Z"/><path class="cls-6" d="M344.22,445.06a3,3,0,1,0-4.27-.32A3,3,0,0,0,344.22,445.06Z"/><path class="cls-6" d="M335,445.18a2.72,2.72,0,1,0-3.85-.28A2.72,2.72,0,0,0,335,445.18Z"/><path class="cls-6" d="M326,445.18a2.89,2.89,0,1,0-4.07-.3A2.88,2.88,0,0,0,326,445.18Z"/><path class="cls-6" d="M316.94,444.58a2.89,2.89,0,1,0-4.08-.3A2.89,2.89,0,0,0,316.94,444.58Z"/><path class="cls-6" d="M307.73,443.27a2.59,2.59,0,1,0-3.65-.27A2.59,2.59,0,0,0,307.73,443.27Z"/><path class="cls-6" d="M299,441.91a2.86,2.86,0,1,0-4-.29A2.85,2.85,0,0,0,299,441.91Z"/><path class="cls-6" d="M289.88,439.61a2.49,2.49,0,1,0-3.51-.26A2.49,2.49,0,0,0,289.88,439.61Z"/><path class="cls-6" d="M281,436.89a2.19,2.19,0,1,0-3.08-.23A2.19,2.19,0,0,0,281,436.89Z"/><path class="cls-6" d="M272.38,433.94a2.19,2.19,0,1,0-3.09-.22A2.19,2.19,0,0,0,272.38,433.94Z"/><path class="cls-6" d="M263.55,430.06a1.55,1.55,0,1,0-2.19-.15A1.56,1.56,0,0,0,263.55,430.06Z"/><path class="cls-6" d="M255.41,426.33a1.68,1.68,0,1,0-2.37-.17A1.68,1.68,0,0,0,255.41,426.33Z"/><path class="cls-6" d="M247.14,421.76a1.28,1.28,0,1,0-1.81-.13A1.28,1.28,0,0,0,247.14,421.76Z"/><path class="cls-6" d="M239.21,416.91a1.07,1.07,0,0,0,.11-1.48,1,1,0,1,0-.11,1.48Z"/><path class="cls-6" d="M231.56,411.67a.84.84,0,1,0-1.19-.09A.85.85,0,0,0,231.56,411.67Z"/><path class="cls-6" d="M224.32,406.2a.84.84,0,1,0-1.1-1.28.84.84,0,0,0,1.1,1.28Z"/><path class="cls-6" d="M217.61,400.6a1.18,1.18,0,1,0-1.67-.12A1.18,1.18,0,0,0,217.61,400.6Z"/><path class="cls-6" d="M210.83,394.22a.94.94,0,1,0-1.33-.1A.94.94,0,0,0,210.83,394.22Z"/><path class="cls-6" d="M204.48,387.6a.84.84,0,1,0-1.19-.09A.85.85,0,0,0,204.48,387.6Z"/><path class="cls-6" d="M198.57,380.75a.87.87,0,1,0-1.23-.09A.86.86,0,0,0,198.57,380.75Z"/><path class="cls-6" d="M192.93,373.48a.75.75,0,0,0,.08-1.05.74.74,0,0,0-1.13,1A.75.75,0,0,0,192.93,373.48Z"/><circle class="cls-6" cx="187.27" cy="365.46" r="0.97"/><path class="cls-6" d="M183,358.33a.78.78,0,1,0-1-1.17.77.77,0,0,0-.07,1.09A.77.77,0,0,0,183,358.33Z"/><path class="cls-6" d="M178.47,350.16a.48.48,0,0,0,.05-.7.5.5,0,1,0-.76.65A.49.49,0,0,0,178.47,350.16Z"/><path class="cls-6" d="M174.54,342a.51.51,0,1,0-.66-.77.52.52,0,0,0,0,.72A.51.51,0,0,0,174.54,342Z"/><path class="cls-6" d="M171.05,333.61a.5.5,0,0,0-.66-.76.5.5,0,1,0,.66.76Z"/><path class="cls-6" d="M167.83,324.87a.25.25,0,0,0,0-.34.23.23,0,0,0-.33,0,.24.24,0,0,0,0,.33A.25.25,0,0,0,167.83,324.87Z"/><path class="cls-6" d="M504.29,215.35a.21.21,0,0,0,0-.29.21.21,0,1,0-.31.27A.2.2,0,0,0,504.29,215.35Z"/><path class="cls-6" d="M506.9,224.07a.23.23,0,0,0,0-.33.24.24,0,0,0-.33,0,.25.25,0,0,0,0,.34A.24.24,0,0,0,506.9,224.07Z"/><path class="cls-6" d="M509,232.81a.13.13,0,0,0,0-.19.14.14,0,0,0-.21.18A.13.13,0,0,0,509,232.81Z"/><path class="cls-6" d="M511.22,242.36a1,1,0,1,0-1.37-.1A1,1,0,0,0,511.22,242.36Z"/><path class="cls-6" d="M512.1,250.92a.4.4,0,1,0-.53-.61.4.4,0,0,0,.53.61Z"/><path class="cls-6" d="M513.79,261a1.75,1.75,0,1,0-2.47-.18A1.74,1.74,0,0,0,513.79,261Z"/><path class="cls-6" d="M513.92,269.78a1.41,1.41,0,1,0-2-.14A1.41,1.41,0,0,0,513.92,269.78Z"/><path class="cls-6" d="M514.11,279.19a1.85,1.85,0,1,0-2.61-.19A1.85,1.85,0,0,0,514.11,279.19Z"/><path class="cls-6" d="M513.58,288.27a1.88,1.88,0,1,0-2.66-.19A1.89,1.89,0,0,0,513.58,288.27Z"/><path class="cls-6" d="M512.77,297.52a2.19,2.19,0,1,0-3.08-.23A2.18,2.18,0,0,0,512.77,297.52Z"/><path class="cls-6" d="M511.12,306.25a1.88,1.88,0,1,0-2.65-.2A1.89,1.89,0,0,0,511.12,306.25Z"/><path class="cls-6" d="M509.8,315.78a2.75,2.75,0,1,0-3.89-.28A2.76,2.76,0,0,0,509.8,315.78Z"/><path class="cls-6" d="M507.18,324.22a2.32,2.32,0,1,0-3.27-.24A2.31,2.31,0,0,0,507.18,324.22Z"/><path class="cls-6" d="M504.65,333.14a2.69,2.69,0,1,0-3.8-.28A2.69,2.69,0,0,0,504.65,333.14Z"/><path class="cls-6" d="M501.41,341.59a2.63,2.63,0,1,0-3.7-.28A2.63,2.63,0,0,0,501.41,341.59Z"/><path class="cls-6" d="M497.84,350a2.69,2.69,0,1,0-3.8-.28A2.7,2.7,0,0,0,497.84,350Z"/><path class="cls-6" d="M493.94,358.24a2.89,2.89,0,1,0-4.08-.3A2.89,2.89,0,0,0,493.94,358.24Z"/><path class="cls-6" d="M489.6,366.26a3,3,0,1,0-4.27-.31A3,3,0,0,0,489.6,366.26Z"/><path class="cls-6" d="M484.9,374.08a3.2,3.2,0,1,0-4.51-.33A3.21,3.21,0,0,0,484.9,374.08Z"/><path class="cls-6" d="M479.73,381.55a3.23,3.23,0,1,0-4.56-.33A3.23,3.23,0,0,0,479.73,381.55Z"/><path class="cls-6" d="M474,388.49a2.92,2.92,0,1,0-4.13-.3A2.93,2.93,0,0,0,474,388.49Z"/><path class="cls-6" d="M468.08,395.4a3,3,0,1,0-4.17-.3A2.95,2.95,0,0,0,468.08,395.4Z"/><path class="cls-6" d="M461.88,402a3,3,0,1,0-4.27-.32A3,3,0,0,0,461.88,402Z"/><path class="cls-6" d="M455.23,408.2a2.89,2.89,0,1,0-4.08-.3A2.9,2.9,0,0,0,455.23,408.2Z"/><path class="cls-6" d="M448.56,414.36a3.2,3.2,0,1,0-4.51-.33A3.2,3.2,0,0,0,448.56,414.36Z"/><path class="cls-6" d="M441.25,419.76a3,3,0,1,0-4.18-.31A3,3,0,0,0,441.25,419.76Z"/><path class="cls-6" d="M433.83,425a3,3,0,1,0-4.18-.3A3,3,0,0,0,433.83,425Z"/><path class="cls-6" d="M426.1,429.77a2.9,2.9,0,1,0-4.08-.31A2.9,2.9,0,0,0,426.1,429.77Z"/><path class="cls-6" d="M418.35,434.39a3.13,3.13,0,1,0-4.41-.32A3.12,3.12,0,0,0,418.35,434.39Z"/><path class="cls-6" d="M410.21,438.42a3.1,3.1,0,1,0-4.37-.32A3.1,3.1,0,0,0,410.21,438.42Z"/><path class="cls-6" d="M402,442.14a3.19,3.19,0,1,0-4.5-.34A3.19,3.19,0,0,0,402,442.14Z"/><path class="cls-6" d="M393.48,445.36A3.2,3.2,0,1,0,389,445,3.2,3.2,0,0,0,393.48,445.36Z"/><path class="cls-6" d="M384.89,448.21a3.27,3.27,0,1,0-4.6-.34A3.26,3.26,0,0,0,384.89,448.21Z"/><path class="cls-6" d="M376,450.44a3.1,3.1,0,1,0-4.36-.32A3.09,3.09,0,0,0,376,450.44Z"/><path class="cls-6" d="M367.26,452.49a3.26,3.26,0,1,0-4.6-.34A3.25,3.25,0,0,0,367.26,452.49Z"/><path class="cls-6" d="M358.33,454a3.3,3.3,0,1,0-4.65-.34A3.29,3.29,0,0,0,358.33,454Z"/><path class="cls-6" d="M349.18,454.87a3.1,3.1,0,1,0-4.36-.32A3.1,3.1,0,0,0,349.18,454.87Z"/><path class="cls-6" d="M340.06,455.37a3,3,0,1,0-4.22-.31A3,3,0,0,0,340.06,455.37Z"/><path class="cls-6" d="M331.05,455.57a3.09,3.09,0,1,0-4.36-.32A3.09,3.09,0,0,0,331.05,455.57Z"/><path class="cls-6" d="M321.83,455.07a2.86,2.86,0,1,0-4-.3A2.85,2.85,0,0,0,321.83,455.07Z"/><path class="cls-6" d="M312.79,454.29a2.86,2.86,0,1,0-4-.3A2.85,2.85,0,0,0,312.79,454.29Z"/><path class="cls-6" d="M303.91,453.19a3,3,0,1,0-4.27-.31A3,3,0,0,0,303.91,453.19Z"/><path class="cls-6" d="M295.06,451.6a3.13,3.13,0,1,0-4.41-.33A3.14,3.14,0,0,0,295.06,451.6Z"/><path class="cls-6" d="M286.24,449.48a3.13,3.13,0,1,0-4.42-.32A3.12,3.12,0,0,0,286.24,449.48Z"/><path class="cls-6" d="M277.2,446.54a2.62,2.62,0,1,0-3.7-.27A2.62,2.62,0,0,0,277.2,446.54Z"/><path class="cls-6" d="M268.57,443.48a2.52,2.52,0,1,0-3.56-.26A2.53,2.53,0,0,0,268.57,443.48Z"/><path class="cls-6" d="M259.52,439.34a1.55,1.55,0,0,0-2-2.35,1.55,1.55,0,1,0,2,2.35Z"/><path class="cls-6" d="M251.13,435.34a1.31,1.31,0,1,0-1.85-.14A1.31,1.31,0,0,0,251.13,435.34Z"/><circle class="cls-6" cx="242.25" cy="430.11" r="1.31"/><path class="cls-6" d="M235.3,426.49a1.32,1.32,0,1,0-1.85-.14A1.32,1.32,0,0,0,235.3,426.49Z"/><path class="cls-6" d="M227.64,421.38a1.18,1.18,0,1,0-1.66-.13A1.17,1.17,0,0,0,227.64,421.38Z"/><path class="cls-6" d="M220.24,415.9a1,1,0,1,0-1.47-.11A1,1,0,0,0,220.24,415.9Z"/><circle class="cls-6" cx="212.53" cy="409.37" r="0.77" transform="translate(-215.85 238.35) rotate(-40.8)"/><path class="cls-6" d="M206.34,403.93a.84.84,0,1,0-1.18-.08A.84.84,0,0,0,206.34,403.93Z"/><circle class="cls-6" cx="199.37" cy="396.89" r="0.77" transform="translate(-210.89 226.72) rotate(-40.8)"/><path class="cls-6" d="M193.75,390.73a.74.74,0,1,0-1-1.12.74.74,0,0,0,1,1.12Z"/><path class="cls-6" d="M188,383.69a.71.71,0,1,0-1-.07A.71.71,0,0,0,188,383.69Z"/><path class="cls-6" d="M182.58,376.4a.72.72,0,0,0,.07-1,.71.71,0,0,0-1.07.92A.71.71,0,0,0,182.58,376.4Z"/><circle class="cls-6" cx="177.09" cy="368.31" r="0.61"/><path class="cls-6" d="M172.64,360.74a.3.3,0,0,0,0-.42.3.3,0,0,0-.43,0,.29.29,0,0,0,0,.42A.3.3,0,0,0,172.64,360.74Z"/><path class="cls-6" d="M164.36,344.31s0,0,0-.05a0,0,0,0,0,0,0,0,0,0,0,0,0,0S164.35,344.32,164.36,344.31Z"/><path class="cls-6" d="M519.6,234.54s0,0,0,0,0,0-.05,0,0,0,0,0A0,0,0,0,0,519.6,234.54Z"/><path class="cls-6" d="M522.47,252.78a.41.41,0,0,0,0-.57.4.4,0,0,0-.57,0,.39.39,0,0,0,0,.56A.41.41,0,0,0,522.47,252.78Z"/><path class="cls-6" d="M523,261.7a.23.23,0,1,0-.3-.36.23.23,0,0,0,0,.33A.24.24,0,0,0,523,261.7Z"/><circle class="cls-6" cx="523.12" cy="270.59" r="0.61" transform="translate(-49.69 407.57) rotate(-40.8)"/><path class="cls-6" d="M523.33,280.12a.59.59,0,0,0,.07-.85.61.61,0,1,0-.07.85Z"/><path class="cls-6" d="M523.12,289.63a1.21,1.21,0,1,0-1.71-.12A1.22,1.22,0,0,0,523.12,289.63Z"/><path class="cls-6" d="M522.33,298.93a1.58,1.58,0,1,0-2.24-.16A1.58,1.58,0,0,0,522.33,298.93Z"/><path class="cls-6" d="M520.86,307.88a1.58,1.58,0,1,0-2.23-.16A1.58,1.58,0,0,0,520.86,307.88Z"/><path class="cls-6" d="M519.44,317.3a2.29,2.29,0,1,0-3.23-.24A2.29,2.29,0,0,0,519.44,317.3Z"/><path class="cls-6" d="M517.16,326.1a2.32,2.32,0,1,0-3.27-.24A2.31,2.31,0,0,0,517.16,326.1Z"/><path class="cls-6" d="M514.34,334.63a2.16,2.16,0,1,0-3-.22A2.15,2.15,0,0,0,514.34,334.63Z"/><path class="cls-6" d="M511.22,343.15a2.16,2.16,0,1,0-3-.22A2.15,2.15,0,0,0,511.22,343.15Z"/><path class="cls-6" d="M507.86,351.69a2.39,2.39,0,1,0-3.37-.24A2.39,2.39,0,0,0,507.86,351.69Z"/><path class="cls-6" d="M503.93,359.86a2.36,2.36,0,1,0-3.33-.25A2.36,2.36,0,0,0,503.93,359.86Z"/><circle class="cls-6" cx="498.1" cy="366.07" r="2.86"/><path class="cls-6" d="M495.25,376a2.79,2.79,0,1,0-3.93-.29A2.8,2.8,0,0,0,495.25,376Z"/><path class="cls-6" d="M490.27,383.57a2.86,2.86,0,1,0-4-.29A2.85,2.85,0,0,0,490.27,383.57Z"/><path class="cls-6" d="M484.9,390.88a2.86,2.86,0,1,0-4-.29A2.86,2.86,0,0,0,484.9,390.88Z"/><path class="cls-6" d="M479.25,398a3,3,0,1,0-4.18-.31A3,3,0,0,0,479.25,398Z"/><path class="cls-6" d="M473.31,404.9a3.13,3.13,0,1,0-4.41-.32A3.13,3.13,0,0,0,473.31,404.9Z"/><path class="cls-6" d="M467.18,411.63a3.46,3.46,0,1,0-4.89-.35A3.45,3.45,0,0,0,467.18,411.63Z"/><path class="cls-6" d="M460.5,417.78a3.43,3.43,0,1,0-4.84-.36A3.43,3.43,0,0,0,460.5,417.78Z"/><path class="cls-6" d="M453.43,423.47a3.23,3.23,0,1,0-4.56-.33A3.22,3.22,0,0,0,453.43,423.47Z"/><circle class="cls-6" cx="444.11" cy="426.54" r="2.46"/><path class="cls-6" d="M438.45,433.8a2.76,2.76,0,1,0-3.89-.29A2.75,2.75,0,0,0,438.45,433.8Z"/><path class="cls-6" d="M431.15,439.06a3.36,3.36,0,1,0-4.74-.35A3.35,3.35,0,0,0,431.15,439.06Z"/><path class="cls-6" d="M423.24,443.5a3.36,3.36,0,1,0-4.74-.35A3.36,3.36,0,0,0,423.24,443.5Z"/><path class="cls-6" d="M415.21,447.67a3.5,3.5,0,1,0-4.93-.37A3.5,3.5,0,0,0,415.21,447.67Z"/><path class="cls-6" d="M406.7,451.09a3.17,3.17,0,1,0-4.46-.33A3.18,3.18,0,0,0,406.7,451.09Z"/><path class="cls-6" d="M398.3,454.44a3.26,3.26,0,1,0-4.6-.34A3.25,3.25,0,0,0,398.3,454.44Z"/><path class="cls-6" d="M389.74,457.36A3.33,3.33,0,1,0,385,457,3.33,3.33,0,0,0,389.74,457.36Z"/><path class="cls-6" d="M381,459.78a3.26,3.26,0,1,0-4.6-.34A3.25,3.25,0,0,0,381,459.78Z"/><path class="cls-6" d="M372.12,461.83a3.26,3.26,0,1,0-4.6-.34A3.25,3.25,0,0,0,372.12,461.83Z"/><path class="cls-6" d="M363.13,463.38a3.16,3.16,0,1,0-4.46-.32A3.16,3.16,0,0,0,363.13,463.38Z"/><path class="cls-6" d="M354.2,464.67a3.26,3.26,0,1,0-4.6-.34A3.26,3.26,0,0,0,354.2,464.67Z"/><path class="cls-6" d="M345.14,465.42a3.23,3.23,0,1,0-4.55-.33A3.22,3.22,0,0,0,345.14,465.42Z"/><path class="cls-6" d="M336.05,465.75a3.2,3.2,0,1,0-4.5-.33A3.19,3.19,0,0,0,336.05,465.75Z"/><path class="cls-6" d="M327,465.65a3.17,3.17,0,1,0-4.46-.33A3.16,3.16,0,0,0,327,465.65Z"/><circle class="cls-6" cx="315.83" cy="462.75" r="3.23"/><circle class="cls-6" cx="306.8" cy="461.82" r="3.13" transform="translate(-227.21 312.7) rotate(-40.8)"/><circle class="cls-6" cx="297.83" cy="460.46" r="3.23"/><path class="cls-6" d="M291.13,461.23a3.36,3.36,0,1,0-4.74-.35A3.37,3.37,0,0,0,291.13,461.23Z"/><path class="cls-6" d="M282.17,458.85a3.12,3.12,0,1,0-4.41-.32A3.12,3.12,0,0,0,282.17,458.85Z"/><path class="cls-6" d="M273,455.63a2.32,2.32,0,1,0-3.28-.24A2.32,2.32,0,0,0,273,455.63Z"/><path class="cls-6" d="M264.09,452.26a1.85,1.85,0,1,0-2.61-.19A1.85,1.85,0,0,0,264.09,452.26Z"/><path class="cls-6" d="M255.68,448.84a1.85,1.85,0,1,0-2.61-.19A1.85,1.85,0,0,0,255.68,448.84Z"/><circle class="cls-6" cx="246.24" cy="443.63" r="1.31"/><path class="cls-6" d="M239,440.4a1.28,1.28,0,0,0-1.67-1.94A1.28,1.28,0,0,0,239,440.4Z"/><path class="cls-6" d="M231.13,435.75a1.18,1.18,0,1,0-1.66-.12A1.18,1.18,0,0,0,231.13,435.75Z"/><path class="cls-6" d="M223.58,430.89a1.28,1.28,0,1,0-1.8-.13A1.28,1.28,0,0,0,223.58,430.89Z"/><path class="cls-6" d="M216.14,425.52a1.18,1.18,0,1,0-1.66-.12A1.17,1.17,0,0,0,216.14,425.52Z"/><path class="cls-6" d="M209,419.89a1.18,1.18,0,1,0-1.66-.12A1.18,1.18,0,0,0,209,419.89Z"/><path class="cls-6" d="M202.12,413.85a1.08,1.08,0,0,0,.11-1.52,1.07,1.07,0,0,0-1.51-.11,1.07,1.07,0,1,0,1.4,1.63Z"/><path class="cls-6" d="M195.57,407.57a1.08,1.08,0,1,0-1.52-.11A1.08,1.08,0,0,0,195.57,407.57Z"/><path class="cls-6" d="M189.08,400.71a.71.71,0,1,0-.92-1.07.71.71,0,0,0,.92,1.07Z"/><path class="cls-6" d="M183.09,393.76a.6.6,0,1,0-.79-.91.59.59,0,0,0-.07.85A.6.6,0,0,0,183.09,393.76Z"/><path class="cls-6" d="M177.29,386.39a.3.3,0,1,0-.39-.45.3.3,0,1,0,.39.45Z"/><path class="cls-6" d="M171.91,378.84a.11.11,0,0,0,0-.14.11.11,0,0,0-.15,0,.11.11,0,0,0,0,.14A.1.1,0,0,0,171.91,378.84Z"/><path class="cls-6" d="M533.13,281.72a.24.24,0,0,0,0-.34.24.24,0,0,0-.36.31A.25.25,0,0,0,533.13,281.72Z"/><path class="cls-6" d="M531.59,300a.55.55,0,0,0,.06-.76.54.54,0,1,0-.06.76Z"/><path class="cls-6" d="M530.34,309.21a.88.88,0,1,0-1.24-.09A.88.88,0,0,0,530.34,309.21Z"/><path class="cls-6" d="M528.11,317.69a.34.34,0,1,0-.44-.51.34.34,0,0,0,.44.51Z"/><path class="cls-6" d="M526.5,327.24a1.35,1.35,0,1,0-1.76-2,1.35,1.35,0,0,0,1.76,2Z"/><path class="cls-6" d="M524.19,336.32a1.89,1.89,0,1,0-2.66-.2A1.89,1.89,0,0,0,524.19,336.32Z"/><path class="cls-6" d="M521.06,344.76a1.75,1.75,0,1,0-2.47-.18A1.74,1.74,0,0,0,521.06,344.76Z"/><path class="cls-6" d="M518,353.65a2.39,2.39,0,1,0-3.37-.25A2.39,2.39,0,0,0,518,353.65Z"/><circle class="cls-6" cx="512.68" cy="360.08" r="2.12" transform="translate(-110.7 422.5) rotate(-40.8)"/><path class="cls-6" d="M510.1,370a2.42,2.42,0,1,0-3.42-.25A2.42,2.42,0,0,0,510.1,370Z"/><path class="cls-6" d="M505.66,377.94a2.56,2.56,0,1,0-3.61-.26A2.57,2.57,0,0,0,505.66,377.94Z"/><circle class="cls-6" cx="499.12" cy="383.66" r="2.52" transform="translate(-129.4 419.36) rotate(-40.8)"/><path class="cls-6" d="M495.68,393.15a2.73,2.73,0,1,0-3.84-.28A2.72,2.72,0,0,0,495.68,393.15Z"/><path class="cls-6" d="M490,400.13a2.46,2.46,0,1,0-3.47-.25A2.45,2.45,0,0,0,490,400.13Z"/><path class="cls-6" d="M484.4,407.4a2.9,2.9,0,1,0-4.09-.31A2.91,2.91,0,0,0,484.4,407.4Z"/><path class="cls-6" d="M478.23,414.05a2.89,2.89,0,1,0-4.07-.3A2.87,2.87,0,0,0,478.23,414.05Z"/><path class="cls-6" d="M471.89,420.56a3.06,3.06,0,1,0-4.32-.31A3.07,3.07,0,0,0,471.89,420.56Z"/><path class="cls-6" d="M465.16,426.64a3.06,3.06,0,1,0-4.32-.32A3.07,3.07,0,0,0,465.16,426.64Z"/><path class="cls-6" d="M458,432.19a2.76,2.76,0,1,0-3.89-.29A2.76,2.76,0,0,0,458,432.19Z"/><path class="cls-6" d="M450.93,437.9a3.1,3.1,0,1,0-4.37-.32A3.11,3.11,0,0,0,450.93,437.9Z"/><path class="cls-6" d="M443.13,442.66a2.62,2.62,0,1,0-3.71-.27A2.63,2.63,0,0,0,443.13,442.66Z"/><path class="cls-6" d="M435.88,448a3.33,3.33,0,1,0-4.7-.35A3.34,3.34,0,0,0,435.88,448Z"/><path class="cls-6" d="M428.24,452.74a3.76,3.76,0,1,0-5.31-.39A3.76,3.76,0,0,0,428.24,452.74Z"/><path class="cls-6" d="M420,456.63a3.53,3.53,0,1,0-5-.36A3.53,3.53,0,0,0,420,456.63Z"/><circle class="cls-6" cx="409.39" cy="457.66" r="3.57"/><path class="cls-6" d="M402.92,463.28a3,3,0,1,0-4.27-.31A3,3,0,0,0,402.92,463.28Z"/><circle class="cls-6" cx="392.36" cy="463.94" r="3.5"/><path class="cls-6" d="M385.83,469a3.33,3.33,0,1,0-4.7-.34A3.33,3.33,0,0,0,385.83,469Z"/><path class="cls-6" d="M376.76,470.87a2.93,2.93,0,1,0-4.13-.3A2.92,2.92,0,0,0,376.76,470.87Z"/><path class="cls-6" d="M367.86,472.64a2.93,2.93,0,1,0-4.13-.3A2.93,2.93,0,0,0,367.86,472.64Z"/><path class="cls-6" d="M359,474.19a3.16,3.16,0,1,0-4.46-.33A3.18,3.18,0,0,0,359,474.19Z"/><path class="cls-6" d="M350.08,475.22a3.26,3.26,0,1,0-4.6-.33A3.25,3.25,0,0,0,350.08,475.22Z"/><path class="cls-6" d="M341.07,475.83a3.33,3.33,0,1,0-4.7-.35A3.33,3.33,0,0,0,341.07,475.83Z"/><path class="cls-6" d="M332,476a3.33,3.33,0,1,0-4.7-.34A3.34,3.34,0,0,0,332,476Z"/><path class="cls-6" d="M323,475.8a3.43,3.43,0,1,0-4.84-.36A3.44,3.44,0,0,0,323,475.8Z"/><circle class="cls-6" cx="311.7" cy="472.53" r="3.3"/><path class="cls-6" d="M304.84,474a3.3,3.3,0,1,0-4.65-.34A3.29,3.29,0,0,0,304.84,474Z"/><path class="cls-6" d="M295.87,472.46a3.26,3.26,0,1,0-4.61-.33A3.27,3.27,0,0,0,295.87,472.46Z"/><path class="cls-6" d="M287.05,470.67a3.36,3.36,0,1,0-4.74-.35A3.36,3.36,0,0,0,287.05,470.67Z"/><path class="cls-6" d="M277.63,467.66a2.39,2.39,0,1,0-3.37-.25A2.39,2.39,0,0,0,277.63,467.66Z"/><path class="cls-6" d="M269,465a2.39,2.39,0,1,0-3.37-.25A2.39,2.39,0,0,0,269,465Z"/><path class="cls-6" d="M260.23,461.74a2.12,2.12,0,1,0-3-.22A2.11,2.11,0,0,0,260.23,461.74Z"/><path class="cls-6" d="M251.72,458.19a2,2,0,0,0-2.55-3,2,2,0,0,0,2.55,3Z"/><path class="cls-6" d="M243.26,454.13A1.61,1.61,0,1,0,241,454,1.62,1.62,0,0,0,243.26,454.13Z"/><path class="cls-6" d="M235.25,450a1.68,1.68,0,1,0-2.38-.18A1.69,1.69,0,0,0,235.25,450Z"/><path class="cls-6" d="M227.38,445.49a1.68,1.68,0,1,0-2.37-.17A1.68,1.68,0,0,0,227.38,445.49Z"/><path class="cls-6" d="M218.91,439.67a.42.42,0,0,0,.05-.61.43.43,0,0,0-.62-.05.45.45,0,0,0-.05.62A.44.44,0,0,0,218.91,439.67Z"/><circle class="cls-6" cx="211.2" cy="434.13" r="0.61"/><path class="cls-6" d="M204.28,428.9a.41.41,0,0,0-.53-.62.4.4,0,0,0,0,.57A.41.41,0,0,0,204.28,428.9Z"/><path class="cls-6" d="M197.28,423a.29.29,0,0,0,0-.42.3.3,0,0,0-.43,0,.31.31,0,0,0,0,.43A.3.3,0,0,0,197.28,423Z"/><path class="cls-6" d="M190.55,416.72a.19.19,0,0,0,0-.28.2.2,0,1,0-.3.26A.19.19,0,0,0,190.55,416.72Z"/><path class="cls-6" d="M184.11,410.19A.1.1,0,1,0,184,410a.09.09,0,0,0,0,.14A.1.1,0,0,0,184.11,410.19Z"/><path class="cls-6" d="M538.06,319.55a.32.32,0,0,0,0-.47.33.33,0,0,0-.47,0,.34.34,0,1,0,.44.51Z"/><circle class="cls-6" cx="535.6" cy="328.09" r="0.61"/><path class="cls-6" d="M533.38,337.24a.61.61,0,0,0,.06-.86.61.61,0,0,0-.92.8A.61.61,0,0,0,533.38,337.24Z"/><path class="cls-6" d="M530.35,345.76a.55.55,0,0,0,.06-.76.54.54,0,1,0-.06.76Z"/><path class="cls-6" d="M527.66,355a1.55,1.55,0,1,0-2.18-.16A1.55,1.55,0,0,0,527.66,355Z"/><path class="cls-6" d="M523.27,362.45a.51.51,0,0,0,.06-.71.51.51,0,0,0-.77.66A.51.51,0,0,0,523.27,362.45Z"/><path class="cls-6" d="M519.92,371.38a1.58,1.58,0,1,0-2.23-.16A1.58,1.58,0,0,0,519.92,371.38Z"/><path class="cls-6" d="M515.52,379.32a1.58,1.58,0,1,0-2.23-.17A1.57,1.57,0,0,0,515.52,379.32Z"/><path class="cls-6" d="M509.89,386a.21.21,0,1,0-.29,0A.22.22,0,0,0,509.89,386Z"/><path class="cls-6" d="M505.25,394a.84.84,0,0,0,.08-1.19.84.84,0,1,0-.08,1.19Z"/><path class="cls-6" d="M500.42,402a1.68,1.68,0,1,0-2.38-.18A1.69,1.69,0,0,0,500.42,402Z"/><path class="cls-6" d="M495.2,409.58a2.39,2.39,0,1,0-3.37-.24A2.39,2.39,0,0,0,495.2,409.58Z"/><path class="cls-6" d="M489.61,416.87a3,3,0,1,0-4.23-.31A3,3,0,0,0,489.61,416.87Z"/><path class="cls-6" d="M483.38,423.48a3.06,3.06,0,1,0-4.31-.32A3.06,3.06,0,0,0,483.38,423.48Z"/><path class="cls-6" d="M476.71,429.61a2.86,2.86,0,1,0-4-.29A2.86,2.86,0,0,0,476.71,429.61Z"/><path class="cls-6" d="M469.91,435.62a2.86,2.86,0,1,0-4-.3A2.87,2.87,0,0,0,469.91,435.62Z"/><path class="cls-6" d="M463,441.53a3.13,3.13,0,1,0-4.42-.33A3.14,3.14,0,0,0,463,441.53Z"/><path class="cls-6" d="M455.86,447.08a3.33,3.33,0,1,0-4.7-.35A3.33,3.33,0,0,0,455.86,447.08Z"/><path class="cls-6" d="M448.26,452.06a3.2,3.2,0,1,0-4.51-.33A3.2,3.2,0,0,0,448.26,452.06Z"/><path class="cls-6" d="M440.47,456.74a3.1,3.1,0,1,0-4.37-.32A3.09,3.09,0,0,0,440.47,456.74Z"/><path class="cls-6" d="M432.76,461.42a3.43,3.43,0,1,0-4.84-.36A3.43,3.43,0,0,0,432.76,461.42Z"/><path class="cls-6" d="M424.63,465.47a3.4,3.4,0,1,0-4.79-.35A3.4,3.4,0,0,0,424.63,465.47Z"/><path class="cls-6" d="M416.23,469.05a3.2,3.2,0,1,0-4.51-.33A3.19,3.19,0,0,0,416.23,469.05Z"/><path class="cls-6" d="M407.81,472.42a3.2,3.2,0,1,0-4.51-.33A3.21,3.21,0,0,0,407.81,472.42Z"/><path class="cls-6" d="M399.42,475.63a3.46,3.46,0,1,0-4.89-.35A3.45,3.45,0,0,0,399.42,475.63Z"/><path class="cls-6" d="M390.61,478.12a3.26,3.26,0,1,0-4.6-.33A3.27,3.27,0,0,0,390.61,478.12Z"/><path class="cls-6" d="M381.89,480.47a3.36,3.36,0,1,0-4.75-.35A3.37,3.37,0,0,0,381.89,480.47Z"/><path class="cls-6" d="M373,482.38a3.4,3.4,0,1,0-4.79-.35A3.39,3.39,0,0,0,373,482.38Z"/><path class="cls-6" d="M364.15,484a3.5,3.5,0,1,0-4.93-.36A3.51,3.51,0,0,0,364.15,484Z"/><path class="cls-6" d="M355.15,485.1a3.5,3.5,0,1,0-4.94-.37A3.51,3.51,0,0,0,355.15,485.1Z"/><path class="cls-6" d="M346.13,485.86a3.53,3.53,0,1,0-5-.36A3.53,3.53,0,0,0,346.13,485.86Z"/><path class="cls-6" d="M336.73,485.83a3,3,0,1,0-4.27-.31A3,3,0,0,0,336.73,485.83Z"/><path class="cls-6" d="M327.81,486a3.26,3.26,0,1,0-4.6-.33A3.27,3.27,0,0,0,327.81,486Z"/><path class="cls-6" d="M318.85,485.68a3.43,3.43,0,1,0-4.84-.36A3.43,3.43,0,0,0,318.85,485.68Z"/><path class="cls-6" d="M309.29,484.26a2.62,2.62,0,1,0-3.7-.27A2.62,2.62,0,0,0,309.29,484.26Z"/><path class="cls-6" d="M300.71,483.55a3.26,3.26,0,1,0-4.6-.34A3.25,3.25,0,0,0,300.71,483.55Z"/><path class="cls-6" d="M291.38,481.51a2.66,2.66,0,1,0-3.75-.27A2.66,2.66,0,0,0,291.38,481.51Z"/><path class="cls-6" d="M282.52,479.55a2.66,2.66,0,1,0-3.75-.27A2.66,2.66,0,0,0,282.52,479.55Z"/><path class="cls-6" d="M272.87,476.2a1.31,1.31,0,1,0-1.85-.14A1.31,1.31,0,0,0,272.87,476.2Z"/><path class="cls-6" d="M264.67,474a2,2,0,1,0-2.85-.21A2,2,0,0,0,264.67,474Z"/><path class="cls-6" d="M255.21,469.88a.61.61,0,0,0,.06-.86.6.6,0,0,0-.85-.06.61.61,0,0,0-.06.86A.6.6,0,0,0,255.21,469.88Z"/><path class="cls-6" d="M247.25,467a1.28,1.28,0,1,0-1.67-1.94,1.28,1.28,0,0,0,1.67,1.94Z"/><path class="cls-6" d="M238.2,462.22a0,0,0,0,0,0-.05s0,0,0,0a0,0,0,0,0,0,0S238.18,462.23,238.2,462.22Z"/><path class="cls-6" d="M230.17,458.13A.11.11,0,0,0,230,458a.11.11,0,0,0,0,.14A.11.11,0,0,0,230.17,458.13Z"/><path class="cls-6" d="M222.34,453.72a.2.2,0,0,0,0-.29.2.2,0,0,0-.28,0,.22.22,0,0,0,0,.29A.2.2,0,0,0,222.34,453.72Z"/><path class="cls-6" d="M214.81,449.08a.44.44,0,0,0,0-.62.44.44,0,0,0-.66.58A.44.44,0,0,0,214.81,449.08Z"/><path class="cls-6" d="M533.2,364.07s0,0,0-.05,0,0,0,0a0,0,0,0,0,0,0A0,0,0,0,0,533.2,364.07Z"/><path class="cls-6" d="M525,380.24a0,0,0,0,0,0-.05,0,0,0,0,0-.05,0,0,0,0,0,0,0,.05A0,0,0,0,0,525,380.24Z"/><path class="cls-6" d="M520.47,388.18a.19.19,0,0,0,0-.28.2.2,0,0,0-.3.26A.2.2,0,0,0,520.47,388.18Z"/><path class="cls-6" d="M498.91,417.31a.1.1,0,0,0,0-.14.11.11,0,0,0-.15,0,.11.11,0,0,0,0,.14A.1.1,0,0,0,498.91,417.31Z"/><path class="cls-6" d="M492.82,424a.1.1,0,0,0,0-.14.11.11,0,0,0-.14,0,.1.1,0,0,0,0,.14A.09.09,0,0,0,492.82,424Z"/><circle class="cls-6" cx="486.39" cy="430.43" r="0.34"/><path class="cls-6" d="M480.45,437.42a1,1,0,1,0-1.47-.11A1,1,0,0,0,480.45,437.42Z"/><circle class="cls-6" cx="472.9" cy="442.56" r="1.04"/><path class="cls-6" d="M466.35,448.84a.84.84,0,0,0-1.1-1.27.84.84,0,1,0,1.1,1.27Z"/><path class="cls-6" d="M459,454.19a.83.83,0,0,0,.08-1.18.84.84,0,0,0-1.18-.09.85.85,0,0,0-.09,1.19A.84.84,0,0,0,459,454.19Z"/><path class="cls-6" d="M451.54,459.31a.94.94,0,1,0-1.23-1.42.94.94,0,1,0,1.23,1.42Z"/><path class="cls-6" d="M444,464.25a1.21,1.21,0,1,0-1.71-.12A1.22,1.22,0,0,0,444,464.25Z"/><path class="cls-6" d="M436.31,469a1.61,1.61,0,1,0-2.28-.16A1.62,1.62,0,0,0,436.31,469Z"/><path class="cls-6" d="M427.86,472.65a1.08,1.08,0,1,0-1.52-.11A1.08,1.08,0,0,0,427.86,472.65Z"/><circle class="cls-6" cx="418.89" cy="475.59" r="3.5"/><path class="cls-6" d="M412.22,481a2.66,2.66,0,1,0-3.74-.28A2.66,2.66,0,0,0,412.22,481Z"/><path class="cls-6" d="M402.78,483a1.28,1.28,0,1,0-1.67-1.93,1.28,1.28,0,0,0,1.67,1.93Z"/><path class="cls-6" d="M395.64,487.52a3.6,3.6,0,1,0-5.08-.38A3.61,3.61,0,0,0,395.64,487.52Z"/><path class="cls-6" d="M386.46,489.39a3,3,0,1,0-4.17-.3A3,3,0,0,0,386.46,489.39Z"/><path class="cls-6" d="M376.31,489.89a1,1,0,1,0-1.37-.1A1,1,0,0,0,376.31,489.89Z"/><path class="cls-6" d="M368,492.2a1.85,1.85,0,1,0-2.61-.19A1.85,1.85,0,0,0,368,492.2Z"/><path class="cls-6" d="M358.05,492.4a.43.43,0,0,0,.05-.62.44.44,0,0,0-.66.58A.43.43,0,0,0,358.05,492.4Z"/><path class="cls-6" d="M350.76,495.32a3.1,3.1,0,1,0-4.37-.32A3.1,3.1,0,0,0,350.76,495.32Z"/><path class="cls-6" d="M340.85,494.86a1.78,1.78,0,1,0-2.52-.18A1.78,1.78,0,0,0,340.85,494.86Z"/><path class="cls-6" d="M332,495.24a2.05,2.05,0,1,0-2.9-.22A2.06,2.06,0,0,0,332,495.24Z"/><path class="cls-6" d="M323.47,495.72a3,3,0,1,0-4.18-.31A3,3,0,0,0,323.47,495.72Z"/><path class="cls-6" d="M313,493.49a.78.78,0,1,0-1.1-.08A.77.77,0,0,0,313,493.49Z"/><path class="cls-6" d="M303.61,492.14a.24.24,0,0,0,0-.33.23.23,0,0,0-.33,0,.24.24,0,0,0,0,.33A.24.24,0,0,0,303.61,492.14Z"/><path class="cls-6" d="M295.24,491.55a1.18,1.18,0,1,0-1.66-.12A1.17,1.17,0,0,0,295.24,491.55Z"/><path class="cls-6" d="M285.58,489a0,0,0,0,0,0-.05h-.05a0,0,0,0,0,0,.05Z"/><path class="cls-6" d="M276.91,487.18a.31.31,0,0,0,0-.43.3.3,0,0,0-.43,0,.3.3,0,0,0,.4.46Z"/><path class="cls-6" d="M268,484.63a.11.11,0,0,0,0-.14.1.1,0,0,0-.15,0,.11.11,0,0,0,0,.14A.11.11,0,0,0,268,484.63Z"/><path class="cls-6" d="M259.38,481.88a.11.11,0,0,0,0-.14.1.1,0,0,0-.16.13A.11.11,0,0,0,259.38,481.88Z"/><path class="cls-6" d="M234.16,471.5s0,0,0-.05,0,0,0,0,0,0,0,.05A0,0,0,0,0,234.16,471.5Z"/><path class="cls-6" d="M423.84,484.78a.3.3,0,0,0-.39-.46.31.31,0,0,0,0,.43A.3.3,0,0,0,423.84,484.78Z"/><path class="cls-6" d="M415.32,488.08a.11.11,0,0,0,0-.14.1.1,0,0,0-.14,0,.09.09,0,0,0,0,.14A.1.1,0,0,0,415.32,488.08Z"/><path class="cls-6" d="M406.75,491.15s0,0,0,0a0,0,0,0,0-.05,0s0,0,0,0A0,0,0,0,0,406.75,491.15Z"/><path class="cls-6" d="M398.25,494.09a.23.23,0,0,0,0-.33.24.24,0,0,0-.33,0,.24.24,0,0,0,0,.34A.24.24,0,0,0,398.25,494.09Z"/><path class="cls-6" d="M389.51,496.54a.24.24,0,1,0-.31-.36.24.24,0,0,0,.31.36Z"/><path class="cls-6" d="M380.55,498.49s0,0,0-.05h-.05a0,0,0,0,0,0,0A0,0,0,0,0,380.55,498.49Z"/><path class="cls-6" d="M371.76,500.37a.2.2,0,1,0-.26-.3.2.2,0,1,0,.26.3Z"/><path class="cls-6" d="M362.73,501.71a.1.1,0,0,0,0-.14.1.1,0,0,0-.15.13A.11.11,0,0,0,362.73,501.71Z"/><path class="cls-6" d="M353.72,502.77a.12.12,0,0,0,0-.15.11.11,0,0,0-.14,0,.11.11,0,0,0,0,.15A.12.12,0,0,0,353.72,502.77Z"/><path class="cls-6" d="M344.67,503.47a.1.1,0,1,0-.14,0A.1.1,0,0,0,344.67,503.47Z"/><path class="cls-6" d="M335.67,503.9a.2.2,0,0,0,0-.28.19.19,0,0,0-.28,0,.2.2,0,0,0,0,.28A.22.22,0,0,0,335.67,503.9Z"/><path class="cls-6" d="M326.49,503.77a0,0,0,0,0,0,0,0,0,0,0,0-.05,0s0,0,0,0A0,0,0,0,0,326.49,503.77Z"/><path class="cls-6" d="M317.42,503.42a0,0,0,0,0,0-.05,0,0,0,0,0-.05,0,0,0,0,0,0,0,0S317.4,503.43,317.42,503.42Z"/><path class="cls-6" d="M308.37,502.71a0,0,0,0,0,0,0,0,0,0,0,0,0,0,0,0,0,0,0,0,0S308.36,502.72,308.37,502.71Z"/><path class="cls-6" d="M299.36,501.65a0,0,0,0,0,0,0,0,0,0,0,0-.05,0,0,0,0,0,0,0,0S299.34,501.66,299.36,501.65Z"/><path class="cls-6" d="M281.49,498.47a0,0,0,0,0,0,0s0,0-.05,0,0,0,0,.05S281.48,498.49,281.49,498.47Z"/><path class="cls-6" d="M394.2,505.57s0,0,0-.05,0,0,0,0a0,0,0,0,0,0,.05A0,0,0,0,0,394.2,505.57Z"/><path class="cls-6" d="M385.4,507.76s0,0,0,0,0,0,0,0a0,0,0,0,0,0,.05A0,0,0,0,0,385.4,507.76Z"/><path class="cls-6" d="M376.52,509.63a0,0,0,0,0,0-.05h0a.08.08,0,0,0,0,.05Z"/><path class="cls-6" d="M367.58,511.16a0,0,0,0,0,0,0s0,0-.05,0,0,0,0,.05S367.56,511.18,367.58,511.16Z"/><path class="cls-6" d="M358.58,512.36a0,0,0,0,0,0-.05h0s0,0,0,.05Z"/><path class="cls-6" d="M349.55,513.22a0,0,0,0,0,0,0s0,0-.05,0a0,0,0,0,0,0,.05A0,0,0,0,0,349.55,513.22Z"/><path class="cls-6" d="M340.49,513.75a0,0,0,0,0,0,0s0,0-.05,0a0,0,0,0,0,0,0A0,0,0,0,0,340.49,513.75Z"/><path class="cls-6" d="M304.24,512.44a0,0,0,0,0,0,0s0,0-.05,0a0,0,0,0,0,0,.05S304.23,512.46,304.24,512.44Z"/><path class="cls-6" d="M295.25,511.27a0,0,0,1,0-.05,0,0,0,0,0,0,0,0Z"/><path class="cls-6" d="M286.3,509.76a0,0,0,0,0,0,0s0,0-.05,0a0,0,0,0,0,0,.05S286.28,509.78,286.3,509.76Z"/><path class="cls-6" d="M390.24,517s0,0,0,0h0s0,0,0,0Z"/><path class="cls-6" d="M336.41,524.06a.13.13,0,0,0,0-.19.13.13,0,0,0-.2.17A.13.13,0,0,0,336.41,524.06Z"/><path class="cls-6" d="M300.12,522.14s0,0,0,0h-.05a0,0,0,0,0,0,0Z"/><path class="cls-6" d="M291.14,520.87a0,0,0,0,0,0,0s0,0,0,0a0,0,0,0,0,0,0S291.12,520.88,291.14,520.87Z"/><path class="cls-6" d="M350.33,533.44s0,0,0-.05h0s0,0,0,.05Z"/><path class="cls-6" d="M341.27,534s0,0,0-.05h0s0,0,0,.05Z"/><path class="cls-6" d="M269.26,526.78s0,0,0,0h0s0,0,0,0S269.25,526.8,269.26,526.78Z"/><path class="cls-6" d="M260.48,524.5a0,0,0,0,0,0,0,0,0,0,0,0-.05,0,0,0,0,0,0,0,0S260.46,524.51,260.48,524.5Z"/></g><path class="cls-7" d="M299.74,229.61h-2.42s-14.24-3.79-14.24-43.54c0-11.71-62.85-11.7-62.85.87,0,38.27-14.61,42.67-14.61,42.67h-2a3.12,3.12,0,0,0-3.16,3.12v1.59a3.14,3.14,0,0,0,3.16,3.15h96.09a3.44,3.44,0,0,0,3.5-3.15v-1.59A3.42,3.42,0,0,0,299.74,229.61Z"/><path class="cls-7" d="M363.19,30.76H139.8c-4.3,0-8.21,2.26-8.21,6.56V193.18c0,4.3,3.91,9.84,8.21,9.84H363.19c4.31,0,6.53-5.54,6.53-9.84V37.32C369.72,33,367.5,30.76,363.19,30.76Z"/><rect class="cls-8" x="143.07" y="43.45" width="215.17" height="123.3"/><path class="cls-7" d="M237.36,335.38H54.83v-117c0-2.44,2.4-3.83,4.84-3.83H233.74c2.43,0,3.62,1.39,3.62,3.83Z"/><rect class="cls-8" x="62.08" y="222.96" width="169.23" height="103.35"/><path class="cls-7" d="M260.93,340.21v-5.1c0-1.22-.63-1.54-1.85-1.54H35.43c-1.22,0-2.36.32-2.36,1.54v5.1h.15s5.51,4.24,8.82,4.24H252.47c3.3,0,8.81-4.24,8.81-4.24Z"/><path class="cls-9" d="M167.08,337.19H127.42c-3.3,0-3.3-3.62-3.3-3.62h46.27S170.39,337.19,167.08,337.19Z"/><path class="cls-7" d="M444.66,274.62c0,4.63-3.63,8.78-8.26,8.78H350a9,9,0,0,1-8.67-8.78V155A9,9,0,0,1,350,146.2H436.4c4.63,0,8.26,4.15,8.26,8.79Z"/><rect class="cls-8" x="349.77" y="156.48" width="86.43" height="105.17"/><path class="cls-7" d="M357.63,357.57c0,3.91-3.78,7.42-7.7,7.42H305a7.47,7.47,0,0,1-7.2-7.42v-97a7.48,7.48,0,0,1,7.2-7.43h44.93c3.92,0,7.7,3.51,7.7,7.43Z"/><path class="cls-7" d="M357.63,357.57c0,3.91-3.78,7.42-7.7,7.42H305a7.47,7.47,0,0,1-7.2-7.42v-97a7.48,7.48,0,0,1,7.2-7.43h44.93c3.92,0,7.7,3.51,7.7,7.43Z"/><rect class="cls-8" x="302.03" y="267.08" width="51.37" height="81.59"/><path class="cls-9" d="M331.76,356.66a4.3,4.3,0,1,1-4.3-4.29A4.3,4.3,0,0,1,331.76,356.66Z"/><rect class="cls-9" x="314.11" y="260.43" width="23.57" height="2.42" rx="1.12"/></g></g></svg>